# MagicaVoxel @ Ephtracy

# group
o 

# material
mtllib bala.mtl
usemtl palette

# normals
vn -1 0 0
vn 1 0 0
vn 0 0 1
vn 0 0 -1
vn 0 -1 0
vn 0 1 0

# texcoords
vt 0.0175781 0.5
vt 0.0410156 0.5
vt 0.974609 0.5

# verts
v 0 2 -0.4
v 0 2 -0.7
v 0 2.1 -0.4
v 0 2.1 -0.7
v 0 2.2 -0.4
v 0 2.2 -0.7
v 0 2.5 -0.4
v 0 2.5 -0.7
v 0 2.6 -0.4
v 0 2.6 -0.5
v 0 2.6 -0.6
v 0 2.6 -0.7
v 0 2.7 -0.5
v 0 2.7 -0.6
v 0.1 2 -0.3
v 0.1 2 -0.4
v 0.1 2 -0.7
v 0.1 2 -0.8
v 0.1 2.1 -0.3
v 0.1 2.1 -0.4
v 0.1 2.1 -0.7
v 0.1 2.1 -0.8
v 0.1 2.2 -0.3
v 0.1 2.2 -0.4
v 0.1 2.2 -0.7
v 0.1 2.2 -0.8
v 0.1 2.5 -0.3
v 0.1 2.5 -0.4
v 0.1 2.5 -0.7
v 0.1 2.5 -0.8
v 0.1 2.6 -0.3
v 0.1 2.6 -0.4
v 0.1 2.6 -0.5
v 0.1 2.6 -0.6
v 0.1 2.6 -0.7
v 0.1 2.6 -0.8
v 0.1 2.7 -0.4
v 0.1 2.7 -0.5
v 0.1 2.7 -0.6
v 0.1 2.7 -0.7
v 0.1 2.8 -0.5
v 0.1 2.8 -0.6
v 0.2 2.6 -0.3
v 0.2 2.6 -0.4
v 0.2 2.6 -0.7
v 0.2 2.6 -0.8
v 0.2 2.7 -0.3
v 0.2 2.7 -0.4
v 0.2 2.7 -0.5
v 0.2 2.7 -0.6
v 0.2 2.7 -0.7
v 0.2 2.7 -0.8
v 0.2 2.8 -0.4
v 0.2 2.8 -0.5
v 0.2 2.8 -0.6
v 0.2 2.8 -0.7
v 0.2 2.9 -0.5
v 0.2 2.9 -0.6
v 0.3 2.6 -0.3
v 0.3 2.6 -0.4
v 0.3 2.6 -0.7
v 0.3 2.6 -0.8
v 0.3 2.7 -0.3
v 0.3 2.7 -0.4
v 0.3 2.7 -0.5
v 0.3 2.7 -0.6
v 0.3 2.7 -0.7
v 0.3 2.7 -0.8
v 0.3 2.8 -0.4
v 0.3 2.8 -0.5
v 0.3 2.8 -0.6
v 0.3 2.8 -0.7
v 0.3 2.9 -0.5
v 0.3 2.9 -0.6
v 0.4 2 -0.3
v 0.4 2 -0.4
v 0.4 2 -0.7
v 0.4 2 -0.8
v 0.4 2.1 -0.3
v 0.4 2.1 -0.4
v 0.4 2.1 -0.7
v 0.4 2.1 -0.8
v 0.4 2.2 -0.3
v 0.4 2.2 -0.4
v 0.4 2.2 -0.7
v 0.4 2.2 -0.8
v 0.4 2.5 -0.3
v 0.4 2.5 -0.4
v 0.4 2.5 -0.7
v 0.4 2.5 -0.8
v 0.4 2.6 -0.3
v 0.4 2.6 -0.4
v 0.4 2.6 -0.5
v 0.4 2.6 -0.6
v 0.4 2.6 -0.7
v 0.4 2.6 -0.8
v 0.4 2.7 -0.4
v 0.4 2.7 -0.5
v 0.4 2.7 -0.6
v 0.4 2.7 -0.7
v 0.4 2.8 -0.5
v 0.4 2.8 -0.6
v 0.5 2 -0.4
v 0.5 2 -0.7
v 0.5 2.1 -0.4
v 0.5 2.1 -0.7
v 0.5 2.2 -0.4
v 0.5 2.2 -0.7
v 0.5 2.5 -0.4
v 0.5 2.5 -0.7
v 0.5 2.6 -0.4
v 0.5 2.6 -0.5
v 0.5 2.6 -0.6
v 0.5 2.6 -0.7
v 0.5 2.7 -0.5
v 0.5 2.7 -0.6
v 0.1 2 -0.3
v 0.1 2.1 -0.3
v 0.1 2.2 -0.3
v 0.1 2.5 -0.3
v 0.1 2.6 -0.3
v 0.2 2.6 -0.3
v 0.2 2.7 -0.3
v 0.3 2.6 -0.3
v 0.3 2.7 -0.3
v 0.4 2 -0.3
v 0.4 2.1 -0.3
v 0.4 2.2 -0.3
v 0.4 2.5 -0.3
v 0.4 2.6 -0.3
v 0 2 -0.4
v 0 2.1 -0.4
v 0 2.2 -0.4
v 0 2.5 -0.4
v 0 2.6 -0.4
v 0.1 2 -0.4
v 0.1 2.1 -0.4
v 0.1 2.2 -0.4
v 0.1 2.5 -0.4
v 0.1 2.6 -0.4
v 0.1 2.7 -0.4
v 0.2 2.6 -0.4
v 0.2 2.7 -0.4
v 0.2 2.8 -0.4
v 0.3 2.6 -0.4
v 0.3 2.7 -0.4
v 0.3 2.8 -0.4
v 0.4 2 -0.4
v 0.4 2.1 -0.4
v 0.4 2.2 -0.4
v 0.4 2.5 -0.4
v 0.4 2.6 -0.4
v 0.4 2.7 -0.4
v 0.5 2 -0.4
v 0.5 2.1 -0.4
v 0.5 2.2 -0.4
v 0.5 2.5 -0.4
v 0.5 2.6 -0.4
v 0 2.6 -0.5
v 0 2.7 -0.5
v 0.1 2.6 -0.5
v 0.1 2.7 -0.5
v 0.1 2.8 -0.5
v 0.2 2.7 -0.5
v 0.2 2.8 -0.5
v 0.2 2.9 -0.5
v 0.3 2.7 -0.5
v 0.3 2.8 -0.5
v 0.3 2.9 -0.5
v 0.4 2.6 -0.5
v 0.4 2.7 -0.5
v 0.4 2.8 -0.5
v 0.5 2.6 -0.5
v 0.5 2.7 -0.5
v 0 2.6 -0.6
v 0 2.7 -0.6
v 0.1 2.6 -0.6
v 0.1 2.7 -0.6
v 0.1 2.8 -0.6
v 0.2 2.7 -0.6
v 0.2 2.8 -0.6
v 0.2 2.9 -0.6
v 0.3 2.7 -0.6
v 0.3 2.8 -0.6
v 0.3 2.9 -0.6
v 0.4 2.6 -0.6
v 0.4 2.7 -0.6
v 0.4 2.8 -0.6
v 0.5 2.6 -0.6
v 0.5 2.7 -0.6
v 0 2 -0.7
v 0 2.1 -0.7
v 0 2.2 -0.7
v 0 2.5 -0.7
v 0 2.6 -0.7
v 0.1 2 -0.7
v 0.1 2.1 -0.7
v 0.1 2.2 -0.7
v 0.1 2.5 -0.7
v 0.1 2.6 -0.7
v 0.1 2.7 -0.7
v 0.2 2.6 -0.7
v 0.2 2.7 -0.7
v 0.2 2.8 -0.7
v 0.3 2.6 -0.7
v 0.3 2.7 -0.7
v 0.3 2.8 -0.7
v 0.4 2 -0.7
v 0.4 2.1 -0.7
v 0.4 2.2 -0.7
v 0.4 2.5 -0.7
v 0.4 2.6 -0.7
v 0.4 2.7 -0.7
v 0.5 2 -0.7
v 0.5 2.1 -0.7
v 0.5 2.2 -0.7
v 0.5 2.5 -0.7
v 0.5 2.6 -0.7
v 0.1 2 -0.8
v 0.1 2.1 -0.8
v 0.1 2.2 -0.8
v 0.1 2.5 -0.8
v 0.1 2.6 -0.8
v 0.2 2.6 -0.8
v 0.2 2.7 -0.8
v 0.3 2.6 -0.8
v 0.3 2.7 -0.8
v 0.4 2 -0.8
v 0.4 2.1 -0.8
v 0.4 2.2 -0.8
v 0.4 2.5 -0.8
v 0.4 2.6 -0.8
v 0.1 2 -0.3
v 0.4 2 -0.3
v 0 2 -0.4
v 0.1 2 -0.4
v 0.2 2 -0.4
v 0.3 2 -0.4
v 0.4 2 -0.4
v 0.5 2 -0.4
v 0.1 2 -0.5
v 0.2 2 -0.5
v 0.3 2 -0.5
v 0.4 2 -0.5
v 0.1 2 -0.6
v 0.2 2 -0.6
v 0.3 2 -0.6
v 0.4 2 -0.6
v 0 2 -0.7
v 0.1 2 -0.7
v 0.2 2 -0.7
v 0.3 2 -0.7
v 0.4 2 -0.7
v 0.5 2 -0.7
v 0.1 2 -0.8
v 0.4 2 -0.8
v 0.1 2.6 -0.3
v 0.2 2.6 -0.3
v 0.3 2.6 -0.3
v 0.4 2.6 -0.3
v 0 2.6 -0.4
v 0.1 2.6 -0.4
v 0.2 2.6 -0.4
v 0.3 2.6 -0.4
v 0.4 2.6 -0.4
v 0.5 2.6 -0.4
v 0 2.6 -0.5
v 0.1 2.6 -0.5
v 0.4 2.6 -0.5
v 0.5 2.6 -0.5
v 0 2.6 -0.6
v 0.1 2.6 -0.6
v 0.4 2.6 -0.6
v 0.5 2.6 -0.6
v 0 2.6 -0.7
v 0.1 2.6 -0.7
v 0.2 2.6 -0.7
v 0.3 2.6 -0.7
v 0.4 2.6 -0.7
v 0.5 2.6 -0.7
v 0.1 2.6 -0.8
v 0.2 2.6 -0.8
v 0.3 2.6 -0.8
v 0.4 2.6 -0.8
v 0.2 2.7 -0.3
v 0.3 2.7 -0.3
v 0.1 2.7 -0.4
v 0.2 2.7 -0.4
v 0.3 2.7 -0.4
v 0.4 2.7 -0.4
v 0 2.7 -0.5
v 0.1 2.7 -0.5
v 0.2 2.7 -0.5
v 0.3 2.7 -0.5
v 0.4 2.7 -0.5
v 0.5 2.7 -0.5
v 0 2.7 -0.6
v 0.1 2.7 -0.6
v 0.2 2.7 -0.6
v 0.3 2.7 -0.6
v 0.4 2.7 -0.6
v 0.5 2.7 -0.6
v 0.1 2.7 -0.7
v 0.2 2.7 -0.7
v 0.3 2.7 -0.7
v 0.4 2.7 -0.7
v 0.2 2.7 -0.8
v 0.3 2.7 -0.8
v 0.2 2.8 -0.4
v 0.3 2.8 -0.4
v 0.1 2.8 -0.5
v 0.2 2.8 -0.5
v 0.3 2.8 -0.5
v 0.4 2.8 -0.5
v 0.1 2.8 -0.6
v 0.2 2.8 -0.6
v 0.3 2.8 -0.6
v 0.4 2.8 -0.6
v 0.2 2.8 -0.7
v 0.3 2.8 -0.7
v 0.2 2.9 -0.5
v 0.3 2.9 -0.5
v 0.2 2.9 -0.6
v 0.3 2.9 -0.6

# faces
f 3/1/1 2/1/1 1/1/1
f 4/1/1 2/1/1 3/1/1
f 5/2/1 4/2/1 3/2/1
f 6/2/1 4/2/1 5/2/1
f 7/1/1 6/1/1 5/1/1
f 8/1/1 6/1/1 7/1/1
f 9/3/1 8/3/1 7/3/1
f 10/3/1 8/3/1 9/3/1
f 11/3/1 8/3/1 10/3/1
f 12/3/1 8/3/1 11/3/1
f 13/3/1 11/3/1 10/3/1
f 14/3/1 11/3/1 13/3/1
f 19/1/1 16/1/1 15/1/1
f 20/1/1 16/1/1 19/1/1
f 21/1/1 18/1/1 17/1/1
f 22/1/1 18/1/1 21/1/1
f 23/2/1 20/2/1 19/2/1
f 24/2/1 20/2/1 23/2/1
f 25/2/1 22/2/1 21/2/1
f 26/2/1 22/2/1 25/2/1
f 27/1/1 24/1/1 23/1/1
f 28/1/1 24/1/1 27/1/1
f 29/1/1 26/1/1 25/1/1
f 30/1/1 26/1/1 29/1/1
f 31/3/1 28/3/1 27/3/1
f 32/3/1 28/3/1 31/3/1
f 35/3/1 30/3/1 29/3/1
f 36/3/1 30/3/1 35/3/1
f 37/3/1 33/3/1 32/3/1
f 38/3/1 33/3/1 37/3/1
f 39/3/1 35/3/1 34/3/1
f 40/3/1 35/3/1 39/3/1
f 41/3/1 39/3/1 38/3/1
f 42/3/1 39/3/1 41/3/1
f 47/3/1 44/3/1 43/3/1
f 48/3/1 44/3/1 47/3/1
f 51/3/1 46/3/1 45/3/1
f 52/3/1 46/3/1 51/3/1
f 53/3/1 49/3/1 48/3/1
f 54/3/1 49/3/1 53/3/1
f 55/3/1 51/3/1 50/3/1
f 56/3/1 51/3/1 55/3/1
f 57/3/1 55/3/1 54/3/1
f 58/3/1 55/3/1 57/3/1
f 59/3/2 60/3/2 63/3/2
f 63/3/2 60/3/2 64/3/2
f 61/3/2 62/3/2 67/3/2
f 67/3/2 62/3/2 68/3/2
f 64/3/2 65/3/2 69/3/2
f 69/3/2 65/3/2 70/3/2
f 66/3/2 67/3/2 71/3/2
f 71/3/2 67/3/2 72/3/2
f 70/3/2 71/3/2 73/3/2
f 73/3/2 71/3/2 74/3/2
f 75/1/2 76/1/2 79/1/2
f 79/1/2 76/1/2 80/1/2
f 77/1/2 78/1/2 81/1/2
f 81/1/2 78/1/2 82/1/2
f 79/2/2 80/2/2 83/2/2
f 83/2/2 80/2/2 84/2/2
f 81/2/2 82/2/2 85/2/2
f 85/2/2 82/2/2 86/2/2
f 83/1/2 84/1/2 87/1/2
f 87/1/2 84/1/2 88/1/2
f 85/1/2 86/1/2 89/1/2
f 89/1/2 86/1/2 90/1/2
f 87/3/2 88/3/2 91/3/2
f 91/3/2 88/3/2 92/3/2
f 89/3/2 90/3/2 95/3/2
f 95/3/2 90/3/2 96/3/2
f 92/3/2 93/3/2 97/3/2
f 97/3/2 93/3/2 98/3/2
f 94/3/2 95/3/2 99/3/2
f 99/3/2 95/3/2 100/3/2
f 98/3/2 99/3/2 101/3/2
f 101/3/2 99/3/2 102/3/2
f 103/1/2 104/1/2 105/1/2
f 105/1/2 104/1/2 106/1/2
f 105/2/2 106/2/2 107/2/2
f 107/2/2 106/2/2 108/2/2
f 107/1/2 108/1/2 109/1/2
f 109/1/2 108/1/2 110/1/2
f 109/3/2 110/3/2 111/3/2
f 111/3/2 110/3/2 112/3/2
f 112/3/2 110/3/2 113/3/2
f 113/3/2 110/3/2 114/3/2
f 112/3/2 113/3/2 115/3/2
f 115/3/2 113/3/2 116/3/2
f 122/3/3 121/3/3 120/3/3
f 124/3/3 122/3/3 120/3/3
f 124/3/3 123/3/3 122/3/3
f 125/3/3 123/3/3 124/3/3
f 126/1/3 118/1/3 117/1/3
f 127/2/3 119/2/3 118/2/3
f 127/1/3 118/1/3 126/1/3
f 128/1/3 120/1/3 119/1/3
f 128/2/3 119/2/3 127/2/3
f 129/3/3 124/3/3 120/3/3
f 129/1/3 120/1/3 128/1/3
f 130/3/3 124/3/3 129/3/3
f 136/1/3 132/1/3 131/1/3
f 137/2/3 133/2/3 132/2/3
f 137/1/3 132/1/3 136/1/3
f 138/1/3 134/1/3 133/1/3
f 138/2/3 133/2/3 137/2/3
f 139/3/3 135/3/3 134/3/3
f 139/1/3 134/1/3 138/1/3
f 140/3/3 135/3/3 139/3/3
f 142/3/3 141/3/3 140/3/3
f 143/3/3 141/3/3 142/3/3
f 146/3/3 144/3/3 143/3/3
f 147/3/3 144/3/3 146/3/3
f 152/3/3 146/3/3 145/3/3
f 153/3/3 146/3/3 152/3/3
f 154/1/3 149/1/3 148/1/3
f 155/2/3 150/2/3 149/2/3
f 155/1/3 149/1/3 154/1/3
f 156/1/3 151/1/3 150/1/3
f 156/2/3 150/2/3 155/2/3
f 157/3/3 152/3/3 151/3/3
f 157/1/3 151/1/3 156/1/3
f 158/3/3 152/3/3 157/3/3
f 161/3/3 160/3/3 159/3/3
f 162/3/3 160/3/3 161/3/3
f 164/3/3 163/3/3 162/3/3
f 165/3/3 163/3/3 164/3/3
f 168/3/3 166/3/3 165/3/3
f 169/3/3 166/3/3 168/3/3
f 171/3/3 168/3/3 167/3/3
f 172/3/3 168/3/3 171/3/3
f 173/3/3 171/3/3 170/3/3
f 174/3/3 171/3/3 173/3/3
f 175/3/4 176/3/4 177/3/4
f 177/3/4 176/3/4 178/3/4
f 178/3/4 179/3/4 180/3/4
f 180/3/4 179/3/4 181/3/4
f 181/3/4 182/3/4 184/3/4
f 184/3/4 182/3/4 185/3/4
f 183/3/4 184/3/4 187/3/4
f 187/3/4 184/3/4 188/3/4
f 186/3/4 187/3/4 189/3/4
f 189/3/4 187/3/4 190/3/4
f 191/1/4 192/1/4 196/1/4
f 192/2/4 193/2/4 197/2/4
f 196/1/4 192/1/4 197/1/4
f 193/1/4 194/1/4 198/1/4
f 197/2/4 193/2/4 198/2/4
f 194/3/4 195/3/4 199/3/4
f 198/1/4 194/1/4 199/1/4
f 199/3/4 195/3/4 200/3/4
f 200/3/4 201/3/4 202/3/4
f 202/3/4 201/3/4 203/3/4
f 203/3/4 204/3/4 206/3/4
f 206/3/4 204/3/4 207/3/4
f 205/3/4 206/3/4 212/3/4
f 212/3/4 206/3/4 213/3/4
f 208/1/4 209/1/4 214/1/4
f 209/2/4 210/2/4 215/2/4
f 214/1/4 209/1/4 215/1/4
f 210/1/4 211/1/4 216/1/4
f 215/2/4 210/2/4 216/2/4
f 211/3/4 212/3/4 217/3/4
f 216/1/4 211/1/4 217/1/4
f 217/3/4 212/3/4 218/3/4
f 222/3/4 223/3/4 224/3/4
f 222/3/4 224/3/4 226/3/4
f 224/3/4 225/3/4 226/3/4
f 226/3/4 225/3/4 227/3/4
f 219/1/4 220/1/4 228/1/4
f 220/2/4 221/2/4 229/2/4
f 228/1/4 220/1/4 229/1/4
f 221/1/4 222/1/4 230/1/4
f 229/2/4 221/2/4 230/2/4
f 222/3/4 226/3/4 231/3/4
f 230/1/4 222/1/4 231/1/4
f 231/3/4 226/3/4 232/3/4
f 236/1/5 234/1/5 233/1/5
f 237/1/5 234/1/5 236/1/5
f 238/1/5 234/1/5 237/1/5
f 239/1/5 234/1/5 238/1/5
f 241/1/5 236/1/5 235/1/5
f 241/1/5 237/1/5 236/1/5
f 242/2/5 238/2/5 237/2/5
f 242/1/5 237/1/5 241/1/5
f 243/1/5 240/1/5 239/1/5
f 243/2/5 238/2/5 242/2/5
f 243/1/5 239/1/5 238/1/5
f 244/1/5 240/1/5 243/1/5
f 245/2/5 242/2/5 241/2/5
f 245/1/5 241/1/5 235/1/5
f 245/2/5 244/2/5 243/2/5
f 245/2/5 243/2/5 242/2/5
f 246/2/5 244/2/5 245/2/5
f 247/2/5 244/2/5 246/2/5
f 248/1/5 240/1/5 244/1/5
f 248/2/5 244/2/5 247/2/5
f 249/1/5 245/1/5 235/1/5
f 249/1/5 246/1/5 245/1/5
f 250/1/5 246/1/5 249/1/5
f 251/2/5 247/2/5 246/2/5
f 251/1/5 246/1/5 250/1/5
f 252/1/5 248/1/5 247/1/5
f 252/2/5 247/2/5 251/2/5
f 253/1/5 240/1/5 248/1/5
f 253/1/5 248/1/5 252/1/5
f 254/1/5 240/1/5 253/1/5
f 255/1/5 252/1/5 251/1/5
f 255/1/5 253/1/5 252/1/5
f 255/1/5 251/1/5 250/1/5
f 256/1/5 253/1/5 255/1/5
f 257/3/6 258/3/6 262/3/6
f 262/3/6 258/3/6 263/3/6
f 259/3/6 260/3/6 264/3/6
f 264/3/6 260/3/6 265/3/6
f 261/3/6 262/3/6 267/3/6
f 267/3/6 262/3/6 268/3/6
f 265/3/6 266/3/6 269/3/6
f 269/3/6 266/3/6 270/3/6
f 271/3/6 272/3/6 275/3/6
f 275/3/6 272/3/6 276/3/6
f 273/3/6 274/3/6 279/3/6
f 279/3/6 274/3/6 280/3/6
f 276/3/6 277/3/6 281/3/6
f 281/3/6 277/3/6 282/3/6
f 278/3/6 279/3/6 283/3/6
f 283/3/6 279/3/6 284/3/6
f 285/3/6 286/3/6 288/3/6
f 288/3/6 286/3/6 289/3/6
f 287/3/6 288/3/6 292/3/6
f 292/3/6 288/3/6 293/3/6
f 289/3/6 290/3/6 294/3/6
f 294/3/6 290/3/6 295/3/6
f 291/3/6 292/3/6 297/3/6
f 297/3/6 292/3/6 298/3/6
f 295/3/6 296/3/6 301/3/6
f 301/3/6 296/3/6 302/3/6
f 298/3/6 299/3/6 303/3/6
f 303/3/6 299/3/6 304/3/6
f 300/3/6 301/3/6 305/3/6
f 305/3/6 301/3/6 306/3/6
f 304/3/6 305/3/6 307/3/6
f 307/3/6 305/3/6 308/3/6
f 309/3/6 310/3/6 312/3/6
f 312/3/6 310/3/6 313/3/6
f 311/3/6 312/3/6 315/3/6
f 315/3/6 312/3/6 316/3/6
f 313/3/6 314/3/6 317/3/6
f 317/3/6 314/3/6 318/3/6
f 316/3/6 317/3/6 319/3/6
f 319/3/6 317/3/6 320/3/6
f 321/3/6 322/3/6 323/3/6
f 323/3/6 322/3/6 324/3/6
