# MagicaVoxel @ Ephtracy

# group
o CarpaCeleste

# material
mtllib Asset-33-CarpaCeleste.mtl
usemtl palette

# normals
vn -1 0 0
vn 1 0 0
vn 0 0 1
vn 0 0 -1
vn 0 -1 0
vn 0 1 0

# texcoords
vt 0.306641 0.5
vt 0.705078 0.5
vt 0.728516 0.5
vt 0.736328 0.5
vt 0.744141 0.5
vt 0.759766 0.5
vt 0.830078 0.5
vt 0.912109 0.5

# verts
v 0.7 0 3.4
v 0.7 0 1.5
v 0.7 0.1 3.4
v 0.7 0.1 1.5
v 0.8 0.1 3.4
v 0.8 0.1 1.5
v 0.8 0.2 3.4
v 0.8 0.2 1.5
v 0.9 0.2 3.4
v 0.9 0.2 1.5
v 0.9 0.3 3.4
v 0.9 0.3 1.5
v 1 0.3 3.4
v 1 0.3 1.5
v 1 0.4 3.4
v 1 0.4 1.5
v 1.1 0.4 3.4
v 1.1 0.4 1.5
v 1.1 0.5 3.4
v 1.1 0.5 1.5
v 1.2 0.5 3.4
v 1.2 0.5 1.5
v 1.2 0.6 3.4
v 1.2 0.6 1.5
v 1.3 0.1 3.4
v 1.3 0.1 3.3
v 1.3 0.4 3.4
v 1.3 0.4 3.3
v 1.3 0.6 3.4
v 1.3 0.6 1.5
v 1.3 0.7 3.4
v 1.3 0.7 1.5
v 1.4 0.7 3.4
v 1.4 0.7 1.5
v 1.4 0.8 3.4
v 1.4 0.8 1.5
v 1.5 0.8 3.4
v 1.5 0.8 1.5
v 1.5 0.9 3.4
v 1.5 0.9 1.5
v 1.6 0.9 3.4
v 1.6 0.9 1.5
v 1.6 1 3.4
v 1.6 1 1.5
v 1.8 0.7 3.4
v 1.8 0.7 3.3
v 1.8 0.8 3.4
v 1.8 0.8 3.3
v 1.9 0.6 3.4
v 1.9 0.6 3.3
v 1.9 0.7 3.4
v 1.9 0.7 3.3
v 2 0.1 3.4
v 2 0.1 3.3
v 2 0.4 3.4
v 2 0.4 3.3
v 2 0.5 3.4
v 2 0.5 3.3
v 2 0.6 3.4
v 2 0.6 3.3
v 2.1 0.4 3.4
v 2.1 0.4 3.3
v 2.1 0.5 3.4
v 2.1 0.5 3.3
v 2.2 0.1 3.4
v 2.2 0.1 3.3
v 2.2 0.4 3.4
v 2.2 0.4 3.3
v 1.2 0.1 3.4
v 1.2 0.1 3.3
v 1.2 0.4 3.4
v 1.2 0.4 3.3
v 1.3 0.4 3.4
v 1.3 0.4 3.3
v 1.3 0.5 3.4
v 1.3 0.5 3.3
v 1.4 0.1 3.4
v 1.4 0.1 3.3
v 1.4 0.4 3.4
v 1.4 0.4 3.3
v 1.4 0.5 3.4
v 1.4 0.5 3.3
v 1.4 0.6 3.4
v 1.4 0.6 3.3
v 1.5 0.6 3.4
v 1.5 0.6 3.3
v 1.5 0.7 3.4
v 1.5 0.7 3.3
v 1.6 0.7 3.4
v 1.6 0.7 3.3
v 1.6 0.8 3.4
v 1.6 0.8 3.3
v 1.8 0.9 3.4
v 1.8 0.9 1.5
v 1.8 1 3.4
v 1.8 1 1.5
v 1.9 0.8 3.4
v 1.9 0.8 1.5
v 1.9 0.9 3.4
v 1.9 0.9 1.5
v 2 0.7 3.4
v 2 0.7 1.5
v 2 0.8 3.4
v 2 0.8 1.5
v 2.1 0.1 3.4
v 2.1 0.1 3.3
v 2.1 0.4 3.4
v 2.1 0.4 3.3
v 2.1 0.6 3.4
v 2.1 0.6 1.5
v 2.1 0.7 3.4
v 2.1 0.7 1.5
v 2.2 0.5 3.4
v 2.2 0.5 1.5
v 2.2 0.6 3.4
v 2.2 0.6 1.5
v 2.3 0.4 3.4
v 2.3 0.4 1.5
v 2.3 0.5 3.4
v 2.3 0.5 1.5
v 2.4 0.3 3.4
v 2.4 0.3 1.5
v 2.4 0.4 3.4
v 2.4 0.4 1.5
v 2.5 0.2 3.4
v 2.5 0.2 1.5
v 2.5 0.3 3.4
v 2.5 0.3 1.5
v 2.6 0.1 3.4
v 2.6 0.1 1.5
v 2.6 0.2 3.4
v 2.6 0.2 1.5
v 2.7 0 3.4
v 2.7 0 1.5
v 2.7 0.1 3.4
v 2.7 0.1 1.5
v 0.7 0 3.4
v 0.7 0.1 3.4
v 0.8 0.1 3.4
v 0.8 0.2 3.4
v 0.9 0.1 3.4
v 0.9 0.2 3.4
v 0.9 0.3 3.4
v 1 0.3 3.4
v 1 0.4 3.4
v 1.1 0 3.4
v 1.1 0.1 3.4
v 1.1 0.3 3.4
v 1.1 0.4 3.4
v 1.1 0.5 3.4
v 1.2 0.1 3.4
v 1.2 0.4 3.4
v 1.2 0.5 3.4
v 1.2 0.6 3.4
v 1.3 0.1 3.4
v 1.3 0.4 3.4
v 1.3 0.5 3.4
v 1.3 0.6 3.4
v 1.3 0.7 3.4
v 1.4 0.1 3.4
v 1.4 0.4 3.4
v 1.4 0.5 3.4
v 1.4 0.6 3.4
v 1.4 0.7 3.4
v 1.4 0.8 3.4
v 1.5 0.6 3.4
v 1.5 0.7 3.4
v 1.5 0.8 3.4
v 1.5 0.9 3.4
v 1.6 0.7 3.4
v 1.6 0.8 3.4
v 1.6 0.9 3.4
v 1.6 1 3.4
v 1.8 0.7 3.4
v 1.8 0.8 3.4
v 1.8 0.9 3.4
v 1.8 1 3.4
v 1.9 0.6 3.4
v 1.9 0.7 3.4
v 1.9 0.8 3.4
v 1.9 0.9 3.4
v 2 0.1 3.4
v 2 0.4 3.4
v 2 0.5 3.4
v 2 0.6 3.4
v 2 0.7 3.4
v 2 0.8 3.4
v 2.1 0.1 3.4
v 2.1 0.4 3.4
v 2.1 0.5 3.4
v 2.1 0.6 3.4
v 2.1 0.7 3.4
v 2.2 0.1 3.4
v 2.2 0.4 3.4
v 2.2 0.5 3.4
v 2.2 0.6 3.4
v 2.3 0 3.4
v 2.3 0.1 3.4
v 2.3 0.3 3.4
v 2.3 0.4 3.4
v 2.3 0.5 3.4
v 2.4 0.3 3.4
v 2.4 0.4 3.4
v 2.5 0.1 3.4
v 2.5 0.2 3.4
v 2.5 0.3 3.4
v 2.6 0.1 3.4
v 2.6 0.2 3.4
v 2.7 0 3.4
v 2.7 0.1 3.4
v 1.2 0.1 3.3
v 1.2 0.4 3.3
v 1.3 0.1 3.3
v 1.3 0.4 3.3
v 1.3 0.5 3.3
v 1.4 0.1 3.3
v 1.4 0.4 3.3
v 1.4 0.5 3.3
v 1.4 0.6 3.3
v 1.5 0.4 3.3
v 1.5 0.5 3.3
v 1.5 0.6 3.3
v 1.5 0.7 3.3
v 1.6 0.7 3.3
v 1.6 0.8 3.3
v 1.8 0.7 3.3
v 1.8 0.8 3.3
v 1.9 0.4 3.3
v 1.9 0.5 3.3
v 1.9 0.6 3.3
v 1.9 0.7 3.3
v 2 0.1 3.3
v 2 0.4 3.3
v 2 0.5 3.3
v 2 0.6 3.3
v 2.1 0.1 3.3
v 2.1 0.4 3.3
v 2.1 0.5 3.3
v 2.2 0.1 3.3
v 2.2 0.4 3.3
v 0.7 0 1.5
v 0.7 0.1 1.5
v 0.8 0.1 1.5
v 0.8 0.2 1.5
v 0.9 0.1 1.5
v 0.9 0.2 1.5
v 0.9 0.3 1.5
v 1 0.3 1.5
v 1 0.4 1.5
v 1.1 0.3 1.5
v 1.1 0.4 1.5
v 1.1 0.5 1.5
v 1.2 0.5 1.5
v 1.2 0.6 1.5
v 1.3 0.5 1.5
v 1.3 0.6 1.5
v 1.3 0.7 1.5
v 1.4 0.7 1.5
v 1.4 0.8 1.5
v 1.5 0.7 1.5
v 1.5 0.8 1.5
v 1.5 0.9 1.5
v 1.6 0.9 1.5
v 1.6 1 1.5
v 1.8 0.9 1.5
v 1.8 1 1.5
v 1.9 0.7 1.5
v 1.9 0.8 1.5
v 1.9 0.9 1.5
v 2 0.7 1.5
v 2 0.8 1.5
v 2.1 0.5 1.5
v 2.1 0.6 1.5
v 2.1 0.7 1.5
v 2.2 0.5 1.5
v 2.2 0.6 1.5
v 2.3 0.3 1.5
v 2.3 0.4 1.5
v 2.3 0.5 1.5
v 2.4 0.3 1.5
v 2.4 0.4 1.5
v 2.5 0.1 1.5
v 2.5 0.2 1.5
v 2.5 0.3 1.5
v 2.6 0.1 1.5
v 2.6 0.2 1.5
v 2.7 0 1.5
v 2.7 0.1 1.5
v 0.7 0 3.4
v 1.1 0 3.4
v 2.3 0 3.4
v 2.7 0 3.4
v 0.8 0 3.3
v 1.1 0 3.3
v 1.3 0 3.3
v 1.4 0 3.3
v 2 0 3.3
v 2.1 0 3.3
v 2.2 0 3.3
v 2.3 0 3.3
v 2.6 0 3.3
v 1.1 0 3.2
v 1.3 0 3.2
v 1.4 0 3.2
v 1.6 0 3.2
v 1.8 0 3.2
v 2 0 3.2
v 2.1 0 3.2
v 2.2 0 3.2
v 1.6 0 3.1
v 1.8 0 3.1
v 0.8 0 1.6
v 2.6 0 1.6
v 0.7 0 1.5
v 2.7 0 1.5
v 1.2 0.4 3.4
v 1.3 0.4 3.4
v 2.1 0.4 3.4
v 2.2 0.4 3.4
v 1.2 0.4 3.3
v 1.3 0.4 3.3
v 2.1 0.4 3.3
v 2.2 0.4 3.3
v 1.3 0.5 3.4
v 1.4 0.5 3.4
v 2 0.5 3.4
v 2.1 0.5 3.4
v 1.3 0.5 3.3
v 1.4 0.5 3.3
v 2 0.5 3.3
v 2.1 0.5 3.3
v 1.4 0.6 3.4
v 1.5 0.6 3.4
v 1.9 0.6 3.4
v 2 0.6 3.4
v 1.4 0.6 3.3
v 1.5 0.6 3.3
v 1.9 0.6 3.3
v 2 0.6 3.3
v 1.5 0.7 3.4
v 1.6 0.7 3.4
v 1.8 0.7 3.4
v 1.9 0.7 3.4
v 1.5 0.7 3.3
v 1.6 0.7 3.3
v 1.8 0.7 3.3
v 1.9 0.7 3.3
v 1.6 0.8 3.4
v 1.8 0.8 3.4
v 1.6 0.8 3.3
v 1.8 0.8 3.3
v 0.7 0.1 3.4
v 0.8 0.1 3.4
v 1.2 0.1 3.4
v 1.3 0.1 3.4
v 1.4 0.1 3.4
v 2 0.1 3.4
v 2.1 0.1 3.4
v 2.2 0.1 3.4
v 2.6 0.1 3.4
v 2.7 0.1 3.4
v 1.2 0.1 3.3
v 1.3 0.1 3.3
v 1.4 0.1 3.3
v 2 0.1 3.3
v 2.1 0.1 3.3
v 2.2 0.1 3.3
v 0.7 0.1 1.5
v 0.8 0.1 1.5
v 2.6 0.1 1.5
v 2.7 0.1 1.5
v 0.8 0.2 3.4
v 0.9 0.2 3.4
v 2.5 0.2 3.4
v 2.6 0.2 3.4
v 0.8 0.2 1.5
v 0.9 0.2 1.5
v 2.5 0.2 1.5
v 2.6 0.2 1.5
v 0.9 0.3 3.4
v 1 0.3 3.4
v 2.4 0.3 3.4
v 2.5 0.3 3.4
v 0.9 0.3 1.5
v 1 0.3 1.5
v 2.4 0.3 1.5
v 2.5 0.3 1.5
v 1 0.4 3.4
v 1.1 0.4 3.4
v 1.3 0.4 3.4
v 1.4 0.4 3.4
v 2 0.4 3.4
v 2.1 0.4 3.4
v 2.3 0.4 3.4
v 2.4 0.4 3.4
v 1.3 0.4 3.3
v 1.4 0.4 3.3
v 2 0.4 3.3
v 2.1 0.4 3.3
v 1 0.4 1.5
v 1.1 0.4 1.5
v 2.3 0.4 1.5
v 2.4 0.4 1.5
v 1.1 0.5 3.4
v 1.2 0.5 3.4
v 2.2 0.5 3.4
v 2.3 0.5 3.4
v 1.1 0.5 1.5
v 1.2 0.5 1.5
v 2.2 0.5 1.5
v 2.3 0.5 1.5
v 1.2 0.6 3.4
v 1.3 0.6 3.4
v 2.1 0.6 3.4
v 2.2 0.6 3.4
v 1.2 0.6 1.5
v 1.3 0.6 1.5
v 2.1 0.6 1.5
v 2.2 0.6 1.5
v 1.3 0.7 3.4
v 1.4 0.7 3.4
v 2 0.7 3.4
v 2.1 0.7 3.4
v 1.3 0.7 1.5
v 1.4 0.7 1.5
v 2 0.7 1.5
v 2.1 0.7 1.5
v 1.4 0.8 3.4
v 1.5 0.8 3.4
v 1.9 0.8 3.4
v 2 0.8 3.4
v 1.4 0.8 1.5
v 1.5 0.8 1.5
v 1.9 0.8 1.5
v 2 0.8 1.5
v 1.5 0.9 3.4
v 1.6 0.9 3.4
v 1.8 0.9 3.4
v 1.9 0.9 3.4
v 1.5 0.9 1.5
v 1.6 0.9 1.5
v 1.8 0.9 1.5
v 1.9 0.9 1.5
v 1.6 1 3.4
v 1.8 1 3.4
v 1.6 1 1.5
v 1.8 1 1.5

# faces
f 3/5/1 2/5/1 1/5/1
f 4/5/1 2/5/1 3/5/1
f 7/2/1 6/2/1 5/2/1
f 8/2/1 6/2/1 7/2/1
f 11/5/1 10/5/1 9/5/1
f 12/5/1 10/5/1 11/5/1
f 15/2/1 14/2/1 13/2/1
f 16/2/1 14/2/1 15/2/1
f 19/5/1 18/5/1 17/5/1
f 20/5/1 18/5/1 19/5/1
f 23/2/1 22/2/1 21/2/1
f 24/2/1 22/2/1 23/2/1
f 27/6/1 26/6/1 25/6/1
f 28/6/1 26/6/1 27/6/1
f 31/5/1 30/5/1 29/5/1
f 32/5/1 30/5/1 31/5/1
f 35/2/1 34/2/1 33/2/1
f 36/2/1 34/2/1 35/2/1
f 39/5/1 38/5/1 37/5/1
f 40/5/1 38/5/1 39/5/1
f 43/2/1 42/2/1 41/2/1
f 44/2/1 42/2/1 43/2/1
f 47/5/1 46/5/1 45/5/1
f 48/5/1 46/5/1 47/5/1
f 51/5/1 50/5/1 49/5/1
f 52/5/1 50/5/1 51/5/1
f 55/6/1 54/6/1 53/6/1
f 56/6/1 54/6/1 55/6/1
f 59/5/1 58/5/1 57/5/1
f 60/5/1 58/5/1 59/5/1
f 63/5/1 62/5/1 61/5/1
f 64/5/1 62/5/1 63/5/1
f 67/5/1 66/5/1 65/5/1
f 68/5/1 66/5/1 67/5/1
f 69/5/2 70/5/2 71/5/2
f 71/5/2 70/5/2 72/5/2
f 73/5/2 74/5/2 75/5/2
f 75/5/2 74/5/2 76/5/2
f 77/6/2 78/6/2 79/6/2
f 79/6/2 78/6/2 80/6/2
f 81/5/2 82/5/2 83/5/2
f 83/5/2 82/5/2 84/5/2
f 85/5/2 86/5/2 87/5/2
f 87/5/2 86/5/2 88/5/2
f 89/5/2 90/5/2 91/5/2
f 91/5/2 90/5/2 92/5/2
f 93/2/2 94/2/2 95/2/2
f 95/2/2 94/2/2 96/2/2
f 97/5/2 98/5/2 99/5/2
f 99/5/2 98/5/2 100/5/2
f 101/2/2 102/2/2 103/2/2
f 103/2/2 102/2/2 104/2/2
f 105/6/2 106/6/2 107/6/2
f 107/6/2 106/6/2 108/6/2
f 109/5/2 110/5/2 111/5/2
f 111/5/2 110/5/2 112/5/2
f 113/2/2 114/2/2 115/2/2
f 115/2/2 114/2/2 116/2/2
f 117/5/2 118/5/2 119/5/2
f 119/5/2 118/5/2 120/5/2
f 121/2/2 122/2/2 123/2/2
f 123/2/2 122/2/2 124/2/2
f 125/5/2 126/5/2 127/5/2
f 127/5/2 126/5/2 128/5/2
f 129/2/2 130/2/2 131/2/2
f 131/2/2 130/2/2 132/2/2
f 133/5/2 134/5/2 135/5/2
f 135/5/2 134/5/2 136/5/2
f 139/5/3 138/5/3 137/5/3
f 141/5/3 139/5/3 137/5/3
f 141/2/3 140/2/3 139/2/3
f 142/2/3 140/2/3 141/2/3
f 144/5/3 142/5/3 141/5/3
f 144/5/3 143/5/3 142/5/3
f 146/5/3 141/5/3 137/5/3
f 146/5/3 144/5/3 141/5/3
f 147/5/3 144/5/3 146/5/3
f 148/2/3 145/2/3 144/2/3
f 148/5/3 144/5/3 147/5/3
f 149/2/3 145/2/3 148/2/3
f 151/6/3 147/6/3 146/6/3
f 151/5/3 150/5/3 149/5/3
f 151/5/3 149/5/3 148/5/3
f 151/5/3 148/5/3 147/5/3
f 152/5/3 150/5/3 151/5/3
f 153/5/3 150/5/3 152/5/3
f 155/6/3 151/6/3 146/6/3
f 156/5/3 153/5/3 152/5/3
f 157/2/3 154/2/3 153/2/3
f 157/5/3 153/5/3 156/5/3
f 158/2/3 154/2/3 157/2/3
f 160/6/3 156/6/3 155/6/3
f 160/6/3 155/6/3 146/6/3
f 161/6/3 156/6/3 160/6/3
f 162/5/3 159/5/3 158/5/3
f 162/5/3 158/5/3 157/5/3
f 163/5/3 159/5/3 162/5/3
f 164/5/3 159/5/3 163/5/3
f 166/5/3 164/5/3 163/5/3
f 167/2/3 165/2/3 164/2/3
f 167/5/3 164/5/3 166/5/3
f 168/2/3 165/2/3 167/2/3
f 170/5/3 169/5/3 168/5/3
f 170/5/3 168/5/3 167/5/3
f 171/5/3 169/5/3 170/5/3
f 172/5/3 169/5/3 171/5/3
f 175/5/3 172/5/3 171/5/3
f 176/2/3 173/2/3 172/2/3
f 176/5/3 172/5/3 175/5/3
f 177/2/3 173/2/3 176/2/3
f 179/5/3 175/5/3 174/5/3
f 179/5/3 176/5/3 175/5/3
f 180/5/3 176/5/3 179/5/3
f 181/5/3 176/5/3 180/5/3
f 182/6/3 160/6/3 146/6/3
f 185/5/3 179/5/3 178/5/3
f 186/2/3 180/2/3 179/2/3
f 186/5/3 179/5/3 185/5/3
f 187/2/3 180/2/3 186/2/3
f 188/6/3 183/6/3 182/6/3
f 188/6/3 182/6/3 146/6/3
f 189/6/3 183/6/3 188/6/3
f 190/5/3 185/5/3 184/5/3
f 190/5/3 186/5/3 185/5/3
f 191/5/3 186/5/3 190/5/3
f 192/5/3 186/5/3 191/5/3
f 193/6/3 188/6/3 146/6/3
f 194/5/3 190/5/3 189/5/3
f 195/2/3 191/2/3 190/2/3
f 195/5/3 190/5/3 194/5/3
f 196/2/3 191/2/3 195/2/3
f 197/6/3 193/6/3 146/6/3
f 198/5/3 194/5/3 193/5/3
f 198/6/3 193/6/3 197/6/3
f 198/5/3 195/5/3 194/5/3
f 199/5/3 195/5/3 198/5/3
f 200/5/3 195/5/3 199/5/3
f 201/5/3 195/5/3 200/5/3
f 202/5/3 198/5/3 197/5/3
f 202/5/3 199/5/3 198/5/3
f 202/2/3 200/2/3 199/2/3
f 203/2/3 200/2/3 202/2/3
f 204/5/3 202/5/3 197/5/3
f 205/5/3 202/5/3 204/5/3
f 206/5/3 202/5/3 205/5/3
f 207/5/3 204/5/3 197/5/3
f 207/2/3 205/2/3 204/2/3
f 208/2/3 205/2/3 207/2/3
f 209/5/3 207/5/3 197/5/3
f 210/5/3 207/5/3 209/5/3
f 213/7/3 212/7/3 211/7/3
f 214/7/3 212/7/3 213/7/3
f 217/7/3 215/7/3 214/7/3
f 218/7/3 215/7/3 217/7/3
f 220/8/3 217/8/3 216/8/3
f 220/6/3 219/6/3 218/6/3
f 220/6/3 218/6/3 217/6/3
f 221/6/3 219/6/3 220/6/3
f 222/6/3 219/6/3 221/6/3
f 224/6/3 222/6/3 221/6/3
f 224/6/3 223/6/3 222/6/3
f 226/6/3 224/6/3 221/6/3
f 226/6/3 225/6/3 224/6/3
f 227/6/3 225/6/3 226/6/3
f 228/8/3 220/8/3 216/8/3
f 228/8/3 221/8/3 220/8/3
f 229/6/3 226/6/3 221/6/3
f 229/8/3 221/8/3 228/8/3
f 230/6/3 226/6/3 229/6/3
f 231/6/3 226/6/3 230/6/3
f 232/8/3 228/8/3 216/8/3
f 233/6/3 229/6/3 228/6/3
f 233/8/3 228/8/3 232/8/3
f 233/6/3 230/6/3 229/6/3
f 234/6/3 230/6/3 233/6/3
f 235/6/3 230/6/3 234/6/3
f 237/7/3 234/7/3 233/7/3
f 238/7/3 234/7/3 237/7/3
f 239/7/3 237/7/3 236/7/3
f 240/7/3 237/7/3 239/7/3
f 241/5/4 242/5/4 243/5/4
f 241/5/4 243/5/4 245/5/4
f 243/2/4 244/2/4 245/2/4
f 245/2/4 244/2/4 246/2/4
f 245/5/4 246/5/4 248/5/4
f 246/5/4 247/5/4 248/5/4
f 245/5/4 248/5/4 250/5/4
f 248/2/4 249/2/4 250/2/4
f 250/2/4 249/2/4 251/2/4
f 250/5/4 251/5/4 253/5/4
f 251/5/4 252/5/4 253/5/4
f 250/5/4 253/5/4 255/5/4
f 253/2/4 254/2/4 255/2/4
f 255/2/4 254/2/4 256/2/4
f 255/5/4 256/5/4 258/5/4
f 256/5/4 257/5/4 258/5/4
f 255/5/4 258/5/4 260/5/4
f 258/2/4 259/2/4 260/2/4
f 260/2/4 259/2/4 261/2/4
f 260/5/4 261/5/4 263/5/4
f 261/5/4 262/5/4 263/5/4
f 260/5/4 263/5/4 265/5/4
f 263/2/4 264/2/4 265/2/4
f 265/2/4 264/2/4 266/2/4
f 255/5/4 260/5/4 267/5/4
f 260/5/4 265/5/4 267/5/4
f 267/5/4 265/5/4 268/5/4
f 268/5/4 265/5/4 269/5/4
f 255/5/4 267/5/4 270/5/4
f 267/2/4 268/2/4 270/2/4
f 270/2/4 268/2/4 271/2/4
f 250/5/4 255/5/4 272/5/4
f 255/5/4 270/5/4 272/5/4
f 272/5/4 270/5/4 273/5/4
f 273/5/4 270/5/4 274/5/4
f 250/5/4 272/5/4 275/5/4
f 272/2/4 273/2/4 275/2/4
f 275/2/4 273/2/4 276/2/4
f 245/5/4 250/5/4 277/5/4
f 250/5/4 275/5/4 277/5/4
f 277/5/4 275/5/4 278/5/4
f 278/5/4 275/5/4 279/5/4
f 245/5/4 277/5/4 280/5/4
f 277/2/4 278/2/4 280/2/4
f 280/2/4 278/2/4 281/2/4
f 241/5/4 245/5/4 282/5/4
f 245/5/4 280/5/4 282/5/4
f 282/5/4 280/5/4 283/5/4
f 283/5/4 280/5/4 284/5/4
f 241/5/4 282/5/4 285/5/4
f 282/2/4 283/2/4 285/2/4
f 285/2/4 283/2/4 286/2/4
f 241/5/4 285/5/4 287/5/4
f 287/5/4 285/5/4 288/5/4
f 293/5/5 290/5/5 289/5/5
f 294/6/5 291/6/5 290/6/5
f 294/5/5 290/5/5 293/5/5
f 295/6/5 291/6/5 294/6/5
f 296/6/5 291/6/5 295/6/5
f 297/6/5 291/6/5 296/6/5
f 298/6/5 291/6/5 297/6/5
f 299/6/5 291/6/5 298/6/5
f 300/5/5 292/5/5 291/5/5
f 300/6/5 291/6/5 299/6/5
f 301/5/5 292/5/5 300/5/5
f 302/4/5 294/4/5 293/4/5
f 302/7/5 295/7/5 294/7/5
f 303/6/5 296/6/5 295/6/5
f 303/7/5 295/7/5 302/7/5
f 304/7/5 297/7/5 296/7/5
f 304/6/5 296/6/5 303/6/5
f 305/7/5 297/7/5 304/7/5
f 306/7/5 297/7/5 305/7/5
f 307/6/5 298/6/5 297/6/5
f 307/7/5 297/7/5 306/7/5
f 308/7/5 299/7/5 298/7/5
f 308/6/5 298/6/5 307/6/5
f 309/4/5 301/4/5 300/4/5
f 309/7/5 299/7/5 308/7/5
f 309/4/5 300/4/5 299/4/5
f 310/4/5 303/4/5 302/4/5
f 310/7/5 306/7/5 305/7/5
f 310/4/5 305/4/5 304/4/5
f 310/4/5 304/4/5 303/4/5
f 311/4/5 307/4/5 306/4/5
f 311/7/5 306/7/5 310/7/5
f 311/4/5 308/4/5 307/4/5
f 311/4/5 309/4/5 308/4/5
f 312/4/5 310/4/5 302/4/5
f 312/5/5 293/5/5 289/5/5
f 312/4/5 311/4/5 310/4/5
f 312/4/5 302/4/5 293/4/5
f 313/4/5 309/4/5 311/4/5
f 313/4/5 311/4/5 312/4/5
f 313/4/5 301/4/5 309/4/5
f 313/5/5 292/5/5 301/5/5
f 314/5/5 312/5/5 289/5/5
f 314/5/5 313/5/5 312/5/5
f 315/5/5 292/5/5 313/5/5
f 315/5/5 313/5/5 314/5/5
f 320/5/5 317/5/5 316/5/5
f 321/5/5 317/5/5 320/5/5
f 322/5/5 319/5/5 318/5/5
f 323/5/5 319/5/5 322/5/5
f 328/5/5 325/5/5 324/5/5
f 329/5/5 325/5/5 328/5/5
f 330/5/5 327/5/5 326/5/5
f 331/5/5 327/5/5 330/5/5
f 336/5/5 333/5/5 332/5/5
f 337/5/5 333/5/5 336/5/5
f 338/5/5 335/5/5 334/5/5
f 339/5/5 335/5/5 338/5/5
f 344/5/5 341/5/5 340/5/5
f 345/5/5 341/5/5 344/5/5
f 346/5/5 343/5/5 342/5/5
f 347/5/5 343/5/5 346/5/5
f 350/5/5 349/5/5 348/5/5
f 351/5/5 349/5/5 350/5/5
f 354/6/6 355/6/6 362/6/6
f 362/6/6 355/6/6 363/6/6
f 356/6/6 357/6/6 364/6/6
f 364/6/6 357/6/6 365/6/6
f 358/6/6 359/6/6 366/6/6
f 366/6/6 359/6/6 367/6/6
f 352/5/6 353/5/6 368/5/6
f 368/5/6 353/5/6 369/5/6
f 360/5/6 361/5/6 370/5/6
f 370/5/6 361/5/6 371/5/6
f 372/2/6 373/2/6 376/2/6
f 376/2/6 373/2/6 377/2/6
f 374/2/6 375/2/6 378/2/6
f 378/2/6 375/2/6 379/2/6
f 380/5/6 381/5/6 384/5/6
f 384/5/6 381/5/6 385/5/6
f 382/5/6 383/5/6 386/5/6
f 386/5/6 383/5/6 387/5/6
f 390/6/6 391/6/6 396/6/6
f 396/6/6 391/6/6 397/6/6
f 392/6/6 393/6/6 398/6/6
f 398/6/6 393/6/6 399/6/6
f 388/2/6 389/2/6 400/2/6
f 400/2/6 389/2/6 401/2/6
f 394/2/6 395/2/6 402/2/6
f 402/2/6 395/2/6 403/2/6
f 404/5/6 405/5/6 408/5/6
f 408/5/6 405/5/6 409/5/6
f 406/5/6 407/5/6 410/5/6
f 410/5/6 407/5/6 411/5/6
f 412/2/6 413/2/6 416/2/6
f 416/2/6 413/2/6 417/2/6
f 414/2/6 415/2/6 418/2/6
f 418/2/6 415/2/6 419/2/6
f 420/5/6 421/5/6 424/5/6
f 424/5/6 421/5/6 425/5/6
f 422/5/6 423/5/6 426/5/6
f 426/5/6 423/5/6 427/5/6
f 428/2/6 429/2/6 432/2/6
f 432/2/6 429/2/6 433/2/6
f 430/2/6 431/2/6 434/2/6
f 434/2/6 431/2/6 435/2/6
f 436/5/6 437/5/6 440/5/6
f 440/5/6 437/5/6 441/5/6
f 438/5/6 439/5/6 442/5/6
f 442/5/6 439/5/6 443/5/6
f 444/2/6 445/2/6 446/2/6
f 446/2/6 445/2/6 447/2/6
