# MagicaVoxel @ Ephtracy

# group
o Fuego

# material
mtllib Asset-32-Fuego.mtl
usemtl palette

# normals
vn -1 0 0
vn 1 0 0
vn 0 0 1
vn 0 0 -1
vn 0 -1 0
vn 0 1 0

# texcoords
vt 0.00195313 0.5
vt 0.00585938 0.5
vt 0.00976563 0.5
vt 0.0175781 0.5
vt 0.0566406 0.5
vt 0.0605469 0.5
vt 0.759766 0.5

# verts
v -13.5 0 -0.3
v -13.5 0 -0.4
v -13.5 0 -0.5
v -13.5 0 -0.6
v -13.5 0 -0.7
v -13.5 0.1 -0.3
v -13.5 0.1 -0.4
v -13.5 0.1 -0.5
v -13.5 0.1 -0.6
v -13.5 0.1 -0.7
v -13.5 0.2 -0.3
v -13.5 0.2 -0.4
v -13.5 0.2 -0.5
v -13.5 0.2 -0.6
v -13.5 0.2 -0.7
v -13.5 0.3 -0.3
v -13.5 0.3 -0.4
v -13.5 0.3 -0.5
v -13.5 0.3 -0.6
v -13.5 0.3 -0.7
v -13.4 0 -0.2
v -13.4 0 -0.3
v -13.4 0 -0.7
v -13.4 0 -0.8
v -13.4 0.1 -0.2
v -13.4 0.1 -0.3
v -13.4 0.1 -0.7
v -13.4 0.1 -0.8
v -13.4 0.2 -0.2
v -13.4 0.2 -0.3
v -13.4 0.2 -0.7
v -13.4 0.2 -0.8
v -13.4 0.3 -0.2
v -13.4 0.3 -0.3
v -13.4 0.3 -0.7
v -13.4 0.3 -0.8
v -13.3 0.2 -0.5
v -13.3 0.2 -0.6
v -13.3 0.3 -0.5
v -13.3 0.3 -0.6
v -13.2 0.2 -0.4
v -13.2 0.2 -0.5
v -13.2 0.3 -0.4
v -13.2 0.3 -0.5
v -13 0.2 -0.3
v -13 0.2 -0.4
v -13 0.2 -0.5
v -13 0.2 -0.6
v -13 0.2 -0.7
v -13 0.3 -0.3
v -13 0.3 -0.4
v -13 0.3 -0.5
v -13 0.3 -0.6
v -13 0.3 -0.7
v -13.4 0.2 -0.3
v -13.4 0.2 -0.4
v -13.4 0.2 -0.5
v -13.4 0.2 -0.6
v -13.4 0.2 -0.7
v -13.4 0.3 -0.3
v -13.4 0.3 -0.4
v -13.4 0.3 -0.5
v -13.4 0.3 -0.6
v -13.4 0.3 -0.7
v -13.1 0.2 -0.4
v -13.1 0.2 -0.5
v -13.1 0.2 -0.6
v -13.1 0.3 -0.4
v -13.1 0.3 -0.5
v -13.1 0.3 -0.6
v -13 0 -0.2
v -13 0 -0.3
v -13 0 -0.7
v -13 0 -0.8
v -13 0.1 -0.2
v -13 0.1 -0.3
v -13 0.1 -0.7
v -13 0.1 -0.8
v -13 0.2 -0.2
v -13 0.2 -0.3
v -13 0.2 -0.7
v -13 0.2 -0.8
v -13 0.3 -0.2
v -13 0.3 -0.3
v -13 0.3 -0.7
v -13 0.3 -0.8
v -12.9 0 -0.3
v -12.9 0 -0.4
v -12.9 0 -0.5
v -12.9 0 -0.6
v -12.9 0 -0.7
v -12.9 0.1 -0.3
v -12.9 0.1 -0.4
v -12.9 0.1 -0.5
v -12.9 0.1 -0.6
v -12.9 0.2 -0.3
v -12.9 0.2 -0.4
v -12.9 0.2 -0.5
v -12.9 0.2 -0.6
v -12.9 0.3 -0.3
v -12.9 0.3 -0.4
v -12.9 0.3 -0.5
v -12.9 0.3 -0.6
v -12.9 0.3 -0.7
v -13.4 0 -0.2
v -13.4 0.1 -0.2
v -13.4 0.2 -0.2
v -13.4 0.3 -0.2
v -13.3 0 -0.2
v -13.3 0.1 -0.2
v -13.3 0.2 -0.2
v -13.3 0.3 -0.2
v -13.2 0 -0.2
v -13.2 0.1 -0.2
v -13.2 0.2 -0.2
v -13.2 0.3 -0.2
v -13.1 0 -0.2
v -13.1 0.1 -0.2
v -13.1 0.2 -0.2
v -13.1 0.3 -0.2
v -13 0 -0.2
v -13 0.1 -0.2
v -13 0.2 -0.2
v -13 0.3 -0.2
v -13.5 0 -0.3
v -13.5 0.1 -0.3
v -13.5 0.2 -0.3
v -13.5 0.3 -0.3
v -13.4 0 -0.3
v -13.4 0.1 -0.3
v -13.4 0.2 -0.3
v -13.4 0.3 -0.3
v -13 0 -0.3
v -13 0.1 -0.3
v -13 0.2 -0.3
v -13 0.3 -0.3
v -12.9 0 -0.3
v -12.9 0.1 -0.3
v -12.9 0.2 -0.3
v -12.9 0.3 -0.3
v -13.2 0.2 -0.4
v -13.2 0.3 -0.4
v -13.1 0.2 -0.4
v -13.1 0.3 -0.4
v -13.3 0.2 -0.5
v -13.3 0.3 -0.5
v -13.2 0.2 -0.5
v -13.2 0.3 -0.5
v -13.4 0.2 -0.7
v -13.4 0.3 -0.7
v -13.3 0.2 -0.7
v -13.3 0.3 -0.7
v -13.2 0.2 -0.7
v -13.2 0.3 -0.7
v -13.1 0.2 -0.7
v -13.1 0.3 -0.7
v -13 0.2 -0.7
v -13 0.3 -0.7
v -13.4 0.2 -0.3
v -13.4 0.3 -0.3
v -13.3 0.2 -0.3
v -13.3 0.3 -0.3
v -13.2 0.2 -0.3
v -13.2 0.3 -0.3
v -13.1 0.2 -0.3
v -13.1 0.3 -0.3
v -13 0.2 -0.3
v -13 0.3 -0.3
v -13.3 0.2 -0.6
v -13.3 0.3 -0.6
v -13.2 0.2 -0.6
v -13.2 0.3 -0.6
v -13.1 0.2 -0.6
v -13.1 0.3 -0.6
v -13.5 0 -0.7
v -13.5 0.1 -0.7
v -13.5 0.2 -0.7
v -13.5 0.3 -0.7
v -13.4 0 -0.7
v -13.4 0.1 -0.7
v -13.4 0.2 -0.7
v -13.4 0.3 -0.7
v -13 0 -0.7
v -13 0.1 -0.7
v -13 0.2 -0.7
v -13 0.3 -0.7
v -12.9 0 -0.7
v -12.9 0.3 -0.7
v -13.4 0 -0.8
v -13.4 0.1 -0.8
v -13.4 0.2 -0.8
v -13.4 0.3 -0.8
v -13.3 0 -0.8
v -13.3 0.1 -0.8
v -13.3 0.2 -0.8
v -13.3 0.3 -0.8
v -13.2 0 -0.8
v -13.2 0.1 -0.8
v -13.2 0.2 -0.8
v -13.2 0.3 -0.8
v -13.1 0 -0.8
v -13.1 0.1 -0.8
v -13.1 0.2 -0.8
v -13.1 0.3 -0.8
v -13 0 -0.8
v -13 0.1 -0.8
v -13 0.2 -0.8
v -13 0.3 -0.8
v -13.4 0 -0.2
v -13.3 0 -0.2
v -13.2 0 -0.2
v -13.1 0 -0.2
v -13 0 -0.2
v -13.5 0 -0.3
v -13.4 0 -0.3
v -13.3 0 -0.3
v -13.2 0 -0.3
v -13.1 0 -0.3
v -13 0 -0.3
v -12.9 0 -0.3
v -13.5 0 -0.4
v -13.4 0 -0.4
v -13 0 -0.4
v -12.9 0 -0.4
v -13.5 0 -0.5
v -13.4 0 -0.5
v -13 0 -0.5
v -12.9 0 -0.5
v -13.5 0 -0.6
v -13.4 0 -0.6
v -13 0 -0.6
v -12.9 0 -0.6
v -13.5 0 -0.7
v -13.4 0 -0.7
v -13.3 0 -0.7
v -13.2 0 -0.7
v -13.1 0 -0.7
v -13 0 -0.7
v -12.9 0 -0.7
v -13.4 0 -0.8
v -13.3 0 -0.8
v -13.2 0 -0.8
v -13.1 0 -0.8
v -13 0 -0.8
v -13.4 0.2 -0.3
v -13.3 0.2 -0.3
v -13.2 0.2 -0.3
v -13.1 0.2 -0.3
v -13 0.2 -0.3
v -13.4 0.2 -0.4
v -13.3 0.2 -0.4
v -13.2 0.2 -0.4
v -13.1 0.2 -0.4
v -13 0.2 -0.4
v -13.4 0.2 -0.5
v -13.3 0.2 -0.5
v -13.2 0.2 -0.5
v -13.1 0.2 -0.5
v -13 0.2 -0.5
v -13.4 0.2 -0.6
v -13.3 0.2 -0.6
v -13.2 0.2 -0.6
v -13.1 0.2 -0.6
v -13 0.2 -0.6
v -13.4 0.2 -0.7
v -13.3 0.2 -0.7
v -13.2 0.2 -0.7
v -13.1 0.2 -0.7
v -13 0.2 -0.7
v -13.4 0.3 -0.2
v -13.3 0.3 -0.2
v -13.2 0.3 -0.2
v -13.1 0.3 -0.2
v -13 0.3 -0.2
v -13.5 0.3 -0.3
v -13.4 0.3 -0.3
v -13.3 0.3 -0.3
v -13.2 0.3 -0.3
v -13.1 0.3 -0.3
v -13 0.3 -0.3
v -12.9 0.3 -0.3
v -13.5 0.3 -0.4
v -13.4 0.3 -0.4
v -13.2 0.3 -0.4
v -13.1 0.3 -0.4
v -13 0.3 -0.4
v -12.9 0.3 -0.4
v -13.5 0.3 -0.5
v -13.4 0.3 -0.5
v -13.3 0.3 -0.5
v -13.2 0.3 -0.5
v -13.1 0.3 -0.5
v -13 0.3 -0.5
v -12.9 0.3 -0.5
v -13.5 0.3 -0.6
v -13.4 0.3 -0.6
v -13.3 0.3 -0.6
v -13.2 0.3 -0.6
v -13.1 0.3 -0.6
v -13 0.3 -0.6
v -12.9 0.3 -0.6
v -13.5 0.3 -0.7
v -13.4 0.3 -0.7
v -13.3 0.3 -0.7
v -13.2 0.3 -0.7
v -13.1 0.3 -0.7
v -13 0.3 -0.7
v -12.9 0.3 -0.7
v -13.4 0.3 -0.8
v -13.3 0.3 -0.8
v -13.2 0.3 -0.8
v -13.1 0.3 -0.8
v -13 0.3 -0.8

# faces
f 6/5/1 2/5/1 1/5/1
f 7/6/1 3/6/1 2/6/1
f 7/5/1 2/5/1 6/5/1
f 8/5/1 4/5/1 3/5/1
f 8/6/1 3/6/1 7/6/1
f 9/6/1 5/6/1 4/6/1
f 9/5/1 4/5/1 8/5/1
f 10/6/1 5/6/1 9/6/1
f 11/6/1 7/6/1 6/6/1
f 12/5/1 8/5/1 7/5/1
f 12/6/1 7/6/1 11/6/1
f 13/6/1 9/6/1 8/6/1
f 13/5/1 8/5/1 12/5/1
f 14/5/1 10/5/1 9/5/1
f 14/6/1 9/6/1 13/6/1
f 15/5/1 10/5/1 14/5/1
f 16/5/1 12/5/1 11/5/1
f 17/6/1 13/6/1 12/6/1
f 17/5/1 12/5/1 16/5/1
f 18/5/1 14/5/1 13/5/1
f 18/6/1 13/6/1 17/6/1
f 19/6/1 15/6/1 14/6/1
f 19/5/1 14/5/1 18/5/1
f 20/6/1 15/6/1 19/6/1
f 25/6/1 22/6/1 21/6/1
f 26/6/1 22/6/1 25/6/1
f 27/5/1 24/5/1 23/5/1
f 28/5/1 24/5/1 27/5/1
f 29/5/1 26/5/1 25/5/1
f 30/5/1 26/5/1 29/5/1
f 31/6/1 28/6/1 27/6/1
f 32/6/1 28/6/1 31/6/1
f 33/6/1 30/6/1 29/6/1
f 34/6/1 30/6/1 33/6/1
f 35/5/1 32/5/1 31/5/1
f 36/5/1 32/5/1 35/5/1
f 39/1/1 38/1/1 37/1/1
f 40/1/1 38/1/1 39/1/1
f 43/4/1 42/4/1 41/4/1
f 44/4/1 42/4/1 43/4/1
f 50/6/1 46/6/1 45/6/1
f 51/5/1 47/5/1 46/5/1
f 51/6/1 46/6/1 50/6/1
f 52/6/1 48/6/1 47/6/1
f 52/5/1 47/5/1 51/5/1
f 53/5/1 49/5/1 48/5/1
f 53/6/1 48/6/1 52/6/1
f 54/5/1 49/5/1 53/5/1
f 55/5/2 56/5/2 60/5/2
f 56/6/2 57/6/2 61/6/2
f 60/5/2 56/5/2 61/5/2
f 57/5/2 58/5/2 62/5/2
f 61/6/2 57/6/2 62/6/2
f 58/6/2 59/6/2 63/6/2
f 62/5/2 58/5/2 63/5/2
f 63/6/2 59/6/2 64/6/2
f 65/4/2 66/4/2 68/4/2
f 66/7/2 67/7/2 69/7/2
f 68/4/2 66/4/2 69/4/2
f 69/7/2 67/7/2 70/7/2
f 71/5/2 72/5/2 75/5/2
f 75/5/2 72/5/2 76/5/2
f 73/6/2 74/6/2 77/6/2
f 77/6/2 74/6/2 78/6/2
f 75/6/2 76/6/2 79/6/2
f 79/6/2 76/6/2 80/6/2
f 77/5/2 78/5/2 81/5/2
f 81/5/2 78/5/2 82/5/2
f 79/5/2 80/5/2 83/5/2
f 83/5/2 80/5/2 84/5/2
f 81/6/2 82/6/2 85/6/2
f 85/6/2 82/6/2 86/6/2
f 87/6/2 88/6/2 92/6/2
f 88/5/2 89/5/2 93/5/2
f 92/6/2 88/6/2 93/6/2
f 89/6/2 90/6/2 94/6/2
f 93/5/2 89/5/2 94/5/2
f 90/5/2 91/5/2 95/5/2
f 94/6/2 90/6/2 95/6/2
f 92/5/2 93/5/2 96/5/2
f 93/6/2 94/6/2 97/6/2
f 96/5/2 93/5/2 97/5/2
f 94/5/2 95/5/2 98/5/2
f 97/6/2 94/6/2 98/6/2
f 95/5/2 91/5/2 99/5/2
f 98/5/2 95/5/2 99/5/2
f 96/6/2 97/6/2 100/6/2
f 97/5/2 98/5/2 101/5/2
f 100/6/2 97/6/2 101/6/2
f 98/6/2 99/6/2 102/6/2
f 101/5/2 98/5/2 102/5/2
f 99/5/2 91/5/2 103/5/2
f 102/6/2 99/6/2 103/6/2
f 103/5/2 91/5/2 104/5/2
f 109/6/3 106/6/3 105/6/3
f 110/5/3 107/5/3 106/5/3
f 110/6/3 106/6/3 109/6/3
f 111/6/3 108/6/3 107/6/3
f 111/5/3 107/5/3 110/5/3
f 112/6/3 108/6/3 111/6/3
f 113/5/3 110/5/3 109/5/3
f 114/6/3 111/6/3 110/6/3
f 114/5/3 110/5/3 113/5/3
f 115/5/3 112/5/3 111/5/3
f 115/6/3 111/6/3 114/6/3
f 116/5/3 112/5/3 115/5/3
f 117/6/3 114/6/3 113/6/3
f 118/5/3 115/5/3 114/5/3
f 118/6/3 114/6/3 117/6/3
f 119/6/3 116/6/3 115/6/3
f 119/5/3 115/5/3 118/5/3
f 120/6/3 116/6/3 119/6/3
f 121/5/3 118/5/3 117/5/3
f 122/6/3 119/6/3 118/6/3
f 122/5/3 118/5/3 121/5/3
f 123/5/3 120/5/3 119/5/3
f 123/6/3 119/6/3 122/6/3
f 124/5/3 120/5/3 123/5/3
f 129/5/3 126/5/3 125/5/3
f 130/6/3 127/6/3 126/6/3
f 130/5/3 126/5/3 129/5/3
f 131/5/3 128/5/3 127/5/3
f 131/6/3 127/6/3 130/6/3
f 132/5/3 128/5/3 131/5/3
f 137/6/3 134/6/3 133/6/3
f 138/5/3 135/5/3 134/5/3
f 138/6/3 134/6/3 137/6/3
f 139/6/3 136/6/3 135/6/3
f 139/5/3 135/5/3 138/5/3
f 140/6/3 136/6/3 139/6/3
f 143/4/3 142/4/3 141/4/3
f 144/4/3 142/4/3 143/4/3
f 147/1/3 146/1/3 145/1/3
f 148/1/3 146/1/3 147/1/3
f 151/5/3 150/5/3 149/5/3
f 152/5/3 150/5/3 151/5/3
f 153/6/3 152/6/3 151/6/3
f 154/6/3 152/6/3 153/6/3
f 155/5/3 154/5/3 153/5/3
f 156/5/3 154/5/3 155/5/3
f 157/6/3 156/6/3 155/6/3
f 158/6/3 156/6/3 157/6/3
f 159/6/4 160/6/4 161/6/4
f 161/6/4 160/6/4 162/6/4
f 161/5/4 162/5/4 163/5/4
f 163/5/4 162/5/4 164/5/4
f 163/6/4 164/6/4 165/6/4
f 165/6/4 164/6/4 166/6/4
f 165/5/4 166/5/4 167/5/4
f 167/5/4 166/5/4 168/5/4
f 169/1/4 170/1/4 171/1/4
f 171/1/4 170/1/4 172/1/4
f 171/7/4 172/7/4 173/7/4
f 173/7/4 172/7/4 174/7/4
f 175/6/4 176/6/4 179/6/4
f 176/5/4 177/5/4 180/5/4
f 179/6/4 176/6/4 180/6/4
f 177/6/4 178/6/4 181/6/4
f 180/5/4 177/5/4 181/5/4
f 181/6/4 178/6/4 182/6/4
f 183/5/4 184/5/4 187/5/4
f 185/5/4 186/5/4 187/5/4
f 184/5/4 185/5/4 187/5/4
f 187/5/4 186/5/4 188/5/4
f 189/5/4 190/5/4 193/5/4
f 190/6/4 191/6/4 194/6/4
f 193/5/4 190/5/4 194/5/4
f 191/5/4 192/5/4 195/5/4
f 194/6/4 191/6/4 195/6/4
f 195/5/4 192/5/4 196/5/4
f 193/6/4 194/6/4 197/6/4
f 194/5/4 195/5/4 198/5/4
f 197/6/4 194/6/4 198/6/4
f 195/6/4 196/6/4 199/6/4
f 198/5/4 195/5/4 199/5/4
f 199/6/4 196/6/4 200/6/4
f 197/5/4 198/5/4 201/5/4
f 198/6/4 199/6/4 202/6/4
f 201/5/4 198/5/4 202/5/4
f 199/5/4 200/5/4 203/5/4
f 202/6/4 199/6/4 203/6/4
f 203/5/4 200/5/4 204/5/4
f 201/6/4 202/6/4 205/6/4
f 202/5/4 203/5/4 206/5/4
f 205/6/4 202/6/4 206/6/4
f 203/6/4 204/6/4 207/6/4
f 206/5/4 203/5/4 207/5/4
f 207/6/4 204/6/4 208/6/4
f 215/6/5 210/6/5 209/6/5
f 216/5/5 211/5/5 210/5/5
f 216/6/5 210/6/5 215/6/5
f 217/6/5 212/6/5 211/6/5
f 217/5/5 211/5/5 216/5/5
f 218/5/5 213/5/5 212/5/5
f 218/6/5 212/6/5 217/6/5
f 219/5/5 213/5/5 218/5/5
f 221/5/5 217/5/5 216/5/5
f 221/5/5 215/5/5 214/5/5
f 221/5/5 219/5/5 218/5/5
f 221/5/5 218/5/5 217/5/5
f 221/5/5 216/5/5 215/5/5
f 222/5/5 219/5/5 221/5/5
f 223/6/5 220/6/5 219/6/5
f 223/5/5 219/5/5 222/5/5
f 224/6/5 220/6/5 223/6/5
f 225/6/5 222/6/5 221/6/5
f 226/5/5 223/5/5 222/5/5
f 226/6/5 222/6/5 225/6/5
f 226/5/5 224/5/5 223/5/5
f 227/5/5 224/5/5 226/5/5
f 228/5/5 224/5/5 227/5/5
f 229/5/5 226/5/5 225/5/5
f 229/5/5 227/5/5 226/5/5
f 230/5/5 227/5/5 229/5/5
f 231/6/5 228/6/5 227/6/5
f 231/5/5 227/5/5 230/5/5
f 232/6/5 228/6/5 231/6/5
f 233/6/5 230/6/5 229/6/5
f 234/5/5 231/5/5 230/5/5
f 234/6/5 230/6/5 233/6/5
f 234/5/5 232/5/5 231/5/5
f 235/5/5 232/5/5 234/5/5
f 236/5/5 232/5/5 235/5/5
f 237/5/5 232/5/5 236/5/5
f 238/5/5 232/5/5 237/5/5
f 239/5/5 232/5/5 238/5/5
f 240/5/5 235/5/5 234/5/5
f 241/6/5 236/6/5 235/6/5
f 241/5/5 235/5/5 240/5/5
f 242/5/5 237/5/5 236/5/5
f 242/6/5 236/6/5 241/6/5
f 243/6/5 238/6/5 237/6/5
f 243/5/5 237/5/5 242/5/5
f 244/6/5 238/6/5 243/6/5
f 245/4/6 246/4/6 250/4/6
f 246/1/6 247/1/6 251/1/6
f 250/4/6 246/4/6 251/4/6
f 247/2/6 248/2/6 252/2/6
f 251/1/6 247/1/6 252/1/6
f 248/4/6 249/4/6 253/4/6
f 252/2/6 248/2/6 253/2/6
f 253/4/6 249/4/6 254/4/6
f 250/3/6 251/3/6 255/3/6
f 251/4/6 252/4/6 256/4/6
f 255/3/6 251/3/6 256/3/6
f 256/4/6 252/4/6 257/4/6
f 253/1/6 254/1/6 258/1/6
f 258/1/6 254/1/6 259/1/6
f 255/3/6 256/3/6 260/3/6
f 260/3/6 256/3/6 261/3/6
f 258/1/6 259/1/6 263/1/6
f 263/1/6 259/1/6 264/1/6
f 260/2/6 261/2/6 265/2/6
f 261/1/6 262/1/6 266/1/6
f 265/2/6 261/2/6 266/2/6
f 262/3/6 263/3/6 267/3/6
f 266/1/6 262/1/6 267/1/6
f 263/2/6 264/2/6 268/2/6
f 267/3/6 263/3/6 268/3/6
f 268/2/6 264/2/6 269/2/6
f 270/6/6 271/6/6 276/6/6
f 271/5/6 272/5/6 277/5/6
f 276/6/6 271/6/6 277/6/6
f 272/6/6 273/6/6 278/6/6
f 277/5/6 272/5/6 278/5/6
f 273/5/6 274/5/6 279/5/6
f 278/6/6 273/6/6 279/6/6
f 279/5/6 274/5/6 280/5/6
f 275/5/6 276/5/6 282/5/6
f 282/5/6 276/5/6 283/5/6
f 280/6/6 281/6/6 286/6/6
f 286/6/6 281/6/6 287/6/6
f 282/6/6 283/6/6 288/6/6
f 288/6/6 283/6/6 289/6/6
f 284/4/6 285/4/6 291/4/6
f 291/4/6 285/4/6 292/4/6
f 286/5/6 287/5/6 293/5/6
f 293/5/6 287/5/6 294/5/6
f 288/5/6 289/5/6 295/5/6
f 295/5/6 289/5/6 296/5/6
f 290/1/6 291/1/6 297/1/6
f 291/7/6 292/7/6 298/7/6
f 297/1/6 291/1/6 298/1/6
f 298/7/6 292/7/6 299/7/6
f 293/6/6 294/6/6 300/6/6
f 300/6/6 294/6/6 301/6/6
f 295/6/6 296/6/6 302/6/6
f 302/6/6 296/6/6 303/6/6
f 300/5/6 301/5/6 307/5/6
f 307/5/6 301/5/6 308/5/6
f 303/5/6 304/5/6 309/5/6
f 304/6/6 305/6/6 310/6/6
f 309/5/6 304/5/6 310/5/6
f 305/5/6 306/5/6 311/5/6
f 310/6/6 305/6/6 311/6/6
f 306/6/6 307/6/6 312/6/6
f 311/5/6 306/5/6 312/5/6
f 312/6/6 307/6/6 313/6/6
