# MagicaVoxel @ Ephtracy

# group
o Caldera

# material
mtllib Asset-16-Caldera.mtl
usemtl palette

# normals
vn -1 0 0
vn 1 0 0
vn 0 0 1
vn 0 0 -1
vn 0 -1 0
vn 0 1 0

# texcoords
vt 0.0644531 0.5
vt 0.748047 0.5
vt 0.787109 0.5
vt 0.791016 0.5
vt 0.802734 0.5
vt 0.830078 0.5
vt 0.931641 0.5

# verts
v -39.6 1.4 38.8
v -39.6 1.4 38.1
v -39.6 1.5 38.8
v -39.6 1.5 38.1
v -39.5 1.4 39
v -39.5 1.4 38.8
v -39.5 1.4 38.1
v -39.5 1.4 37.9
v -39.5 1.5 39
v -39.5 1.5 38.8
v -39.5 1.5 38.1
v -39.5 1.5 37.9
v -39.4 1.4 39.1
v -39.4 1.4 39
v -39.4 1.4 37.9
v -39.4 1.4 37.8
v -39.4 1.5 39.1
v -39.4 1.5 39
v -39.4 1.5 37.9
v -39.4 1.5 37.8
v -39.3 1.4 39.2
v -39.3 1.4 39.1
v -39.3 1.4 37.8
v -39.3 1.4 37.7
v -39.3 1.5 39.2
v -39.3 1.5 39.1
v -39.3 1.5 37.8
v -39.3 1.5 37.7
v -39.2 1.4 39.3
v -39.2 1.4 39.2
v -39.2 1.4 37.7
v -39.2 1.4 37.6
v -39.2 1.5 39.3
v -39.2 1.5 39.2
v -39.2 1.5 37.7
v -39.2 1.5 37.6
v -39 1.4 39.4
v -39 1.4 39.3
v -39 1.4 37.6
v -39 1.4 37.5
v -39 1.5 39.4
v -39 1.5 39.3
v -39 1.5 37.6
v -39 1.5 37.5
v -38.9 2 38.7
v -38.9 2 38.1
v -38.9 2.2 38.7
v -38.9 2.2 38.1
v -38.8 1.5 38.9
v -38.8 1.5 38.8
v -38.8 1.5 38
v -38.8 1.5 37.9
v -38.8 2.5 38.9
v -38.8 2.5 38.8
v -38.8 2.5 38
v -38.8 2.5 37.9
v -38.7 2.2 38.7
v -38.7 2.2 38.6
v -38.7 2.2 38.2
v -38.7 2.2 38.1
v -38.7 2.3 38.8
v -38.7 2.3 38.7
v -38.7 2.3 38.1
v -38.7 2.3 38
v -38.7 2.4 38.7
v -38.7 2.4 38.6
v -38.7 2.4 38.2
v -38.7 2.4 38.1
v -38.7 2.5 38.8
v -38.7 2.5 38
v -38.5 2.1 38.6
v -38.5 2.1 38.2
v -38.5 2.2 38.6
v -38.5 2.2 38.2
v -38.8 2.1 38.6
v -38.8 2.1 38.3
v -38.8 2.1 38.2
v -38.8 2.2 38.6
v -38.8 2.2 38.2
v -38.6 2.2 38.7
v -38.6 2.2 38.6
v -38.6 2.2 38.2
v -38.6 2.2 38.1
v -38.6 2.3 38.8
v -38.6 2.3 38.7
v -38.6 2.3 38.1
v -38.6 2.3 38
v -38.6 2.4 38.7
v -38.6 2.4 38.6
v -38.6 2.4 38.2
v -38.6 2.4 38.1
v -38.6 2.5 38.8
v -38.6 2.5 38
v -38.5 1.5 38.9
v -38.5 1.5 38.8
v -38.5 1.5 38
v -38.5 1.5 37.9
v -38.5 2.5 38.9
v -38.5 2.5 38.8
v -38.5 2.5 38
v -38.5 2.5 37.9
v -38.4 2 38.7
v -38.4 2 38.1
v -38.4 2.2 38.7
v -38.4 2.2 38.1
v -38.3 1.4 39.4
v -38.3 1.4 39.3
v -38.3 1.4 37.6
v -38.3 1.4 37.5
v -38.3 1.5 39.4
v -38.3 1.5 39.3
v -38.3 1.5 37.6
v -38.3 1.5 37.5
v -38.1 1.4 39.3
v -38.1 1.4 39.2
v -38.1 1.4 37.7
v -38.1 1.4 37.6
v -38.1 1.5 39.3
v -38.1 1.5 39.2
v -38.1 1.5 37.7
v -38.1 1.5 37.6
v -38 1.4 39.2
v -38 1.4 39.1
v -38 1.4 37.8
v -38 1.4 37.7
v -38 1.5 39.2
v -38 1.5 39.1
v -38 1.5 37.8
v -38 1.5 37.7
v -37.9 1.4 39.1
v -37.9 1.4 39
v -37.9 1.4 37.9
v -37.9 1.4 37.8
v -37.9 1.5 39.1
v -37.9 1.5 39
v -37.9 1.5 37.9
v -37.9 1.5 37.8
v -37.8 1.4 39
v -37.8 1.4 38.8
v -37.8 1.4 38.1
v -37.8 1.4 37.9
v -37.8 1.5 39
v -37.8 1.5 38.8
v -37.8 1.5 38.1
v -37.8 1.5 37.9
v -37.7 1.4 38.8
v -37.7 1.4 38.1
v -37.7 1.5 38.8
v -37.7 1.5 38.1
v -39 1.4 39.4
v -39 1.5 39.4
v -38.3 1.4 39.4
v -38.3 1.5 39.4
v -39.2 1.4 39.3
v -39.2 1.5 39.3
v -39 1.4 39.3
v -39 1.5 39.3
v -38.3 1.4 39.3
v -38.3 1.5 39.3
v -38.1 1.4 39.3
v -38.1 1.5 39.3
v -39.3 1.4 39.2
v -39.3 1.5 39.2
v -39.2 1.4 39.2
v -39.2 1.5 39.2
v -38.1 1.4 39.2
v -38.1 1.5 39.2
v -38 1.4 39.2
v -38 1.5 39.2
v -39.4 1.4 39.1
v -39.4 1.5 39.1
v -39.3 1.4 39.1
v -39.3 1.5 39.1
v -38 1.4 39.1
v -38 1.5 39.1
v -37.9 1.4 39.1
v -37.9 1.5 39.1
v -39.5 1.4 39
v -39.5 1.5 39
v -39.4 1.4 39
v -39.4 1.5 39
v -37.9 1.4 39
v -37.9 1.5 39
v -37.8 1.4 39
v -37.8 1.5 39
v -38.8 1.5 38.9
v -38.8 2.5 38.9
v -38.7 2.3 38.9
v -38.7 2.4 38.9
v -38.6 2.3 38.9
v -38.6 2.4 38.9
v -38.5 1.5 38.9
v -38.5 2.5 38.9
v -39.6 1.4 38.8
v -39.6 1.5 38.8
v -39.5 1.4 38.8
v -39.5 1.5 38.8
v -37.8 1.4 38.8
v -37.8 1.5 38.8
v -37.7 1.4 38.8
v -37.7 1.5 38.8
v -38.9 2 38.7
v -38.9 2.2 38.7
v -38.7 2.2 38.7
v -38.7 2.3 38.7
v -38.6 2.2 38.7
v -38.6 2.3 38.7
v -38.4 2 38.7
v -38.4 2.2 38.7
v -38.8 2.1 38.2
v -38.8 2.2 38.2
v -38.7 2.1 38.2
v -38.7 2.2 38.2
v -38.7 2.4 38.2
v -38.6 2.2 38.2
v -38.6 2.4 38.2
v -38.5 2.1 38.2
v -38.5 2.2 38.2
v -38.8 1.5 38
v -38.8 2.5 38
v -38.7 2.3 38
v -38.7 2.5 38
v -38.6 2.3 38
v -38.6 2.5 38
v -38.5 1.5 38
v -38.5 2.5 38
v -38.8 1.5 38.8
v -38.8 2.5 38.8
v -38.7 2.3 38.8
v -38.7 2.5 38.8
v -38.6 2.3 38.8
v -38.6 2.5 38.8
v -38.5 1.5 38.8
v -38.5 2.5 38.8
v -38.8 2.1 38.6
v -38.8 2.2 38.6
v -38.7 2.2 38.6
v -38.7 2.4 38.6
v -38.6 2.2 38.6
v -38.6 2.4 38.6
v -38.5 2.1 38.6
v -38.5 2.2 38.6
v -39.6 1.4 38.1
v -39.6 1.5 38.1
v -39.5 1.4 38.1
v -39.5 1.5 38.1
v -38.9 2 38.1
v -38.9 2.2 38.1
v -38.7 2.2 38.1
v -38.7 2.3 38.1
v -38.6 2.2 38.1
v -38.6 2.3 38.1
v -38.4 2 38.1
v -38.4 2.2 38.1
v -37.8 1.4 38.1
v -37.8 1.5 38.1
v -37.7 1.4 38.1
v -37.7 1.5 38.1
v -39.5 1.4 37.9
v -39.5 1.5 37.9
v -39.4 1.4 37.9
v -39.4 1.5 37.9
v -38.8 1.5 37.9
v -38.8 2.5 37.9
v -38.7 2.3 37.9
v -38.7 2.4 37.9
v -38.6 2.3 37.9
v -38.6 2.4 37.9
v -38.5 1.5 37.9
v -38.5 2.5 37.9
v -37.9 1.4 37.9
v -37.9 1.5 37.9
v -37.8 1.4 37.9
v -37.8 1.5 37.9
v -39.4 1.4 37.8
v -39.4 1.5 37.8
v -39.3 1.4 37.8
v -39.3 1.5 37.8
v -38 1.4 37.8
v -38 1.5 37.8
v -37.9 1.4 37.8
v -37.9 1.5 37.8
v -39.3 1.4 37.7
v -39.3 1.5 37.7
v -39.2 1.4 37.7
v -39.2 1.5 37.7
v -38.1 1.4 37.7
v -38.1 1.5 37.7
v -38 1.4 37.7
v -38 1.5 37.7
v -39.2 1.4 37.6
v -39.2 1.5 37.6
v -39 1.4 37.6
v -39 1.5 37.6
v -38.3 1.4 37.6
v -38.3 1.5 37.6
v -38.1 1.4 37.6
v -38.1 1.5 37.6
v -39 1.4 37.5
v -39 1.5 37.5
v -38.3 1.4 37.5
v -38.3 1.5 37.5
v -39 1.4 39.4
v -38.3 1.4 39.4
v -39.2 1.4 39.3
v -39 1.4 39.3
v -38.3 1.4 39.3
v -38.1 1.4 39.3
v -39.3 1.4 39.2
v -39.2 1.4 39.2
v -38.1 1.4 39.2
v -38 1.4 39.2
v -39.4 1.4 39.1
v -39.3 1.4 39.1
v -38 1.4 39.1
v -37.9 1.4 39.1
v -39.5 1.4 39
v -39.4 1.4 39
v -37.9 1.4 39
v -37.8 1.4 39
v -38.6 1.4 38.9
v -38.5 1.4 38.9
v -39.6 1.4 38.8
v -39.5 1.4 38.8
v -38.6 1.4 38.8
v -38.5 1.4 38.8
v -37.8 1.4 38.8
v -37.7 1.4 38.8
v -39.6 1.4 38.1
v -39.5 1.4 38.1
v -37.8 1.4 38.1
v -37.7 1.4 38.1
v -38.8 1.4 38
v -38.5 1.4 38
v -39.5 1.4 37.9
v -39.4 1.4 37.9
v -38.8 1.4 37.9
v -38.5 1.4 37.9
v -37.9 1.4 37.9
v -37.8 1.4 37.9
v -39.4 1.4 37.8
v -39.3 1.4 37.8
v -38 1.4 37.8
v -37.9 1.4 37.8
v -39.3 1.4 37.7
v -39.2 1.4 37.7
v -38.1 1.4 37.7
v -38 1.4 37.7
v -39.2 1.4 37.6
v -39 1.4 37.6
v -38.3 1.4 37.6
v -38.1 1.4 37.6
v -39 1.4 37.5
v -38.3 1.4 37.5
v -38.9 2 38.7
v -38.4 2 38.7
v -38.8 2 38.6
v -38.5 2 38.6
v -38.7 2 38.5
v -38.6 2 38.5
v -38.7 2 38.4
v -38.6 2 38.4
v -38.8 2 38.3
v -38.7 2 38.3
v -38.8 2 38.2
v -38.7 2 38.2
v -38.5 2 38.2
v -38.9 2 38.1
v -38.4 2 38.1
v -38.7 2.3 38.8
v -38.6 2.3 38.8
v -38.7 2.3 38.7
v -38.6 2.3 38.7
v -38.7 2.3 38.1
v -38.6 2.3 38.1
v -38.7 2.3 38
v -38.6 2.3 38
v -38.7 2.4 38.6
v -38.6 2.4 38.6
v -38.7 2.4 38.2
v -38.6 2.4 38.2
v -39 1.5 39.4
v -38.3 1.5 39.4
v -39.2 1.5 39.3
v -39 1.5 39.3
v -38.3 1.5 39.3
v -38.1 1.5 39.3
v -39.3 1.5 39.2
v -39.2 1.5 39.2
v -38.1 1.5 39.2
v -38 1.5 39.2
v -39.4 1.5 39.1
v -39.3 1.5 39.1
v -38 1.5 39.1
v -37.9 1.5 39.1
v -39.5 1.5 39
v -39.4 1.5 39
v -37.9 1.5 39
v -37.8 1.5 39
v -38.8 1.5 38.9
v -38.5 1.5 38.9
v -39.6 1.5 38.8
v -39.5 1.5 38.8
v -38.8 1.5 38.8
v -38.5 1.5 38.8
v -37.8 1.5 38.8
v -37.7 1.5 38.8
v -39.6 1.5 38.1
v -39.5 1.5 38.1
v -37.8 1.5 38.1
v -37.7 1.5 38.1
v -38.8 1.5 38
v -38.5 1.5 38
v -39.5 1.5 37.9
v -39.4 1.5 37.9
v -38.8 1.5 37.9
v -38.5 1.5 37.9
v -37.9 1.5 37.9
v -37.8 1.5 37.9
v -39.4 1.5 37.8
v -39.3 1.5 37.8
v -38 1.5 37.8
v -37.9 1.5 37.8
v -39.3 1.5 37.7
v -39.2 1.5 37.7
v -38.1 1.5 37.7
v -38 1.5 37.7
v -39.2 1.5 37.6
v -39 1.5 37.6
v -38.3 1.5 37.6
v -38.1 1.5 37.6
v -39 1.5 37.5
v -38.3 1.5 37.5
v -38.8 2.1 38.6
v -38.5 2.1 38.6
v -38.7 2.1 38.5
v -38.6 2.1 38.5
v -38.7 2.1 38.4
v -38.6 2.1 38.4
v -38.8 2.1 38.3
v -38.7 2.1 38.3
v -38.8 2.1 38.2
v -38.7 2.1 38.2
v -38.5 2.1 38.2
v -38.9 2.2 38.7
v -38.7 2.2 38.7
v -38.6 2.2 38.7
v -38.4 2.2 38.7
v -38.8 2.2 38.6
v -38.7 2.2 38.6
v -38.6 2.2 38.6
v -38.5 2.2 38.6
v -38.8 2.2 38.2
v -38.7 2.2 38.2
v -38.6 2.2 38.2
v -38.5 2.2 38.2
v -38.9 2.2 38.1
v -38.7 2.2 38.1
v -38.6 2.2 38.1
v -38.4 2.2 38.1
v -38.8 2.5 38.9
v -38.5 2.5 38.9
v -38.8 2.5 38.8
v -38.7 2.5 38.8
v -38.6 2.5 38.8
v -38.5 2.5 38.8
v -38.8 2.5 38
v -38.7 2.5 38
v -38.6 2.5 38
v -38.5 2.5 38
v -38.8 2.5 37.9
v -38.5 2.5 37.9

# faces
f 3/4/1 2/4/1 1/4/1
f 4/4/1 2/4/1 3/4/1
f 9/4/1 6/4/1 5/4/1
f 10/4/1 6/4/1 9/4/1
f 11/4/1 8/4/1 7/4/1
f 12/4/1 8/4/1 11/4/1
f 17/4/1 14/4/1 13/4/1
f 18/4/1 14/4/1 17/4/1
f 19/4/1 16/4/1 15/4/1
f 20/4/1 16/4/1 19/4/1
f 25/4/1 22/4/1 21/4/1
f 26/4/1 22/4/1 25/4/1
f 27/4/1 24/4/1 23/4/1
f 28/4/1 24/4/1 27/4/1
f 33/4/1 30/4/1 29/4/1
f 34/4/1 30/4/1 33/4/1
f 35/4/1 32/4/1 31/4/1
f 36/4/1 32/4/1 35/4/1
f 41/4/1 38/4/1 37/4/1
f 42/4/1 38/4/1 41/4/1
f 43/4/1 40/4/1 39/4/1
f 44/4/1 40/4/1 43/4/1
f 47/6/1 46/6/1 45/6/1
f 48/6/1 46/6/1 47/6/1
f 53/2/1 50/2/1 49/2/1
f 54/2/1 50/2/1 53/2/1
f 55/2/1 52/2/1 51/2/1
f 56/2/1 52/2/1 55/2/1
f 62/5/1 58/5/1 57/5/1
f 63/5/1 60/5/1 59/5/1
f 65/2/1 62/2/1 61/2/1
f 65/5/1 58/5/1 62/5/1
f 66/5/1 58/5/1 65/5/1
f 67/5/1 63/5/1 59/5/1
f 68/2/1 64/2/1 63/2/1
f 68/5/1 63/5/1 67/5/1
f 69/2/1 67/2/1 66/2/1
f 69/2/1 66/2/1 65/2/1
f 69/2/1 68/2/1 67/2/1
f 69/2/1 65/2/1 61/2/1
f 70/2/1 64/2/1 68/2/1
f 70/2/1 68/2/1 69/2/1
f 73/6/1 72/6/1 71/6/1
f 74/6/1 72/6/1 73/6/1
f 75/6/2 76/6/2 78/6/2
f 76/6/2 77/6/2 78/6/2
f 78/6/2 77/6/2 79/6/2
f 80/5/2 81/5/2 85/5/2
f 82/5/2 83/5/2 86/5/2
f 84/2/2 85/2/2 88/2/2
f 85/5/2 81/5/2 88/5/2
f 88/5/2 81/5/2 89/5/2
f 82/5/2 86/5/2 90/5/2
f 86/2/2 87/2/2 91/2/2
f 90/5/2 86/5/2 91/5/2
f 89/2/2 90/2/2 92/2/2
f 88/2/2 89/2/2 92/2/2
f 90/2/2 91/2/2 92/2/2
f 84/2/2 88/2/2 92/2/2
f 91/2/2 87/2/2 93/2/2
f 92/2/2 91/2/2 93/2/2
f 94/2/2 95/2/2 98/2/2
f 98/2/2 95/2/2 99/2/2
f 96/2/2 97/2/2 100/2/2
f 100/2/2 97/2/2 101/2/2
f 102/6/2 103/6/2 104/6/2
f 104/6/2 103/6/2 105/6/2
f 106/4/2 107/4/2 110/4/2
f 110/4/2 107/4/2 111/4/2
f 108/4/2 109/4/2 112/4/2
f 112/4/2 109/4/2 113/4/2
f 114/4/2 115/4/2 118/4/2
f 118/4/2 115/4/2 119/4/2
f 116/4/2 117/4/2 120/4/2
f 120/4/2 117/4/2 121/4/2
f 122/4/2 123/4/2 126/4/2
f 126/4/2 123/4/2 127/4/2
f 124/4/2 125/4/2 128/4/2
f 128/4/2 125/4/2 129/4/2
f 130/4/2 131/4/2 134/4/2
f 134/4/2 131/4/2 135/4/2
f 132/4/2 133/4/2 136/4/2
f 136/4/2 133/4/2 137/4/2
f 138/4/2 139/4/2 142/4/2
f 142/4/2 139/4/2 143/4/2
f 140/4/2 141/4/2 144/4/2
f 144/4/2 141/4/2 145/4/2
f 146/4/2 147/4/2 148/4/2
f 148/4/2 147/4/2 149/4/2
f 152/4/3 151/4/3 150/4/3
f 153/4/3 151/4/3 152/4/3
f 156/4/3 155/4/3 154/4/3
f 157/4/3 155/4/3 156/4/3
f 160/4/3 159/4/3 158/4/3
f 161/4/3 159/4/3 160/4/3
f 164/4/3 163/4/3 162/4/3
f 165/4/3 163/4/3 164/4/3
f 168/4/3 167/4/3 166/4/3
f 169/4/3 167/4/3 168/4/3
f 172/4/3 171/4/3 170/4/3
f 173/4/3 171/4/3 172/4/3
f 176/4/3 175/4/3 174/4/3
f 177/4/3 175/4/3 176/4/3
f 180/4/3 179/4/3 178/4/3
f 181/4/3 179/4/3 180/4/3
f 184/4/3 183/4/3 182/4/3
f 185/4/3 183/4/3 184/4/3
f 188/2/3 187/2/3 186/2/3
f 189/2/3 187/2/3 188/2/3
f 190/2/3 188/2/3 186/2/3
f 190/3/3 189/3/3 188/3/3
f 191/2/3 187/2/3 189/2/3
f 191/3/3 189/3/3 190/3/3
f 192/2/3 190/2/3 186/2/3
f 192/2/3 191/2/3 190/2/3
f 193/2/3 187/2/3 191/2/3
f 193/2/3 191/2/3 192/2/3
f 196/4/3 195/4/3 194/4/3
f 197/4/3 195/4/3 196/4/3
f 200/4/3 199/4/3 198/4/3
f 201/4/3 199/4/3 200/4/3
f 204/6/3 203/6/3 202/6/3
f 206/6/3 204/6/3 202/6/3
f 206/5/3 205/5/3 204/5/3
f 207/5/3 205/5/3 206/5/3
f 208/6/3 206/6/3 202/6/3
f 209/6/3 206/6/3 208/6/3
f 212/6/3 211/6/3 210/6/3
f 213/6/3 211/6/3 212/6/3
f 215/6/3 213/6/3 212/6/3
f 215/5/3 214/5/3 213/5/3
f 216/5/3 214/5/3 215/5/3
f 217/6/3 215/6/3 212/6/3
f 218/6/3 215/6/3 217/6/3
f 221/2/3 220/2/3 219/2/3
f 222/2/3 220/2/3 221/2/3
f 223/2/3 221/2/3 219/2/3
f 225/2/3 223/2/3 219/2/3
f 225/2/3 224/2/3 223/2/3
f 226/2/3 224/2/3 225/2/3
f 227/2/4 228/2/4 229/2/4
f 229/2/4 228/2/4 230/2/4
f 227/2/4 229/2/4 231/2/4
f 227/2/4 231/2/4 233/2/4
f 231/2/4 232/2/4 233/2/4
f 233/2/4 232/2/4 234/2/4
f 235/6/4 236/6/4 237/6/4
f 235/6/4 237/6/4 239/6/4
f 237/5/4 238/5/4 239/5/4
f 239/5/4 238/5/4 240/5/4
f 235/6/4 239/6/4 241/6/4
f 241/6/4 239/6/4 242/6/4
f 243/4/4 244/4/4 245/4/4
f 245/4/4 244/4/4 246/4/4
f 247/6/4 248/6/4 249/6/4
f 247/6/4 249/6/4 251/6/4
f 249/5/4 250/5/4 251/5/4
f 251/5/4 250/5/4 252/5/4
f 247/6/4 251/6/4 253/6/4
f 253/6/4 251/6/4 254/6/4
f 255/4/4 256/4/4 257/4/4
f 257/4/4 256/4/4 258/4/4
f 259/4/4 260/4/4 261/4/4
f 261/4/4 260/4/4 262/4/4
f 263/2/4 264/2/4 265/2/4
f 265/2/4 264/2/4 266/2/4
f 263/2/4 265/2/4 267/2/4
f 265/3/4 266/3/4 267/3/4
f 266/2/4 264/2/4 268/2/4
f 267/3/4 266/3/4 268/3/4
f 263/2/4 267/2/4 269/2/4
f 267/2/4 268/2/4 269/2/4
f 268/2/4 264/2/4 270/2/4
f 269/2/4 268/2/4 270/2/4
f 271/4/4 272/4/4 273/4/4
f 273/4/4 272/4/4 274/4/4
f 275/4/4 276/4/4 277/4/4
f 277/4/4 276/4/4 278/4/4
f 279/4/4 280/4/4 281/4/4
f 281/4/4 280/4/4 282/4/4
f 283/4/4 284/4/4 285/4/4
f 285/4/4 284/4/4 286/4/4
f 287/4/4 288/4/4 289/4/4
f 289/4/4 288/4/4 290/4/4
f 291/4/4 292/4/4 293/4/4
f 293/4/4 292/4/4 294/4/4
f 295/4/4 296/4/4 297/4/4
f 297/4/4 296/4/4 298/4/4
f 299/4/4 300/4/4 301/4/4
f 301/4/4 300/4/4 302/4/4
f 306/4/5 304/4/5 303/4/5
f 307/4/5 304/4/5 306/4/5
f 310/4/5 306/4/5 305/4/5
f 310/4/5 308/4/5 307/4/5
f 310/4/5 307/4/5 306/4/5
f 311/4/5 308/4/5 310/4/5
f 314/4/5 310/4/5 309/4/5
f 314/4/5 312/4/5 311/4/5
f 314/4/5 311/4/5 310/4/5
f 315/4/5 312/4/5 314/4/5
f 318/4/5 314/4/5 313/4/5
f 318/4/5 316/4/5 315/4/5
f 318/4/5 315/4/5 314/4/5
f 319/4/5 316/4/5 318/4/5
f 321/4/5 318/4/5 317/4/5
f 321/4/5 320/4/5 319/4/5
f 321/4/5 319/4/5 318/4/5
f 322/4/5 320/4/5 321/4/5
f 324/4/5 321/4/5 317/4/5
f 325/2/5 322/2/5 321/2/5
f 325/4/5 321/4/5 324/4/5
f 326/4/5 320/4/5 322/4/5
f 326/2/5 322/2/5 325/2/5
f 327/4/5 320/4/5 326/4/5
f 329/4/5 325/4/5 324/4/5
f 329/4/5 328/4/5 327/4/5
f 329/4/5 327/4/5 326/4/5
f 329/4/5 326/4/5 325/4/5
f 329/4/5 324/4/5 323/4/5
f 330/4/5 328/4/5 329/4/5
f 331/4/5 328/4/5 330/4/5
f 332/4/5 328/4/5 331/4/5
f 333/4/5 331/4/5 330/4/5
f 334/4/5 331/4/5 333/4/5
f 335/4/5 333/4/5 330/4/5
f 336/4/5 333/4/5 335/4/5
f 337/2/5 334/2/5 333/2/5
f 337/4/5 333/4/5 336/4/5
f 338/4/5 331/4/5 334/4/5
f 338/2/5 334/2/5 337/2/5
f 339/4/5 331/4/5 338/4/5
f 340/4/5 331/4/5 339/4/5
f 341/4/5 337/4/5 336/4/5
f 341/4/5 339/4/5 338/4/5
f 341/4/5 338/4/5 337/4/5
f 342/4/5 339/4/5 341/4/5
f 343/4/5 339/4/5 342/4/5
f 344/4/5 339/4/5 343/4/5
f 345/4/5 343/4/5 342/4/5
f 346/4/5 343/4/5 345/4/5
f 347/4/5 343/4/5 346/4/5
f 348/4/5 343/4/5 347/4/5
f 349/4/5 347/4/5 346/4/5
f 350/4/5 347/4/5 349/4/5
f 351/4/5 347/4/5 350/4/5
f 352/4/5 347/4/5 351/4/5
f 353/4/5 351/4/5 350/4/5
f 354/4/5 351/4/5 353/4/5
f 357/6/5 356/6/5 355/6/5
f 358/6/5 356/6/5 357/6/5
f 359/1/5 358/1/5 357/1/5
f 360/1/5 358/1/5 359/1/5
f 361/1/5 359/1/5 357/1/5
f 361/7/5 360/7/5 359/7/5
f 362/1/5 358/1/5 360/1/5
f 362/7/5 360/7/5 361/7/5
f 363/6/5 357/6/5 355/6/5
f 363/1/5 361/1/5 357/1/5
f 363/1/5 362/1/5 361/1/5
f 364/1/5 362/1/5 363/1/5
f 365/6/5 363/6/5 355/6/5
f 365/7/5 364/7/5 363/7/5
f 366/1/5 362/1/5 364/1/5
f 366/7/5 364/7/5 365/7/5
f 367/1/5 358/1/5 362/1/5
f 367/1/5 362/1/5 366/1/5
f 367/6/5 356/6/5 358/6/5
f 368/6/5 366/6/5 365/6/5
f 368/6/5 365/6/5 355/6/5
f 368/6/5 367/6/5 366/6/5
f 369/6/5 356/6/5 367/6/5
f 369/6/5 367/6/5 368/6/5
f 372/2/5 371/2/5 370/2/5
f 373/2/5 371/2/5 372/2/5
f 376/2/5 375/2/5 374/2/5
f 377/2/5 375/2/5 376/2/5
f 380/2/5 379/2/5 378/2/5
f 381/2/5 379/2/5 380/2/5
f 382/4/6 383/4/6 385/4/6
f 385/4/6 383/4/6 386/4/6
f 384/4/6 385/4/6 389/4/6
f 386/4/6 387/4/6 389/4/6
f 385/4/6 386/4/6 389/4/6
f 389/4/6 387/4/6 390/4/6
f 388/4/6 389/4/6 393/4/6
f 390/4/6 391/4/6 393/4/6
f 389/4/6 390/4/6 393/4/6
f 393/4/6 391/4/6 394/4/6
f 392/4/6 393/4/6 397/4/6
f 394/4/6 395/4/6 397/4/6
f 393/4/6 394/4/6 397/4/6
f 397/4/6 395/4/6 398/4/6
f 396/4/6 397/4/6 400/4/6
f 398/4/6 399/4/6 400/4/6
f 397/4/6 398/4/6 400/4/6
f 400/4/6 399/4/6 401/4/6
f 396/4/6 400/4/6 403/4/6
f 403/4/6 400/4/6 404/4/6
f 401/4/6 399/4/6 405/4/6
f 405/4/6 399/4/6 406/4/6
f 403/4/6 404/4/6 408/4/6
f 406/4/6 407/4/6 408/4/6
f 405/4/6 406/4/6 408/4/6
f 404/4/6 405/4/6 408/4/6
f 402/4/6 403/4/6 408/4/6
f 408/4/6 407/4/6 409/4/6
f 409/4/6 407/4/6 410/4/6
f 410/4/6 407/4/6 411/4/6
f 409/4/6 410/4/6 412/4/6
f 412/4/6 410/4/6 413/4/6
f 409/4/6 412/4/6 414/4/6
f 414/4/6 412/4/6 415/4/6
f 415/4/6 412/4/6 416/4/6
f 413/4/6 410/4/6 417/4/6
f 417/4/6 410/4/6 418/4/6
f 418/4/6 410/4/6 419/4/6
f 415/4/6 416/4/6 420/4/6
f 417/4/6 418/4/6 420/4/6
f 416/4/6 417/4/6 420/4/6
f 420/4/6 418/4/6 421/4/6
f 421/4/6 418/4/6 422/4/6
f 422/4/6 418/4/6 423/4/6
f 421/4/6 422/4/6 424/4/6
f 424/4/6 422/4/6 425/4/6
f 425/4/6 422/4/6 426/4/6
f 426/4/6 422/4/6 427/4/6
f 425/4/6 426/4/6 428/4/6
f 428/4/6 426/4/6 429/4/6
f 429/4/6 426/4/6 430/4/6
f 430/4/6 426/4/6 431/4/6
f 429/4/6 430/4/6 432/4/6
f 432/4/6 430/4/6 433/4/6
f 434/1/6 435/1/6 436/1/6
f 436/1/6 435/1/6 437/1/6
f 434/1/6 436/1/6 438/1/6
f 436/7/6 437/7/6 438/7/6
f 437/1/6 435/1/6 439/1/6
f 438/7/6 437/7/6 439/7/6
f 434/1/6 438/1/6 440/1/6
f 438/1/6 439/1/6 440/1/6
f 440/1/6 439/1/6 441/1/6
f 440/7/6 441/7/6 442/7/6
f 441/1/6 439/1/6 443/1/6
f 442/7/6 441/7/6 443/7/6
f 439/1/6 435/1/6 444/1/6
f 443/1/6 439/1/6 444/1/6
f 445/6/6 446/6/6 449/6/6
f 449/6/6 446/6/6 450/6/6
f 447/6/6 448/6/6 451/6/6
f 451/6/6 448/6/6 452/6/6
f 445/6/6 449/6/6 453/6/6
f 452/6/6 448/6/6 456/6/6
f 453/6/6 454/6/6 457/6/6
f 445/6/6 453/6/6 457/6/6
f 457/6/6 454/6/6 458/6/6
f 455/6/6 456/6/6 459/6/6
f 456/6/6 448/6/6 460/6/6
f 459/6/6 456/6/6 460/6/6
f 461/2/6 462/2/6 463/2/6
f 463/2/6 462/2/6 464/2/6
f 464/2/6 462/2/6 465/2/6
f 465/2/6 462/2/6 466/2/6
f 464/2/6 465/2/6 468/2/6
f 468/2/6 465/2/6 469/2/6
f 467/2/6 468/2/6 471/2/6
f 469/2/6 470/2/6 471/2/6
f 468/2/6 469/2/6 471/2/6
f 471/2/6 470/2/6 472/2/6
