# MagicaVoxel @ Ephtracy

# group
o CarpaAzul

# material
mtllib Asset-17-CarpaAzul.mtl
usemtl palette

# normals
vn -1 0 0
vn 1 0 0
vn 0 0 1
vn 0 0 -1
vn 0 -1 0
vn 0 1 0

# texcoords
vt 0.306641 0.5
vt 0.693359 0.5
vt 0.728516 0.5
vt 0.732422 0.5
vt 0.759766 0.5
vt 0.830078 0.5
vt 0.912109 0.5

# verts
v -8.2 1 3.9
v -8.2 1 2
v -8.2 1.1 3.9
v -8.2 1.1 2
v -8.1 1.1 3.9
v -8.1 1.1 2
v -8.1 1.2 3.9
v -8.1 1.2 2
v -8 1.2 3.9
v -8 1.2 2
v -8 1.3 3.9
v -8 1.3 2
v -7.9 1.3 3.9
v -7.9 1.3 2
v -7.9 1.4 3.9
v -7.9 1.4 2
v -7.8 1.4 3.9
v -7.8 1.4 2
v -7.8 1.5 3.9
v -7.8 1.5 2
v -7.7 1.5 3.9
v -7.7 1.5 2
v -7.7 1.6 3.9
v -7.7 1.6 2
v -7.6 1.1 3.9
v -7.6 1.1 3.8
v -7.6 1.4 3.9
v -7.6 1.4 3.8
v -7.6 1.6 3.9
v -7.6 1.6 2
v -7.6 1.7 3.9
v -7.6 1.7 2
v -7.5 1.7 3.9
v -7.5 1.7 2
v -7.5 1.8 3.9
v -7.5 1.8 2
v -7.4 1.8 3.9
v -7.4 1.8 2
v -7.4 1.9 3.9
v -7.4 1.9 2
v -7.3 1.9 3.9
v -7.3 1.9 2
v -7.3 2 3.9
v -7.3 2 2
v -7.1 1.7 3.9
v -7.1 1.7 3.8
v -7.1 1.8 3.9
v -7.1 1.8 3.8
v -7 1.6 3.9
v -7 1.6 3.8
v -7 1.7 3.9
v -7 1.7 3.8
v -6.9 1.1 3.9
v -6.9 1.1 3.8
v -6.9 1.4 3.9
v -6.9 1.4 3.8
v -6.9 1.5 3.9
v -6.9 1.5 3.8
v -6.9 1.6 3.9
v -6.9 1.6 3.8
v -6.8 1.4 3.9
v -6.8 1.4 3.8
v -6.8 1.5 3.9
v -6.8 1.5 3.8
v -6.7 1.1 3.9
v -6.7 1.1 3.8
v -6.7 1.4 3.9
v -6.7 1.4 3.8
v -7.7 1.1 3.9
v -7.7 1.1 3.8
v -7.7 1.4 3.9
v -7.7 1.4 3.8
v -7.6 1.4 3.9
v -7.6 1.4 3.8
v -7.6 1.5 3.9
v -7.6 1.5 3.8
v -7.5 1.1 3.9
v -7.5 1.1 3.8
v -7.5 1.4 3.9
v -7.5 1.4 3.8
v -7.5 1.5 3.9
v -7.5 1.5 3.8
v -7.5 1.6 3.9
v -7.5 1.6 3.8
v -7.4 1.6 3.9
v -7.4 1.6 3.8
v -7.4 1.7 3.9
v -7.4 1.7 3.8
v -7.3 1.7 3.9
v -7.3 1.7 3.8
v -7.3 1.8 3.9
v -7.3 1.8 3.8
v -7.1 1.9 3.9
v -7.1 1.9 2
v -7.1 2 3.9
v -7.1 2 2
v -7 1.8 3.9
v -7 1.8 2
v -7 1.9 3.9
v -7 1.9 2
v -6.9 1.7 3.9
v -6.9 1.7 2
v -6.9 1.8 3.9
v -6.9 1.8 2
v -6.8 1.1 3.9
v -6.8 1.1 3.8
v -6.8 1.4 3.9
v -6.8 1.4 3.8
v -6.8 1.6 3.9
v -6.8 1.6 2
v -6.8 1.7 3.9
v -6.8 1.7 2
v -6.7 1.5 3.9
v -6.7 1.5 2
v -6.7 1.6 3.9
v -6.7 1.6 2
v -6.6 1.4 3.9
v -6.6 1.4 2
v -6.6 1.5 3.9
v -6.6 1.5 2
v -6.5 1.3 3.9
v -6.5 1.3 2
v -6.5 1.4 3.9
v -6.5 1.4 2
v -6.4 1.2 3.9
v -6.4 1.2 2
v -6.4 1.3 3.9
v -6.4 1.3 2
v -6.3 1.1 3.9
v -6.3 1.1 2
v -6.3 1.2 3.9
v -6.3 1.2 2
v -6.2 1 3.9
v -6.2 1 2
v -6.2 1.1 3.9
v -6.2 1.1 2
v -8.2 1 3.9
v -8.2 1.1 3.9
v -8.1 1.1 3.9
v -8.1 1.2 3.9
v -8 1.1 3.9
v -8 1.2 3.9
v -8 1.3 3.9
v -7.9 1.3 3.9
v -7.9 1.4 3.9
v -7.8 1 3.9
v -7.8 1.1 3.9
v -7.8 1.3 3.9
v -7.8 1.4 3.9
v -7.8 1.5 3.9
v -7.7 1.1 3.9
v -7.7 1.4 3.9
v -7.7 1.5 3.9
v -7.7 1.6 3.9
v -7.6 1.1 3.9
v -7.6 1.4 3.9
v -7.6 1.5 3.9
v -7.6 1.6 3.9
v -7.6 1.7 3.9
v -7.5 1.1 3.9
v -7.5 1.4 3.9
v -7.5 1.5 3.9
v -7.5 1.6 3.9
v -7.5 1.7 3.9
v -7.5 1.8 3.9
v -7.4 1.6 3.9
v -7.4 1.7 3.9
v -7.4 1.8 3.9
v -7.4 1.9 3.9
v -7.3 1.7 3.9
v -7.3 1.8 3.9
v -7.3 1.9 3.9
v -7.3 2 3.9
v -7.1 1.7 3.9
v -7.1 1.8 3.9
v -7.1 1.9 3.9
v -7.1 2 3.9
v -7 1.6 3.9
v -7 1.7 3.9
v -7 1.8 3.9
v -7 1.9 3.9
v -6.9 1.1 3.9
v -6.9 1.4 3.9
v -6.9 1.5 3.9
v -6.9 1.6 3.9
v -6.9 1.7 3.9
v -6.9 1.8 3.9
v -6.8 1.1 3.9
v -6.8 1.4 3.9
v -6.8 1.5 3.9
v -6.8 1.6 3.9
v -6.8 1.7 3.9
v -6.7 1.1 3.9
v -6.7 1.4 3.9
v -6.7 1.5 3.9
v -6.7 1.6 3.9
v -6.6 1 3.9
v -6.6 1.1 3.9
v -6.6 1.3 3.9
v -6.6 1.4 3.9
v -6.6 1.5 3.9
v -6.5 1.3 3.9
v -6.5 1.4 3.9
v -6.4 1.1 3.9
v -6.4 1.2 3.9
v -6.4 1.3 3.9
v -6.3 1.1 3.9
v -6.3 1.2 3.9
v -6.2 1 3.9
v -6.2 1.1 3.9
v -7.7 1.1 3.8
v -7.7 1.4 3.8
v -7.6 1.1 3.8
v -7.6 1.4 3.8
v -7.6 1.5 3.8
v -7.5 1.1 3.8
v -7.5 1.4 3.8
v -7.5 1.5 3.8
v -7.5 1.6 3.8
v -7.4 1.4 3.8
v -7.4 1.5 3.8
v -7.4 1.6 3.8
v -7.4 1.7 3.8
v -7.3 1.7 3.8
v -7.3 1.8 3.8
v -7.1 1.7 3.8
v -7.1 1.8 3.8
v -7 1.4 3.8
v -7 1.5 3.8
v -7 1.6 3.8
v -7 1.7 3.8
v -6.9 1.1 3.8
v -6.9 1.4 3.8
v -6.9 1.5 3.8
v -6.9 1.6 3.8
v -6.8 1.1 3.8
v -6.8 1.4 3.8
v -6.8 1.5 3.8
v -6.7 1.1 3.8
v -6.7 1.4 3.8
v -8.2 1 2
v -8.2 1.1 2
v -8.1 1.1 2
v -8.1 1.2 2
v -8 1.1 2
v -8 1.2 2
v -8 1.3 2
v -7.9 1.3 2
v -7.9 1.4 2
v -7.8 1.3 2
v -7.8 1.4 2
v -7.8 1.5 2
v -7.7 1.5 2
v -7.7 1.6 2
v -7.6 1.5 2
v -7.6 1.6 2
v -7.6 1.7 2
v -7.5 1.7 2
v -7.5 1.8 2
v -7.4 1.7 2
v -7.4 1.8 2
v -7.4 1.9 2
v -7.3 1.9 2
v -7.3 2 2
v -7.1 1.9 2
v -7.1 2 2
v -7 1.7 2
v -7 1.8 2
v -7 1.9 2
v -6.9 1.7 2
v -6.9 1.8 2
v -6.8 1.5 2
v -6.8 1.6 2
v -6.8 1.7 2
v -6.7 1.5 2
v -6.7 1.6 2
v -6.6 1.3 2
v -6.6 1.4 2
v -6.6 1.5 2
v -6.5 1.3 2
v -6.5 1.4 2
v -6.4 1.1 2
v -6.4 1.2 2
v -6.4 1.3 2
v -6.3 1.1 2
v -6.3 1.2 2
v -6.2 1 2
v -6.2 1.1 2
v -8.2 1 3.9
v -7.8 1 3.9
v -6.6 1 3.9
v -6.2 1 3.9
v -7.8 1 3.8
v -7.6 1 3.8
v -7.5 1 3.8
v -6.9 1 3.8
v -6.8 1 3.8
v -6.7 1 3.8
v -6.6 1 3.8
v -7.8 1 3.7
v -7.6 1 3.7
v -7.5 1 3.7
v -7.3 1 3.7
v -7.1 1 3.7
v -6.9 1 3.7
v -6.8 1 3.7
v -6.7 1 3.7
v -7.3 1 3.6
v -7.1 1 3.6
v -8.2 1 2
v -6.2 1 2
v -7.7 1.4 3.9
v -7.6 1.4 3.9
v -6.8 1.4 3.9
v -6.7 1.4 3.9
v -7.7 1.4 3.8
v -7.6 1.4 3.8
v -6.8 1.4 3.8
v -6.7 1.4 3.8
v -7.6 1.5 3.9
v -7.5 1.5 3.9
v -6.9 1.5 3.9
v -6.8 1.5 3.9
v -7.6 1.5 3.8
v -7.5 1.5 3.8
v -6.9 1.5 3.8
v -6.8 1.5 3.8
v -7.5 1.6 3.9
v -7.4 1.6 3.9
v -7 1.6 3.9
v -6.9 1.6 3.9
v -7.5 1.6 3.8
v -7.4 1.6 3.8
v -7 1.6 3.8
v -6.9 1.6 3.8
v -7.4 1.7 3.9
v -7.3 1.7 3.9
v -7.1 1.7 3.9
v -7 1.7 3.9
v -7.4 1.7 3.8
v -7.3 1.7 3.8
v -7.1 1.7 3.8
v -7 1.7 3.8
v -7.3 1.8 3.9
v -7.1 1.8 3.9
v -7.3 1.8 3.8
v -7.1 1.8 3.8
v -8.2 1.1 3.9
v -8.1 1.1 3.9
v -7.7 1.1 3.9
v -7.6 1.1 3.9
v -7.5 1.1 3.9
v -6.9 1.1 3.9
v -6.8 1.1 3.9
v -6.7 1.1 3.9
v -6.3 1.1 3.9
v -6.2 1.1 3.9
v -7.7 1.1 3.8
v -7.6 1.1 3.8
v -7.5 1.1 3.8
v -6.9 1.1 3.8
v -6.8 1.1 3.8
v -6.7 1.1 3.8
v -8.2 1.1 2
v -8.1 1.1 2
v -6.3 1.1 2
v -6.2 1.1 2
v -8.1 1.2 3.9
v -8 1.2 3.9
v -6.4 1.2 3.9
v -6.3 1.2 3.9
v -8.1 1.2 2
v -8 1.2 2
v -6.4 1.2 2
v -6.3 1.2 2
v -8 1.3 3.9
v -7.9 1.3 3.9
v -6.5 1.3 3.9
v -6.4 1.3 3.9
v -8 1.3 2
v -7.9 1.3 2
v -6.5 1.3 2
v -6.4 1.3 2
v -7.9 1.4 3.9
v -7.8 1.4 3.9
v -7.6 1.4 3.9
v -7.5 1.4 3.9
v -6.9 1.4 3.9
v -6.8 1.4 3.9
v -6.6 1.4 3.9
v -6.5 1.4 3.9
v -7.6 1.4 3.8
v -7.5 1.4 3.8
v -6.9 1.4 3.8
v -6.8 1.4 3.8
v -7.9 1.4 2
v -7.8 1.4 2
v -6.6 1.4 2
v -6.5 1.4 2
v -7.8 1.5 3.9
v -7.7 1.5 3.9
v -6.7 1.5 3.9
v -6.6 1.5 3.9
v -7.8 1.5 2
v -7.7 1.5 2
v -6.7 1.5 2
v -6.6 1.5 2
v -7.7 1.6 3.9
v -7.6 1.6 3.9
v -6.8 1.6 3.9
v -6.7 1.6 3.9
v -7.7 1.6 2
v -7.6 1.6 2
v -6.8 1.6 2
v -6.7 1.6 2
v -7.6 1.7 3.9
v -7.5 1.7 3.9
v -6.9 1.7 3.9
v -6.8 1.7 3.9
v -7.6 1.7 2
v -7.5 1.7 2
v -6.9 1.7 2
v -6.8 1.7 2
v -7.5 1.8 3.9
v -7.4 1.8 3.9
v -7 1.8 3.9
v -6.9 1.8 3.9
v -7.5 1.8 2
v -7.4 1.8 2
v -7 1.8 2
v -6.9 1.8 2
v -7.4 1.9 3.9
v -7.3 1.9 3.9
v -7.1 1.9 3.9
v -7 1.9 3.9
v -7.4 1.9 2
v -7.3 1.9 2
v -7.1 1.9 2
v -7 1.9 2
v -7.3 2 3.9
v -7.1 2 3.9
v -7.3 2 2
v -7.1 2 2

# faces
f 3/4/1 2/4/1 1/4/1
f 4/4/1 2/4/1 3/4/1
f 7/2/1 6/2/1 5/2/1
f 8/2/1 6/2/1 7/2/1
f 11/4/1 10/4/1 9/4/1
f 12/4/1 10/4/1 11/4/1
f 15/2/1 14/2/1 13/2/1
f 16/2/1 14/2/1 15/2/1
f 19/4/1 18/4/1 17/4/1
f 20/4/1 18/4/1 19/4/1
f 23/2/1 22/2/1 21/2/1
f 24/2/1 22/2/1 23/2/1
f 27/5/1 26/5/1 25/5/1
f 28/5/1 26/5/1 27/5/1
f 31/4/1 30/4/1 29/4/1
f 32/4/1 30/4/1 31/4/1
f 35/2/1 34/2/1 33/2/1
f 36/2/1 34/2/1 35/2/1
f 39/4/1 38/4/1 37/4/1
f 40/4/1 38/4/1 39/4/1
f 43/2/1 42/2/1 41/2/1
f 44/2/1 42/2/1 43/2/1
f 47/4/1 46/4/1 45/4/1
f 48/4/1 46/4/1 47/4/1
f 51/4/1 50/4/1 49/4/1
f 52/4/1 50/4/1 51/4/1
f 55/5/1 54/5/1 53/5/1
f 56/5/1 54/5/1 55/5/1
f 59/4/1 58/4/1 57/4/1
f 60/4/1 58/4/1 59/4/1
f 63/4/1 62/4/1 61/4/1
f 64/4/1 62/4/1 63/4/1
f 67/4/1 66/4/1 65/4/1
f 68/4/1 66/4/1 67/4/1
f 69/4/2 70/4/2 71/4/2
f 71/4/2 70/4/2 72/4/2
f 73/4/2 74/4/2 75/4/2
f 75/4/2 74/4/2 76/4/2
f 77/5/2 78/5/2 79/5/2
f 79/5/2 78/5/2 80/5/2
f 81/4/2 82/4/2 83/4/2
f 83/4/2 82/4/2 84/4/2
f 85/4/2 86/4/2 87/4/2
f 87/4/2 86/4/2 88/4/2
f 89/4/2 90/4/2 91/4/2
f 91/4/2 90/4/2 92/4/2
f 93/2/2 94/2/2 95/2/2
f 95/2/2 94/2/2 96/2/2
f 97/4/2 98/4/2 99/4/2
f 99/4/2 98/4/2 100/4/2
f 101/2/2 102/2/2 103/2/2
f 103/2/2 102/2/2 104/2/2
f 105/5/2 106/5/2 107/5/2
f 107/5/2 106/5/2 108/5/2
f 109/4/2 110/4/2 111/4/2
f 111/4/2 110/4/2 112/4/2
f 113/2/2 114/2/2 115/2/2
f 115/2/2 114/2/2 116/2/2
f 117/4/2 118/4/2 119/4/2
f 119/4/2 118/4/2 120/4/2
f 121/2/2 122/2/2 123/2/2
f 123/2/2 122/2/2 124/2/2
f 125/4/2 126/4/2 127/4/2
f 127/4/2 126/4/2 128/4/2
f 129/2/2 130/2/2 131/2/2
f 131/2/2 130/2/2 132/2/2
f 133/4/2 134/4/2 135/4/2
f 135/4/2 134/4/2 136/4/2
f 139/4/3 138/4/3 137/4/3
f 141/4/3 139/4/3 137/4/3
f 141/2/3 140/2/3 139/2/3
f 142/2/3 140/2/3 141/2/3
f 144/4/3 142/4/3 141/4/3
f 144/4/3 143/4/3 142/4/3
f 146/4/3 141/4/3 137/4/3
f 146/4/3 144/4/3 141/4/3
f 147/4/3 144/4/3 146/4/3
f 148/2/3 145/2/3 144/2/3
f 148/4/3 144/4/3 147/4/3
f 149/2/3 145/2/3 148/2/3
f 151/5/3 147/5/3 146/5/3
f 151/4/3 150/4/3 149/4/3
f 151/4/3 149/4/3 148/4/3
f 151/4/3 148/4/3 147/4/3
f 152/4/3 150/4/3 151/4/3
f 153/4/3 150/4/3 152/4/3
f 155/5/3 151/5/3 146/5/3
f 156/4/3 153/4/3 152/4/3
f 157/2/3 154/2/3 153/2/3
f 157/4/3 153/4/3 156/4/3
f 158/2/3 154/2/3 157/2/3
f 160/5/3 156/5/3 155/5/3
f 160/5/3 155/5/3 146/5/3
f 161/5/3 156/5/3 160/5/3
f 162/4/3 159/4/3 158/4/3
f 162/4/3 158/4/3 157/4/3
f 163/4/3 159/4/3 162/4/3
f 164/4/3 159/4/3 163/4/3
f 166/4/3 164/4/3 163/4/3
f 167/2/3 165/2/3 164/2/3
f 167/4/3 164/4/3 166/4/3
f 168/2/3 165/2/3 167/2/3
f 170/4/3 169/4/3 168/4/3
f 170/4/3 168/4/3 167/4/3
f 171/4/3 169/4/3 170/4/3
f 172/4/3 169/4/3 171/4/3
f 175/4/3 172/4/3 171/4/3
f 176/2/3 173/2/3 172/2/3
f 176/4/3 172/4/3 175/4/3
f 177/2/3 173/2/3 176/2/3
f 179/4/3 175/4/3 174/4/3
f 179/4/3 176/4/3 175/4/3
f 180/4/3 176/4/3 179/4/3
f 181/4/3 176/4/3 180/4/3
f 182/5/3 160/5/3 146/5/3
f 185/4/3 179/4/3 178/4/3
f 186/2/3 180/2/3 179/2/3
f 186/4/3 179/4/3 185/4/3
f 187/2/3 180/2/3 186/2/3
f 188/5/3 183/5/3 182/5/3
f 188/5/3 182/5/3 146/5/3
f 189/5/3 183/5/3 188/5/3
f 190/4/3 185/4/3 184/4/3
f 190/4/3 186/4/3 185/4/3
f 191/4/3 186/4/3 190/4/3
f 192/4/3 186/4/3 191/4/3
f 193/5/3 188/5/3 146/5/3
f 194/4/3 190/4/3 189/4/3
f 195/2/3 191/2/3 190/2/3
f 195/4/3 190/4/3 194/4/3
f 196/2/3 191/2/3 195/2/3
f 197/5/3 193/5/3 146/5/3
f 198/4/3 194/4/3 193/4/3
f 198/5/3 193/5/3 197/5/3
f 198/4/3 195/4/3 194/4/3
f 199/4/3 195/4/3 198/4/3
f 200/4/3 195/4/3 199/4/3
f 201/4/3 195/4/3 200/4/3
f 202/4/3 198/4/3 197/4/3
f 202/4/3 199/4/3 198/4/3
f 202/2/3 200/2/3 199/2/3
f 203/2/3 200/2/3 202/2/3
f 204/4/3 202/4/3 197/4/3
f 205/4/3 202/4/3 204/4/3
f 206/4/3 202/4/3 205/4/3
f 207/4/3 204/4/3 197/4/3
f 207/2/3 205/2/3 204/2/3
f 208/2/3 205/2/3 207/2/3
f 209/4/3 207/4/3 197/4/3
f 210/4/3 207/4/3 209/4/3
f 213/6/3 212/6/3 211/6/3
f 214/6/3 212/6/3 213/6/3
f 217/6/3 215/6/3 214/6/3
f 218/6/3 215/6/3 217/6/3
f 220/7/3 217/7/3 216/7/3
f 220/5/3 219/5/3 218/5/3
f 220/5/3 218/5/3 217/5/3
f 221/5/3 219/5/3 220/5/3
f 222/5/3 219/5/3 221/5/3
f 224/5/3 222/5/3 221/5/3
f 224/5/3 223/5/3 222/5/3
f 226/5/3 224/5/3 221/5/3
f 226/5/3 225/5/3 224/5/3
f 227/5/3 225/5/3 226/5/3
f 228/7/3 220/7/3 216/7/3
f 228/7/3 221/7/3 220/7/3
f 229/5/3 226/5/3 221/5/3
f 229/7/3 221/7/3 228/7/3
f 230/5/3 226/5/3 229/5/3
f 231/5/3 226/5/3 230/5/3
f 232/7/3 228/7/3 216/7/3
f 233/5/3 229/5/3 228/5/3
f 233/7/3 228/7/3 232/7/3
f 233/5/3 230/5/3 229/5/3
f 234/5/3 230/5/3 233/5/3
f 235/5/3 230/5/3 234/5/3
f 237/6/3 234/6/3 233/6/3
f 238/6/3 234/6/3 237/6/3
f 239/6/3 237/6/3 236/6/3
f 240/6/3 237/6/3 239/6/3
f 241/4/4 242/4/4 243/4/4
f 241/4/4 243/4/4 245/4/4
f 243/2/4 244/2/4 245/2/4
f 245/2/4 244/2/4 246/2/4
f 245/4/4 246/4/4 248/4/4
f 246/4/4 247/4/4 248/4/4
f 245/4/4 248/4/4 250/4/4
f 248/2/4 249/2/4 250/2/4
f 250/2/4 249/2/4 251/2/4
f 250/4/4 251/4/4 253/4/4
f 251/4/4 252/4/4 253/4/4
f 250/4/4 253/4/4 255/4/4
f 253/2/4 254/2/4 255/2/4
f 255/2/4 254/2/4 256/2/4
f 255/4/4 256/4/4 258/4/4
f 256/4/4 257/4/4 258/4/4
f 255/4/4 258/4/4 260/4/4
f 258/2/4 259/2/4 260/2/4
f 260/2/4 259/2/4 261/2/4
f 260/4/4 261/4/4 263/4/4
f 261/4/4 262/4/4 263/4/4
f 260/4/4 263/4/4 265/4/4
f 263/2/4 264/2/4 265/2/4
f 265/2/4 264/2/4 266/2/4
f 255/4/4 260/4/4 267/4/4
f 260/4/4 265/4/4 267/4/4
f 267/4/4 265/4/4 268/4/4
f 268/4/4 265/4/4 269/4/4
f 255/4/4 267/4/4 270/4/4
f 267/2/4 268/2/4 270/2/4
f 270/2/4 268/2/4 271/2/4
f 250/4/4 255/4/4 272/4/4
f 255/4/4 270/4/4 272/4/4
f 272/4/4 270/4/4 273/4/4
f 273/4/4 270/4/4 274/4/4
f 250/4/4 272/4/4 275/4/4
f 272/2/4 273/2/4 275/2/4
f 275/2/4 273/2/4 276/2/4
f 245/4/4 250/4/4 277/4/4
f 250/4/4 275/4/4 277/4/4
f 277/4/4 275/4/4 278/4/4
f 278/4/4 275/4/4 279/4/4
f 245/4/4 277/4/4 280/4/4
f 277/2/4 278/2/4 280/2/4
f 280/2/4 278/2/4 281/2/4
f 241/4/4 245/4/4 282/4/4
f 245/4/4 280/4/4 282/4/4
f 282/4/4 280/4/4 283/4/4
f 283/4/4 280/4/4 284/4/4
f 241/4/4 282/4/4 285/4/4
f 282/2/4 283/2/4 285/2/4
f 285/2/4 283/2/4 286/2/4
f 241/4/4 285/4/4 287/4/4
f 287/4/4 285/4/4 288/4/4
f 293/4/5 290/4/5 289/4/5
f 293/5/5 291/5/5 290/5/5
f 294/5/5 291/5/5 293/5/5
f 295/5/5 291/5/5 294/5/5
f 296/5/5 291/5/5 295/5/5
f 297/5/5 291/5/5 296/5/5
f 298/5/5 291/5/5 297/5/5
f 299/4/5 292/4/5 291/4/5
f 299/5/5 291/5/5 298/5/5
f 300/4/5 293/4/5 289/4/5
f 300/6/5 294/6/5 293/6/5
f 301/5/5 295/5/5 294/5/5
f 301/6/5 294/6/5 300/6/5
f 302/6/5 296/6/5 295/6/5
f 302/5/5 295/5/5 301/5/5
f 303/6/5 296/6/5 302/6/5
f 304/6/5 296/6/5 303/6/5
f 305/5/5 297/5/5 296/5/5
f 305/6/5 296/6/5 304/6/5
f 306/6/5 298/6/5 297/6/5
f 306/5/5 297/5/5 305/5/5
f 307/4/5 299/4/5 298/4/5
f 307/6/5 298/6/5 306/6/5
f 308/4/5 301/4/5 300/4/5
f 308/6/5 304/6/5 303/6/5
f 308/4/5 302/4/5 301/4/5
f 308/4/5 303/4/5 302/4/5
f 309/4/5 305/4/5 304/4/5
f 309/6/5 304/6/5 308/6/5
f 309/4/5 306/4/5 305/4/5
f 309/4/5 307/4/5 306/4/5
f 310/4/5 308/4/5 300/4/5
f 310/4/5 300/4/5 289/4/5
f 310/4/5 309/4/5 308/4/5
f 311/4/5 307/4/5 309/4/5
f 311/4/5 309/4/5 310/4/5
f 311/4/5 292/4/5 299/4/5
f 311/4/5 299/4/5 307/4/5
f 316/4/5 313/4/5 312/4/5
f 317/4/5 313/4/5 316/4/5
f 318/4/5 315/4/5 314/4/5
f 319/4/5 315/4/5 318/4/5
f 324/4/5 321/4/5 320/4/5
f 325/4/5 321/4/5 324/4/5
f 326/4/5 323/4/5 322/4/5
f 327/4/5 323/4/5 326/4/5
f 332/4/5 329/4/5 328/4/5
f 333/4/5 329/4/5 332/4/5
f 334/4/5 331/4/5 330/4/5
f 335/4/5 331/4/5 334/4/5
f 340/4/5 337/4/5 336/4/5
f 341/4/5 337/4/5 340/4/5
f 342/4/5 339/4/5 338/4/5
f 343/4/5 339/4/5 342/4/5
f 346/4/5 345/4/5 344/4/5
f 347/4/5 345/4/5 346/4/5
f 350/5/6 351/5/6 358/5/6
f 358/5/6 351/5/6 359/5/6
f 352/5/6 353/5/6 360/5/6
f 360/5/6 353/5/6 361/5/6
f 354/5/6 355/5/6 362/5/6
f 362/5/6 355/5/6 363/5/6
f 348/4/6 349/4/6 364/4/6
f 364/4/6 349/4/6 365/4/6
f 356/4/6 357/4/6 366/4/6
f 366/4/6 357/4/6 367/4/6
f 368/2/6 369/2/6 372/2/6
f 372/2/6 369/2/6 373/2/6
f 370/2/6 371/2/6 374/2/6
f 374/2/6 371/2/6 375/2/6
f 376/4/6 377/4/6 380/4/6
f 380/4/6 377/4/6 381/4/6
f 378/4/6 379/4/6 382/4/6
f 382/4/6 379/4/6 383/4/6
f 386/5/6 387/5/6 392/5/6
f 392/5/6 387/5/6 393/5/6
f 388/5/6 389/5/6 394/5/6
f 394/5/6 389/5/6 395/5/6
f 384/2/6 385/2/6 396/2/6
f 396/2/6 385/2/6 397/2/6
f 390/2/6 391/2/6 398/2/6
f 398/2/6 391/2/6 399/2/6
f 400/4/6 401/4/6 404/4/6
f 404/4/6 401/4/6 405/4/6
f 402/4/6 403/4/6 406/4/6
f 406/4/6 403/4/6 407/4/6
f 408/2/6 409/2/6 412/2/6
f 412/2/6 409/2/6 413/2/6
f 410/2/6 411/2/6 414/2/6
f 414/2/6 411/2/6 415/2/6
f 416/4/6 417/4/6 420/4/6
f 420/4/6 417/4/6 421/4/6
f 418/4/6 419/4/6 422/4/6
f 422/4/6 419/4/6 423/4/6
f 424/2/6 425/2/6 428/2/6
f 428/2/6 425/2/6 429/2/6
f 426/2/6 427/2/6 430/2/6
f 430/2/6 427/2/6 431/2/6
f 432/4/6 433/4/6 436/4/6
f 436/4/6 433/4/6 437/4/6
f 434/4/6 435/4/6 438/4/6
f 438/4/6 435/4/6 439/4/6
f 440/2/6 441/2/6 442/2/6
f 442/2/6 441/2/6 443/2/6
