# MagicaVoxel @ Ephtracy

# group
o Aljibe

# material
mtllib Asset-31-Aljibe.mtl
usemtl palette

# normals
vn -1 0 0
vn 1 0 0
vn 0 0 1
vn 0 0 -1
vn 0 -1 0
vn 0 1 0

# texcoords
vt 0.0332031 0.5
vt 0.0488281 0.5
vt 0.0527344 0.5
vt 0.0566406 0.5
vt 0.0605469 0.5
vt 0.0683594 0.5

# verts
v -28.9 2 43.9
v -28.9 2 43
v -28.9 2.1 43.9
v -28.9 2.1 43
v -28.9 2.6 43.9
v -28.9 2.6 43
v -28.9 2.7 43.9
v -28.9 2.7 43
v -28.8 1.5 43.8
v -28.8 1.5 43.3
v -28.8 1.5 43.1
v -28.8 1.6 43.8
v -28.8 1.6 43.7
v -28.8 1.6 43.6
v -28.8 1.6 43.4
v -28.8 1.6 43.3
v -28.8 1.6 43.1
v -28.8 1.7 43.8
v -28.8 1.7 43.7
v -28.8 1.7 43.6
v -28.8 1.7 43.4
v -28.8 1.8 43.7
v -28.8 1.8 43.6
v -28.8 1.8 43.4
v -28.8 1.8 43.2
v -28.8 1.9 43.7
v -28.8 1.9 43.6
v -28.8 1.9 43.4
v -28.8 1.9 43.2
v -28.8 2 43.8
v -28.8 2 43.1
v -28.8 2.7 43.9
v -28.8 2.7 43
v -28.8 2.8 43.9
v -28.8 2.8 43
v -28.7 2.8 43.9
v -28.7 2.8 43
v -28.7 2.9 43.9
v -28.7 2.9 43
v -28.6 2.9 43.9
v -28.6 2.9 43
v -28.6 3 43.9
v -28.6 3 43
v -28.5 2.1 43.9
v -28.5 2.1 43.8
v -28.5 2.1 43.1
v -28.5 2.1 43
v -28.5 2.9 43.9
v -28.5 2.9 43.8
v -28.5 2.9 43.1
v -28.5 2.9 43
v -28.5 3 43.9
v -28.5 3 43
v -28.5 3.1 43.9
v -28.5 3.1 43
v -28.4 2.9 43.8
v -28.4 2.9 43.1
v -28.4 3 43.8
v -28.4 3 43.1
v -28.3 2.8 43.9
v -28.3 2.8 43
v -28.3 2.9 43.9
v -28.3 2.9 43
v -28.2 1.6 43.7
v -28.2 1.6 43.6
v -28.2 1.6 43.5
v -28.2 1.6 43.3
v -28.2 1.6 43.2
v -28.2 1.7 43.7
v -28.2 1.7 43.6
v -28.2 1.7 43.5
v -28.2 1.7 43.3
v -28.2 1.8 43.7
v -28.2 1.8 43.5
v -28.2 1.8 43.3
v -28.2 1.9 43.7
v -28.2 1.9 43.5
v -28.2 1.9 43.3
v -28.2 2 43.7
v -28.2 2 43.2
v -28.2 2.1 43.7
v -28.2 2.1 43.2
v -28.2 2.7 43.9
v -28.2 2.7 43
v -28.2 2.8 43.9
v -28.2 2.8 43
v -28.1 2.6 43.9
v -28.1 2.6 43
v -28.1 2.7 43.9
v -28.1 2.7 43
v -28.8 2.6 43.9
v -28.8 2.6 43
v -28.8 2.7 43.9
v -28.8 2.7 43
v -28.7 1.6 43.7
v -28.7 1.6 43.6
v -28.7 1.6 43.4
v -28.7 1.6 43.2
v -28.7 1.7 43.6
v -28.7 1.7 43.4
v -28.7 1.8 43.7
v -28.7 1.8 43.6
v -28.7 1.8 43.4
v -28.7 1.8 43.2
v -28.7 1.9 43.7
v -28.7 1.9 43.6
v -28.7 1.9 43.4
v -28.7 1.9 43.2
v -28.7 2 43.7
v -28.7 2 43.2
v -28.7 2.1 43.7
v -28.7 2.1 43.2
v -28.7 2.7 43.9
v -28.7 2.7 43
v -28.7 2.8 43.9
v -28.7 2.8 43
v -28.6 2.8 43.9
v -28.6 2.8 43
v -28.6 2.9 43.9
v -28.6 2.9 43
v -28.5 2.9 43.8
v -28.5 2.9 43.1
v -28.5 3 43.8
v -28.5 3 43.1
v -28.4 2.1 43.9
v -28.4 2.1 43.8
v -28.4 2.1 43.1
v -28.4 2.1 43
v -28.4 2.9 43.9
v -28.4 2.9 43.8
v -28.4 2.9 43.1
v -28.4 2.9 43
v -28.4 3 43.9
v -28.4 3 43
v -28.4 3.1 43.9
v -28.4 3.1 43
v -28.3 2.9 43.9
v -28.3 2.9 43
v -28.3 3 43.9
v -28.3 3 43
v -28.2 2.8 43.9
v -28.2 2.8 43
v -28.2 2.9 43.9
v -28.2 2.9 43
v -28.1 1.5 43.8
v -28.1 1.5 43.1
v -28.1 1.6 43.8
v -28.1 1.6 43.6
v -28.1 1.6 43.5
v -28.1 1.6 43.3
v -28.1 1.7 43.8
v -28.1 1.7 43.6
v -28.1 1.7 43.5
v -28.1 1.7 43.3
v -28.1 1.8 43.8
v -28.1 1.8 43.7
v -28.1 1.8 43.5
v -28.1 1.8 43.3
v -28.1 1.9 43.8
v -28.1 1.9 43.7
v -28.1 1.9 43.5
v -28.1 1.9 43.3
v -28.1 2 43.8
v -28.1 2 43.1
v -28.1 2.7 43.9
v -28.1 2.7 43
v -28.1 2.8 43.9
v -28.1 2.8 43
v -28 2 43.9
v -28 2 43
v -28 2.1 43.9
v -28 2.1 43
v -28 2.6 43.9
v -28 2.6 43
v -28 2.7 43.9
v -28 2.7 43
v -28.9 2 43.9
v -28.9 2.1 43.9
v -28.9 2.6 43.9
v -28.9 2.7 43.9
v -28.8 2.6 43.9
v -28.8 2.7 43.9
v -28.8 2.8 43.9
v -28.7 2.7 43.9
v -28.7 2.8 43.9
v -28.7 2.9 43.9
v -28.6 2.8 43.9
v -28.6 2.9 43.9
v -28.6 3 43.9
v -28.5 2.1 43.9
v -28.5 2.9 43.9
v -28.5 3 43.9
v -28.5 3.1 43.9
v -28.4 2.1 43.9
v -28.4 2.9 43.9
v -28.4 3 43.9
v -28.4 3.1 43.9
v -28.3 2.8 43.9
v -28.3 2.9 43.9
v -28.3 3 43.9
v -28.2 2.7 43.9
v -28.2 2.8 43.9
v -28.2 2.9 43.9
v -28.1 2.6 43.9
v -28.1 2.7 43.9
v -28.1 2.8 43.9
v -28 2 43.9
v -28 2.1 43.9
v -28 2.6 43.9
v -28 2.7 43.9
v -28.8 1.5 43.8
v -28.8 1.6 43.8
v -28.8 1.7 43.8
v -28.8 2 43.8
v -28.7 1.5 43.8
v -28.7 1.6 43.8
v -28.7 1.7 43.8
v -28.7 1.8 43.8
v -28.7 1.9 43.8
v -28.5 1.5 43.8
v -28.5 1.6 43.8
v -28.5 1.7 43.8
v -28.5 1.8 43.8
v -28.5 1.9 43.8
v -28.4 1.9 43.8
v -28.4 2 43.8
v -28.3 1.6 43.8
v -28.3 1.7 43.8
v -28.3 1.8 43.8
v -28.3 1.9 43.8
v -28.3 2 43.8
v -28.2 1.6 43.8
v -28.2 1.7 43.8
v -28.1 1.5 43.8
v -28.1 1.6 43.8
v -28.1 1.7 43.8
v -28.1 1.8 43.8
v -28.1 1.9 43.8
v -28.1 2 43.8
v -28.7 1.6 43.2
v -28.7 1.8 43.2
v -28.7 1.9 43.2
v -28.7 2 43.2
v -28.7 2.1 43.2
v -28.5 1.8 43.2
v -28.5 1.9 43.2
v -28.3 1.8 43.2
v -28.3 1.9 43.2
v -28.2 1.6 43.2
v -28.2 2 43.2
v -28.2 2.1 43.2
v -28.5 2.1 43.1
v -28.5 2.9 43.1
v -28.5 3 43.1
v -28.4 2.1 43.1
v -28.4 2.9 43.1
v -28.4 3 43.1
v -28.5 2.1 43.8
v -28.5 2.9 43.8
v -28.5 3 43.8
v -28.4 2.1 43.8
v -28.4 2.9 43.8
v -28.4 3 43.8
v -28.7 1.6 43.7
v -28.7 1.8 43.7
v -28.7 1.9 43.7
v -28.7 2 43.7
v -28.7 2.1 43.7
v -28.5 1.6 43.7
v -28.5 1.7 43.7
v -28.5 1.8 43.7
v -28.5 1.9 43.7
v -28.4 1.9 43.7
v -28.4 2 43.7
v -28.3 1.6 43.7
v -28.3 1.7 43.7
v -28.3 1.8 43.7
v -28.3 1.9 43.7
v -28.3 2 43.7
v -28.2 1.6 43.7
v -28.2 1.7 43.7
v -28.2 1.8 43.7
v -28.2 1.9 43.7
v -28.2 2 43.7
v -28.2 2.1 43.7
v -28.8 1.5 43.1
v -28.8 1.6 43.1
v -28.8 2 43.1
v -28.7 1.5 43.1
v -28.7 1.6 43.1
v -28.5 1.8 43.1
v -28.5 1.9 43.1
v -28.3 1.8 43.1
v -28.3 1.9 43.1
v -28.1 1.5 43.1
v -28.1 2 43.1
v -28.9 2 43
v -28.9 2.1 43
v -28.9 2.6 43
v -28.9 2.7 43
v -28.8 2.6 43
v -28.8 2.7 43
v -28.8 2.8 43
v -28.7 2.7 43
v -28.7 2.8 43
v -28.7 2.9 43
v -28.6 2.8 43
v -28.6 2.9 43
v -28.6 3 43
v -28.5 2.1 43
v -28.5 2.9 43
v -28.5 3 43
v -28.5 3.1 43
v -28.4 2.1 43
v -28.4 2.9 43
v -28.4 3 43
v -28.4 3.1 43
v -28.3 2.8 43
v -28.3 2.9 43
v -28.3 3 43
v -28.2 2.7 43
v -28.2 2.8 43
v -28.2 2.9 43
v -28.1 2.6 43
v -28.1 2.7 43
v -28.1 2.8 43
v -28 2 43
v -28 2.1 43
v -28 2.6 43
v -28 2.7 43
v -28.8 1.5 43.8
v -28.7 1.5 43.8
v -28.5 1.5 43.8
v -28.1 1.5 43.8
v -28.7 1.5 43.7
v -28.5 1.5 43.7
v -28.2 1.5 43.7
v -28.8 1.5 43.3
v -28.7 1.5 43.3
v -28.7 1.5 43.2
v -28.2 1.5 43.2
v -28.8 1.5 43.1
v -28.7 1.5 43.1
v -28.1 1.5 43.1
v -28.9 2 43.9
v -28 2 43.9
v -28.8 2 43.8
v -28.4 2 43.8
v -28.3 2 43.8
v -28.1 2 43.8
v -28.8 2 43.1
v -28.1 2 43.1
v -28.9 2 43
v -28 2 43
v -28.9 2.6 43.9
v -28.8 2.6 43.9
v -28.1 2.6 43.9
v -28 2.6 43.9
v -28.9 2.6 43
v -28.8 2.6 43
v -28.1 2.6 43
v -28 2.6 43
v -28.8 2.7 43.9
v -28.7 2.7 43.9
v -28.2 2.7 43.9
v -28.1 2.7 43.9
v -28.8 2.7 43
v -28.7 2.7 43
v -28.2 2.7 43
v -28.1 2.7 43
v -28.7 2.8 43.9
v -28.6 2.8 43.9
v -28.3 2.8 43.9
v -28.2 2.8 43.9
v -28.7 2.8 43
v -28.6 2.8 43
v -28.3 2.8 43
v -28.2 2.8 43
v -28.6 2.9 43.9
v -28.5 2.9 43.9
v -28.4 2.9 43.9
v -28.3 2.9 43.9
v -28.5 2.9 43.8
v -28.4 2.9 43.8
v -28.5 2.9 43.1
v -28.4 2.9 43.1
v -28.6 2.9 43
v -28.5 2.9 43
v -28.4 2.9 43
v -28.3 2.9 43
v -28.5 3 43.8
v -28.4 3 43.8
v -28.5 3 43.1
v -28.4 3 43.1
v -28.7 1.6 43.7
v -28.5 1.6 43.7
v -28.3 1.6 43.7
v -28.2 1.6 43.7
v -28.7 1.6 43.6
v -28.2 1.6 43.6
v -28.2 1.6 43.5
v -28.7 1.6 43.4
v -28.2 1.6 43.3
v -28.7 1.6 43.2
v -28.2 1.6 43.2
v -28.9 2.1 43.9
v -28.5 2.1 43.9
v -28.4 2.1 43.9
v -28 2.1 43.9
v -28.5 2.1 43.8
v -28.4 2.1 43.8
v -28.7 2.1 43.7
v -28.2 2.1 43.7
v -28.7 2.1 43.2
v -28.2 2.1 43.2
v -28.5 2.1 43.1
v -28.4 2.1 43.1
v -28.9 2.1 43
v -28.5 2.1 43
v -28.4 2.1 43
v -28 2.1 43
v -28.9 2.7 43.9
v -28.8 2.7 43.9
v -28.1 2.7 43.9
v -28 2.7 43.9
v -28.9 2.7 43
v -28.8 2.7 43
v -28.1 2.7 43
v -28 2.7 43
v -28.8 2.8 43.9
v -28.7 2.8 43.9
v -28.2 2.8 43.9
v -28.1 2.8 43.9
v -28.8 2.8 43
v -28.7 2.8 43
v -28.2 2.8 43
v -28.1 2.8 43
v -28.7 2.9 43.9
v -28.6 2.9 43.9
v -28.3 2.9 43.9
v -28.2 2.9 43.9
v -28.7 2.9 43
v -28.6 2.9 43
v -28.3 2.9 43
v -28.2 2.9 43
v -28.6 3 43.9
v -28.5 3 43.9
v -28.4 3 43.9
v -28.3 3 43.9
v -28.6 3 43
v -28.5 3 43
v -28.4 3 43
v -28.3 3 43
v -28.5 3.1 43.9
v -28.4 3.1 43.9
v -28.5 3.1 43
v -28.4 3.1 43

# faces
f 3/2/1 2/2/1 1/2/1
f 4/2/1 2/2/1 3/2/1
f 7/3/1 6/3/1 5/3/1
f 8/3/1 6/3/1 7/3/1
f 12/4/1 10/4/1 9/4/1
f 13/4/1 10/4/1 12/4/1
f 14/4/1 10/4/1 13/4/1
f 15/4/1 10/4/1 14/4/1
f 16/5/1 11/5/1 10/5/1
f 16/4/1 10/4/1 15/4/1
f 17/5/1 11/5/1 16/5/1
f 18/5/1 13/5/1 12/5/1
f 19/4/1 14/4/1 13/4/1
f 19/5/1 13/5/1 18/5/1
f 20/5/1 15/5/1 14/5/1
f 20/4/1 14/4/1 19/4/1
f 21/4/1 16/4/1 15/4/1
f 21/5/1 15/5/1 20/5/1
f 21/4/1 17/4/1 16/4/1
f 22/4/1 19/4/1 18/4/1
f 22/4/1 20/4/1 19/4/1
f 22/4/1 21/4/1 20/4/1
f 23/4/1 21/4/1 22/4/1
f 24/4/1 17/4/1 21/4/1
f 24/4/1 21/4/1 23/4/1
f 25/4/1 17/4/1 24/4/1
f 26/5/1 23/5/1 22/5/1
f 26/4/1 22/4/1 18/4/1
f 27/4/1 24/4/1 23/4/1
f 27/5/1 23/5/1 26/5/1
f 28/5/1 25/5/1 24/5/1
f 28/4/1 24/4/1 27/4/1
f 29/4/1 17/4/1 25/4/1
f 29/5/1 25/5/1 28/5/1
f 30/4/1 28/4/1 27/4/1
f 30/4/1 27/4/1 26/4/1
f 30/4/1 29/4/1 28/4/1
f 30/4/1 26/4/1 18/4/1
f 31/4/1 17/4/1 29/4/1
f 31/4/1 29/4/1 30/4/1
f 34/3/1 33/3/1 32/3/1
f 35/3/1 33/3/1 34/3/1
f 38/3/1 37/3/1 36/3/1
f 39/3/1 37/3/1 38/3/1
f 42/3/1 41/3/1 40/3/1
f 43/3/1 41/3/1 42/3/1
f 48/1/1 45/1/1 44/1/1
f 49/1/1 45/1/1 48/1/1
f 50/1/1 47/1/1 46/1/1
f 51/1/1 47/1/1 50/1/1
f 54/3/1 53/3/1 52/3/1
f 55/3/1 53/3/1 54/3/1
f 58/3/1 57/3/1 56/3/1
f 59/3/1 57/3/1 58/3/1
f 62/3/1 61/3/1 60/3/1
f 63/3/1 61/3/1 62/3/1
f 69/5/1 65/5/1 64/5/1
f 70/4/1 66/4/1 65/4/1
f 70/5/1 65/5/1 69/5/1
f 71/5/1 67/5/1 66/5/1
f 71/4/1 66/4/1 70/4/1
f 72/4/1 68/4/1 67/4/1
f 72/5/1 67/5/1 71/5/1
f 73/4/1 71/4/1 70/4/1
f 73/4/1 70/4/1 69/4/1
f 73/4/1 72/4/1 71/4/1
f 74/4/1 72/4/1 73/4/1
f 75/4/1 68/4/1 72/4/1
f 75/4/1 72/4/1 74/4/1
f 76/4/1 74/4/1 73/4/1
f 77/5/1 75/5/1 74/5/1
f 77/4/1 74/4/1 76/4/1
f 78/4/1 68/4/1 75/4/1
f 78/5/1 75/5/1 77/5/1
f 79/4/1 77/4/1 76/4/1
f 79/4/1 78/4/1 77/4/1
f 80/4/1 68/4/1 78/4/1
f 80/4/1 78/4/1 79/4/1
f 81/2/1 80/2/1 79/2/1
f 82/2/1 80/2/1 81/2/1
f 85/3/1 84/3/1 83/3/1
f 86/3/1 84/3/1 85/3/1
f 89/3/1 88/3/1 87/3/1
f 90/3/1 88/3/1 89/3/1
f 91/3/2 92/3/2 93/3/2
f 93/3/2 92/3/2 94/3/2
f 95/4/2 96/4/2 99/4/2
f 96/5/2 97/5/2 99/5/2
f 97/4/2 98/4/2 100/4/2
f 99/5/2 97/5/2 100/5/2
f 95/4/2 99/4/2 101/4/2
f 99/4/2 100/4/2 101/4/2
f 101/4/2 100/4/2 102/4/2
f 100/4/2 98/4/2 103/4/2
f 102/4/2 100/4/2 103/4/2
f 103/4/2 98/4/2 104/4/2
f 101/5/2 102/5/2 105/5/2
f 102/4/2 103/4/2 106/4/2
f 105/5/2 102/5/2 106/5/2
f 103/5/2 104/5/2 107/5/2
f 106/4/2 103/4/2 107/4/2
f 107/5/2 104/5/2 108/5/2
f 105/4/2 106/4/2 109/4/2
f 106/4/2 107/4/2 109/4/2
f 107/4/2 108/4/2 109/4/2
f 109/4/2 108/4/2 110/4/2
f 109/2/2 110/2/2 111/2/2
f 111/2/2 110/2/2 112/2/2
f 113/3/2 114/3/2 115/3/2
f 115/3/2 114/3/2 116/3/2
f 117/3/2 118/3/2 119/3/2
f 119/3/2 118/3/2 120/3/2
f 121/3/2 122/3/2 123/3/2
f 123/3/2 122/3/2 124/3/2
f 125/1/2 126/1/2 129/1/2
f 129/1/2 126/1/2 130/1/2
f 127/1/2 128/1/2 131/1/2
f 131/1/2 128/1/2 132/1/2
f 133/3/2 134/3/2 135/3/2
f 135/3/2 134/3/2 136/3/2
f 137/3/2 138/3/2 139/3/2
f 139/3/2 138/3/2 140/3/2
f 141/3/2 142/3/2 143/3/2
f 143/3/2 142/3/2 144/3/2
f 145/4/2 146/4/2 147/4/2
f 147/4/2 146/4/2 148/4/2
f 148/4/2 146/4/2 149/4/2
f 149/4/2 146/4/2 150/4/2
f 147/5/2 148/5/2 151/5/2
f 148/4/2 149/4/2 152/4/2
f 151/5/2 148/5/2 152/5/2
f 149/5/2 150/5/2 153/5/2
f 152/4/2 149/4/2 153/4/2
f 150/4/2 146/4/2 154/4/2
f 153/5/2 150/5/2 154/5/2
f 152/4/2 153/4/2 155/4/2
f 151/4/2 152/4/2 155/4/2
f 153/4/2 154/4/2 155/4/2
f 155/4/2 154/4/2 156/4/2
f 156/4/2 154/4/2 157/4/2
f 154/4/2 146/4/2 158/4/2
f 157/4/2 154/4/2 158/4/2
f 155/5/2 156/5/2 159/5/2
f 156/4/2 157/4/2 160/4/2
f 159/5/2 156/5/2 160/5/2
f 157/5/2 158/5/2 161/5/2
f 160/4/2 157/4/2 161/4/2
f 158/4/2 146/4/2 162/4/2
f 161/5/2 158/5/2 162/5/2
f 160/4/2 161/4/2 163/4/2
f 159/4/2 160/4/2 163/4/2
f 161/4/2 162/4/2 163/4/2
f 162/4/2 146/4/2 164/4/2
f 163/4/2 162/4/2 164/4/2
f 165/3/2 166/3/2 167/3/2
f 167/3/2 166/3/2 168/3/2
f 169/2/2 170/2/2 171/2/2
f 171/2/2 170/2/2 172/2/2
f 173/3/2 174/3/2 175/3/2
f 175/3/2 174/3/2 176/3/2
f 181/3/3 180/3/3 179/3/3
f 182/3/3 180/3/3 181/3/3
f 184/3/3 183/3/3 182/3/3
f 185/3/3 183/3/3 184/3/3
f 187/3/3 186/3/3 185/3/3
f 188/3/3 186/3/3 187/3/3
f 190/2/3 178/2/3 177/2/3
f 191/3/3 189/3/3 188/3/3
f 192/3/3 189/3/3 191/3/3
f 194/2/3 190/2/3 177/2/3
f 194/1/3 191/1/3 190/1/3
f 194/1/3 192/1/3 191/1/3
f 195/1/3 192/1/3 194/1/3
f 196/3/3 193/3/3 192/3/3
f 196/1/3 192/1/3 195/1/3
f 197/3/3 193/3/3 196/3/3
f 199/3/3 196/3/3 195/3/3
f 200/3/3 196/3/3 199/3/3
f 202/3/3 199/3/3 198/3/3
f 203/3/3 199/3/3 202/3/3
f 205/3/3 202/3/3 201/3/3
f 206/3/3 202/3/3 205/3/3
f 207/2/3 194/2/3 177/2/3
f 208/2/3 194/2/3 207/2/3
f 209/3/3 205/3/3 204/3/3
f 210/3/3 205/3/3 209/3/3
f 215/4/3 212/4/3 211/4/3
f 216/5/3 213/5/3 212/5/3
f 216/4/3 212/4/3 215/4/3
f 217/4/3 214/4/3 213/4/3
f 217/5/3 213/5/3 216/5/3
f 218/4/3 214/4/3 217/4/3
f 219/4/3 214/4/3 218/4/3
f 220/5/3 216/5/3 215/5/3
f 221/4/3 217/4/3 216/4/3
f 221/5/3 216/5/3 220/5/3
f 221/4/3 218/4/3 217/4/3
f 222/4/3 218/4/3 221/4/3
f 223/5/3 219/5/3 218/5/3
f 223/4/3 218/4/3 222/4/3
f 224/4/3 214/4/3 219/4/3
f 224/5/3 219/5/3 223/5/3
f 225/4/3 223/4/3 222/4/3
f 225/4/3 214/4/3 224/4/3
f 225/4/3 224/4/3 223/4/3
f 226/4/3 214/4/3 225/4/3
f 227/4/3 221/4/3 220/4/3
f 227/5/3 222/5/3 221/5/3
f 228/4/3 225/4/3 222/4/3
f 228/5/3 222/5/3 227/5/3
f 229/4/3 225/4/3 228/4/3
f 230/5/3 226/5/3 225/5/3
f 230/4/3 225/4/3 229/4/3
f 231/5/3 226/5/3 230/5/3
f 232/4/3 229/4/3 228/4/3
f 232/4/3 227/4/3 220/4/3
f 232/4/3 228/4/3 227/4/3
f 233/4/3 229/4/3 232/4/3
f 234/4/3 232/4/3 220/4/3
f 235/5/3 233/5/3 232/5/3
f 235/4/3 232/4/3 234/4/3
f 236/4/3 229/4/3 233/4/3
f 236/5/3 233/5/3 235/5/3
f 237/5/3 230/5/3 229/5/3
f 237/4/3 229/4/3 236/4/3
f 238/4/3 231/4/3 230/4/3
f 238/5/3 230/5/3 237/5/3
f 239/4/3 231/4/3 238/4/3
f 245/4/3 241/4/3 240/4/3
f 245/4/3 242/4/3 241/4/3
f 245/4/3 243/4/3 242/4/3
f 246/4/3 243/4/3 245/4/3
f 247/4/3 245/4/3 240/4/3
f 247/5/3 246/5/3 245/5/3
f 248/4/3 243/4/3 246/4/3
f 248/5/3 246/5/3 247/5/3
f 249/4/3 247/4/3 240/4/3
f 249/4/3 248/4/3 247/4/3
f 250/2/3 244/2/3 243/2/3
f 250/4/3 248/4/3 249/4/3
f 250/4/3 243/4/3 248/4/3
f 251/2/3 244/2/3 250/2/3
f 255/1/3 253/1/3 252/1/3
f 255/1/3 254/1/3 253/1/3
f 256/1/3 254/1/3 255/1/3
f 257/1/3 254/1/3 256/1/3
f 258/1/4 259/1/4 261/1/4
f 259/1/4 260/1/4 261/1/4
f 261/1/4 260/1/4 262/1/4
f 262/1/4 260/1/4 263/1/4
f 264/4/4 265/4/4 269/4/4
f 269/4/4 265/4/4 270/4/4
f 265/5/4 266/5/4 271/5/4
f 270/4/4 265/4/4 271/4/4
f 266/4/4 267/4/4 272/4/4
f 271/5/4 266/5/4 272/5/4
f 270/4/4 271/4/4 273/4/4
f 272/4/4 267/4/4 273/4/4
f 271/4/4 272/4/4 273/4/4
f 267/2/4 268/2/4 274/2/4
f 273/4/4 267/4/4 274/4/4
f 269/5/4 270/5/4 275/5/4
f 270/4/4 273/4/4 276/4/4
f 275/5/4 270/5/4 276/5/4
f 276/4/4 273/4/4 277/4/4
f 273/5/4 274/5/4 278/5/4
f 277/4/4 273/4/4 278/4/4
f 274/2/4 268/2/4 279/2/4
f 278/5/4 274/5/4 279/5/4
f 276/4/4 277/4/4 280/4/4
f 275/4/4 276/4/4 280/4/4
f 280/4/4 277/4/4 281/4/4
f 277/5/4 278/5/4 282/5/4
f 281/4/4 277/4/4 282/4/4
f 278/4/4 279/4/4 283/4/4
f 282/5/4 278/5/4 283/5/4
f 279/2/4 268/2/4 284/2/4
f 283/4/4 279/4/4 284/4/4
f 284/2/4 268/2/4 285/2/4
f 286/5/4 287/5/4 289/5/4
f 287/4/4 288/4/4 290/4/4
f 289/5/4 287/5/4 290/5/4
f 289/4/4 290/4/4 291/4/4
f 290/4/4 288/4/4 291/4/4
f 291/4/4 288/4/4 292/4/4
f 289/4/4 291/4/4 293/4/4
f 291/5/4 292/5/4 293/5/4
f 292/4/4 288/4/4 294/4/4
f 293/5/4 292/5/4 294/5/4
f 289/4/4 293/4/4 295/4/4
f 293/4/4 294/4/4 295/4/4
f 294/4/4 288/4/4 296/4/4
f 295/4/4 294/4/4 296/4/4
f 299/3/4 300/3/4 301/3/4
f 301/3/4 300/3/4 302/3/4
f 302/3/4 303/3/4 304/3/4
f 304/3/4 303/3/4 305/3/4
f 305/3/4 306/3/4 307/3/4
f 307/3/4 306/3/4 308/3/4
f 297/2/4 298/2/4 310/2/4
f 308/3/4 309/3/4 311/3/4
f 311/3/4 309/3/4 312/3/4
f 297/2/4 310/2/4 314/2/4
f 310/1/4 311/1/4 314/1/4
f 311/1/4 312/1/4 314/1/4
f 314/1/4 312/1/4 315/1/4
f 312/3/4 313/3/4 316/3/4
f 315/1/4 312/1/4 316/1/4
f 316/3/4 313/3/4 317/3/4
f 315/3/4 316/3/4 319/3/4
f 319/3/4 316/3/4 320/3/4
f 318/3/4 319/3/4 322/3/4
f 322/3/4 319/3/4 323/3/4
f 321/3/4 322/3/4 325/3/4
f 325/3/4 322/3/4 326/3/4
f 297/2/4 314/2/4 327/2/4
f 327/2/4 314/2/4 328/2/4
f 324/3/4 325/3/4 329/3/4
f 329/3/4 325/3/4 330/3/4
f 335/4/5 332/4/5 331/4/5
f 335/5/5 333/5/5 332/5/5
f 336/4/5 334/4/5 333/4/5
f 336/5/5 333/5/5 335/5/5
f 337/4/5 334/4/5 336/4/5
f 338/4/5 335/4/5 331/4/5
f 339/6/5 336/6/5 335/6/5
f 339/4/5 335/4/5 338/4/5
f 339/6/5 337/6/5 336/6/5
f 340/5/5 339/5/5 338/5/5
f 340/6/5 337/6/5 339/6/5
f 341/4/5 334/4/5 337/4/5
f 341/6/5 337/6/5 340/6/5
f 342/5/5 340/5/5 338/5/5
f 343/4/5 341/4/5 340/4/5
f 343/5/5 340/5/5 342/5/5
f 344/4/5 334/4/5 341/4/5
f 344/4/5 341/4/5 343/4/5
f 347/2/5 346/2/5 345/2/5
f 348/2/5 346/2/5 347/2/5
f 349/2/5 346/2/5 348/2/5
f 350/2/5 346/2/5 349/2/5
f 351/2/5 347/2/5 345/2/5
f 352/2/5 346/2/5 350/2/5
f 353/2/5 351/2/5 345/2/5
f 353/2/5 352/2/5 351/2/5
f 354/2/5 346/2/5 352/2/5
f 354/2/5 352/2/5 353/2/5
f 359/3/5 356/3/5 355/3/5
f 360/3/5 356/3/5 359/3/5
f 361/3/5 358/3/5 357/3/5
f 362/3/5 358/3/5 361/3/5
f 367/3/5 364/3/5 363/3/5
f 368/3/5 364/3/5 367/3/5
f 369/3/5 366/3/5 365/3/5
f 370/3/5 366/3/5 369/3/5
f 375/3/5 372/3/5 371/3/5
f 376/3/5 372/3/5 375/3/5
f 377/3/5 374/3/5 373/3/5
f 378/3/5 374/3/5 377/3/5
f 383/3/5 380/3/5 379/3/5
f 384/3/5 382/3/5 381/3/5
f 385/3/5 383/3/5 379/3/5
f 386/3/5 382/3/5 384/3/5
f 387/3/5 385/3/5 379/3/5
f 388/3/5 385/3/5 387/3/5
f 389/3/5 382/3/5 386/3/5
f 390/3/5 382/3/5 389/3/5
f 393/3/5 392/3/5 391/3/5
f 394/3/5 392/3/5 393/3/5
f 395/6/6 396/6/6 399/6/6
f 397/6/6 398/6/6 399/6/6
f 396/6/6 397/6/6 399/6/6
f 399/6/6 398/6/6 400/6/6
f 399/6/6 400/6/6 401/6/6
f 399/6/6 401/6/6 402/6/6
f 402/6/6 401/6/6 403/6/6
f 402/6/6 403/6/6 404/6/6
f 404/6/6 403/6/6 405/6/6
f 406/2/6 407/2/6 410/2/6
f 408/2/6 409/2/6 411/2/6
f 406/2/6 410/2/6 412/2/6
f 410/2/6 411/2/6 412/2/6
f 411/2/6 409/2/6 413/2/6
f 412/2/6 411/2/6 413/2/6
f 406/2/6 412/2/6 414/2/6
f 413/2/6 409/2/6 415/2/6
f 414/2/6 415/2/6 416/2/6
f 416/2/6 415/2/6 417/2/6
f 406/2/6 414/2/6 418/2/6
f 414/2/6 416/2/6 418/2/6
f 418/2/6 416/2/6 419/2/6
f 417/2/6 415/2/6 420/2/6
f 415/2/6 409/2/6 421/2/6
f 420/2/6 415/2/6 421/2/6
f 422/3/6 423/3/6 426/3/6
f 426/3/6 423/3/6 427/3/6
f 424/3/6 425/3/6 428/3/6
f 428/3/6 425/3/6 429/3/6
f 430/3/6 431/3/6 434/3/6
f 434/3/6 431/3/6 435/3/6
f 432/3/6 433/3/6 436/3/6
f 436/3/6 433/3/6 437/3/6
f 438/3/6 439/3/6 442/3/6
f 442/3/6 439/3/6 443/3/6
f 440/3/6 441/3/6 444/3/6
f 444/3/6 441/3/6 445/3/6
f 446/3/6 447/3/6 450/3/6
f 450/3/6 447/3/6 451/3/6
f 448/3/6 449/3/6 452/3/6
f 452/3/6 449/3/6 453/3/6
f 454/3/6 455/3/6 456/3/6
f 456/3/6 455/3/6 457/3/6
