# MagicaVoxel @ Ephtracy

# group
o TarroBasura

# material
mtllib Asset-28-TarroBasura.mtl
usemtl palette

# normals
vn 1 0 0
vn -1 0 0
vn 0 0 -1
vn 0 0 1
vn 0 -1 0
vn 0 1 0

# texcoords
vt 0.794922 0.5
vt 0.798828 0.5
vt 0.814453 0.5
vt 0.830078 0.5
vt 0.884766 0.5
vt 0.912109 0.5

# verts
v -41.1 1.4 43.5
v -41.1 1.4 43.6
v -41.1 1.4 43.7
v -41.1 1.4 43.8
v -41.1 2 43.5
v -41.1 2 43.6
v -41.1 2 43.7
v -41.1 2 43.8
v -41.2 1.4 43.4
v -41.2 1.4 43.5
v -41.2 1.4 43.8
v -41.2 1.4 43.9
v -41.2 2 43.4
v -41.2 2 43.5
v -41.2 2 43.6
v -41.2 2 43.7
v -41.2 2 43.8
v -41.2 2 43.9
v -41.2 2.1 43.4
v -41.2 2.1 43.9
v -41.3 1.4 43.3
v -41.3 1.4 43.4
v -41.3 1.4 43.9
v -41.3 1.4 44
v -41.3 2 43.3
v -41.3 2 43.4
v -41.3 2 43.9
v -41.3 2 44
v -41.4 2.1 43.6
v -41.4 2.1 43.7
v -41.4 2.2 43.6
v -41.4 2.2 43.7
v -41.6 1.5 43.5
v -41.6 1.5 43.8
v -41.6 2 43.5
v -41.6 2 43.8
v -41.3 1.5 43.5
v -41.3 1.5 43.8
v -41.3 2 43.5
v -41.3 2 43.8
v -41.5 2.1 43.6
v -41.5 2.1 43.7
v -41.5 2.2 43.6
v -41.5 2.2 43.7
v -41.6 1.4 43.3
v -41.6 1.4 43.4
v -41.6 1.4 43.9
v -41.6 1.4 44
v -41.6 2 43.3
v -41.6 2 43.4
v -41.6 2 43.9
v -41.6 2 44
v -41.7 1.4 43.4
v -41.7 1.4 43.5
v -41.7 1.4 43.8
v -41.7 1.4 43.9
v -41.7 2 43.4
v -41.7 2 43.5
v -41.7 2 43.6
v -41.7 2 43.7
v -41.7 2 43.8
v -41.7 2 43.9
v -41.7 2.1 43.4
v -41.7 2.1 43.9
v -41.8 1.4 43.5
v -41.8 1.4 43.6
v -41.8 1.4 43.7
v -41.8 1.4 43.8
v -41.8 2 43.5
v -41.8 2 43.6
v -41.8 2 43.7
v -41.8 2 43.8
v -41.3 1.4 43.3
v -41.3 2 43.3
v -41.4 1.4 43.3
v -41.4 2 43.3
v -41.5 1.4 43.3
v -41.5 2 43.3
v -41.6 1.4 43.3
v -41.6 2 43.3
v -41.2 1.4 43.4
v -41.2 2 43.4
v -41.2 2.1 43.4
v -41.3 1.4 43.4
v -41.3 2 43.4
v -41.4 2 43.4
v -41.5 2 43.4
v -41.6 1.4 43.4
v -41.6 2 43.4
v -41.7 1.4 43.4
v -41.7 2 43.4
v -41.7 2.1 43.4
v -41.1 1.4 43.5
v -41.1 2 43.5
v -41.2 1.4 43.5
v -41.2 2 43.5
v -41.7 1.4 43.5
v -41.7 2 43.5
v -41.8 1.4 43.5
v -41.8 2 43.5
v -41.4 2.1 43.6
v -41.4 2.2 43.6
v -41.5 2.1 43.6
v -41.5 2.2 43.6
v -41.3 1.5 43.8
v -41.3 2 43.8
v -41.6 1.5 43.8
v -41.6 2 43.8
v -41.3 1.5 43.5
v -41.3 2 43.5
v -41.6 1.5 43.5
v -41.6 2 43.5
v -41.4 2.1 43.7
v -41.4 2.2 43.7
v -41.5 2.1 43.7
v -41.5 2.2 43.7
v -41.1 1.4 43.8
v -41.1 2 43.8
v -41.2 1.4 43.8
v -41.2 2 43.8
v -41.7 1.4 43.8
v -41.7 2 43.8
v -41.8 1.4 43.8
v -41.8 2 43.8
v -41.2 1.4 43.9
v -41.2 2 43.9
v -41.2 2.1 43.9
v -41.3 1.4 43.9
v -41.3 2 43.9
v -41.4 2 43.9
v -41.5 2 43.9
v -41.6 1.4 43.9
v -41.6 2 43.9
v -41.7 1.4 43.9
v -41.7 2 43.9
v -41.7 2.1 43.9
v -41.3 1.4 44
v -41.3 2 44
v -41.4 1.4 44
v -41.4 2 44
v -41.5 1.4 44
v -41.5 2 44
v -41.6 1.4 44
v -41.6 2 44
v -41.3 1.4 43.3
v -41.4 1.4 43.3
v -41.5 1.4 43.3
v -41.6 1.4 43.3
v -41.2 1.4 43.4
v -41.3 1.4 43.4
v -41.4 1.4 43.4
v -41.5 1.4 43.4
v -41.6 1.4 43.4
v -41.7 1.4 43.4
v -41.1 1.4 43.5
v -41.2 1.4 43.5
v -41.3 1.4 43.5
v -41.6 1.4 43.5
v -41.7 1.4 43.5
v -41.8 1.4 43.5
v -41.1 1.4 43.6
v -41.2 1.4 43.6
v -41.7 1.4 43.6
v -41.8 1.4 43.6
v -41.1 1.4 43.7
v -41.2 1.4 43.7
v -41.7 1.4 43.7
v -41.8 1.4 43.7
v -41.1 1.4 43.8
v -41.2 1.4 43.8
v -41.3 1.4 43.8
v -41.6 1.4 43.8
v -41.7 1.4 43.8
v -41.8 1.4 43.8
v -41.2 1.4 43.9
v -41.3 1.4 43.9
v -41.4 1.4 43.9
v -41.5 1.4 43.9
v -41.6 1.4 43.9
v -41.7 1.4 43.9
v -41.3 1.4 44
v -41.4 1.4 44
v -41.5 1.4 44
v -41.6 1.4 44
v -41.3 2 43.5
v -41.6 2 43.5
v -41.3 2 43.8
v -41.6 2 43.8
v -41.3 1.5 43.5
v -41.6 1.5 43.5
v -41.3 1.5 43.8
v -41.6 1.5 43.8
v -41.3 2 43.3
v -41.4 2 43.3
v -41.5 2 43.3
v -41.6 2 43.3
v -41.3 2 43.4
v -41.4 2 43.4
v -41.5 2 43.4
v -41.6 2 43.4
v -41.1 2 43.5
v -41.2 2 43.5
v -41.7 2 43.5
v -41.8 2 43.5
v -41.1 2 43.6
v -41.2 2 43.6
v -41.7 2 43.6
v -41.8 2 43.6
v -41.1 2 43.7
v -41.2 2 43.7
v -41.7 2 43.7
v -41.8 2 43.7
v -41.1 2 43.8
v -41.2 2 43.8
v -41.7 2 43.8
v -41.8 2 43.8
v -41.3 2 43.9
v -41.4 2 43.9
v -41.5 2 43.9
v -41.6 2 43.9
v -41.3 2 44
v -41.4 2 44
v -41.5 2 44
v -41.6 2 44
v -41.2 2.1 43.4
v -41.7 2.1 43.4
v -41.4 2.1 43.6
v -41.5 2.1 43.6
v -41.4 2.1 43.7
v -41.5 2.1 43.7
v -41.2 2.1 43.9
v -41.7 2.1 43.9
v -41.4 2.2 43.6
v -41.5 2.2 43.6
v -41.4 2.2 43.7
v -41.5 2.2 43.7

# faces
f 5/4/1 2/4/1 1/4/1
f 6/5/1 3/5/1 2/5/1
f 6/4/1 2/4/1 5/4/1
f 7/4/1 4/4/1 3/4/1
f 7/5/1 3/5/1 6/5/1
f 8/4/1 4/4/1 7/4/1
f 13/2/1 10/2/1 9/2/1
f 14/2/1 10/2/1 13/2/1
f 17/2/1 12/2/1 11/2/1
f 18/2/1 12/2/1 17/2/1
f 19/1/1 16/1/1 15/1/1
f 19/1/1 14/1/1 13/1/1
f 19/1/1 18/1/1 17/1/1
f 19/1/1 17/1/1 16/1/1
f 19/1/1 15/1/1 14/1/1
f 20/1/1 18/1/1 19/1/1
f 25/4/1 22/4/1 21/4/1
f 26/4/1 22/4/1 25/4/1
f 27/4/1 24/4/1 23/4/1
f 28/4/1 24/4/1 27/4/1
f 31/5/1 30/5/1 29/5/1
f 32/5/1 30/5/1 31/5/1
f 35/6/1 34/6/1 33/6/1
f 36/6/1 34/6/1 35/6/1
f 37/6/2 38/6/2 39/6/2
f 39/6/2 38/6/2 40/6/2
f 41/5/2 42/5/2 43/5/2
f 43/5/2 42/5/2 44/5/2
f 45/4/2 46/4/2 49/4/2
f 49/4/2 46/4/2 50/4/2
f 47/4/2 48/4/2 51/4/2
f 51/4/2 48/4/2 52/4/2
f 53/2/2 54/2/2 57/2/2
f 57/2/2 54/2/2 58/2/2
f 55/2/2 56/2/2 61/2/2
f 61/2/2 56/2/2 62/2/2
f 59/1/2 60/1/2 63/1/2
f 57/1/2 58/1/2 63/1/2
f 61/1/2 62/1/2 63/1/2
f 60/1/2 61/1/2 63/1/2
f 58/1/2 59/1/2 63/1/2
f 63/1/2 62/1/2 64/1/2
f 65/4/2 66/4/2 69/4/2
f 66/5/2 67/5/2 70/5/2
f 69/4/2 66/4/2 70/4/2
f 67/4/2 68/4/2 71/4/2
f 70/5/2 67/5/2 71/5/2
f 71/4/2 68/4/2 72/4/2
f 75/4/3 74/4/3 73/4/3
f 76/4/3 74/4/3 75/4/3
f 77/5/3 76/5/3 75/5/3
f 78/5/3 76/5/3 77/5/3
f 79/4/3 78/4/3 77/4/3
f 80/4/3 78/4/3 79/4/3
f 84/2/3 82/2/3 81/2/3
f 85/1/3 83/1/3 82/1/3
f 85/2/3 82/2/3 84/2/3
f 86/1/3 83/1/3 85/1/3
f 87/1/3 83/1/3 86/1/3
f 89/1/3 83/1/3 87/1/3
f 90/2/3 89/2/3 88/2/3
f 91/1/3 83/1/3 89/1/3
f 91/2/3 89/2/3 90/2/3
f 92/1/3 83/1/3 91/1/3
f 95/4/3 94/4/3 93/4/3
f 96/4/3 94/4/3 95/4/3
f 99/4/3 98/4/3 97/4/3
f 100/4/3 98/4/3 99/4/3
f 103/5/3 102/5/3 101/5/3
f 104/5/3 102/5/3 103/5/3
f 107/6/3 106/6/3 105/6/3
f 108/6/3 106/6/3 107/6/3
f 109/6/4 110/6/4 111/6/4
f 111/6/4 110/6/4 112/6/4
f 113/5/4 114/5/4 115/5/4
f 115/5/4 114/5/4 116/5/4
f 117/4/4 118/4/4 119/4/4
f 119/4/4 118/4/4 120/4/4
f 121/4/4 122/4/4 123/4/4
f 123/4/4 122/4/4 124/4/4
f 125/2/4 126/2/4 128/2/4
f 126/1/4 127/1/4 129/1/4
f 128/2/4 126/2/4 129/2/4
f 129/1/4 127/1/4 130/1/4
f 130/1/4 127/1/4 131/1/4
f 131/1/4 127/1/4 133/1/4
f 132/2/4 133/2/4 134/2/4
f 133/1/4 127/1/4 135/1/4
f 134/2/4 133/2/4 135/2/4
f 135/1/4 127/1/4 136/1/4
f 137/4/4 138/4/4 139/4/4
f 139/4/4 138/4/4 140/4/4
f 139/5/4 140/5/4 141/5/4
f 141/5/4 140/5/4 142/5/4
f 141/4/4 142/4/4 143/4/4
f 143/4/4 142/4/4 144/4/4
f 150/4/5 146/4/5 145/4/5
f 151/5/5 147/5/5 146/5/5
f 151/4/5 146/4/5 150/4/5
f 152/4/5 148/4/5 147/4/5
f 152/5/5 147/5/5 151/5/5
f 153/4/5 148/4/5 152/4/5
f 156/2/5 150/2/5 149/2/5
f 157/3/5 151/3/5 150/3/5
f 157/3/5 152/3/5 151/3/5
f 157/2/5 150/2/5 156/2/5
f 157/3/5 153/3/5 152/3/5
f 158/2/5 154/2/5 153/2/5
f 158/3/5 153/3/5 157/3/5
f 159/2/5 154/2/5 158/2/5
f 161/4/5 156/4/5 155/4/5
f 162/3/5 157/3/5 156/3/5
f 162/4/5 156/4/5 161/4/5
f 163/4/5 160/4/5 159/4/5
f 163/3/5 159/3/5 158/3/5
f 164/4/5 160/4/5 163/4/5
f 165/5/5 162/5/5 161/5/5
f 166/3/5 157/3/5 162/3/5
f 166/5/5 162/5/5 165/5/5
f 167/3/5 163/3/5 158/3/5
f 167/5/5 164/5/5 163/5/5
f 168/5/5 164/5/5 167/5/5
f 169/4/5 166/4/5 165/4/5
f 170/3/5 157/3/5 166/3/5
f 170/4/5 166/4/5 169/4/5
f 171/6/5 158/6/5 157/6/5
f 171/3/5 157/3/5 170/3/5
f 172/3/5 167/3/5 158/3/5
f 172/6/5 158/6/5 171/6/5
f 173/4/5 168/4/5 167/4/5
f 173/3/5 167/3/5 172/3/5
f 174/4/5 168/4/5 173/4/5
f 175/2/5 171/2/5 170/2/5
f 176/3/5 172/3/5 171/3/5
f 176/2/5 171/2/5 175/2/5
f 177/3/5 172/3/5 176/3/5
f 178/3/5 172/3/5 177/3/5
f 179/2/5 173/2/5 172/2/5
f 179/3/5 172/3/5 178/3/5
f 180/2/5 173/2/5 179/2/5
f 181/4/5 177/4/5 176/4/5
f 182/5/5 178/5/5 177/5/5
f 182/4/5 177/4/5 181/4/5
f 183/4/5 179/4/5 178/4/5
f 183/5/5 178/5/5 182/5/5
f 184/4/5 179/4/5 183/4/5
f 187/1/5 186/1/5 185/1/5
f 188/1/5 186/1/5 187/1/5
f 189/6/6 190/6/6 191/6/6
f 191/6/6 190/6/6 192/6/6
f 193/4/6 194/4/6 197/4/6
f 194/5/6 195/5/6 198/5/6
f 197/4/6 194/4/6 198/4/6
f 195/4/6 196/4/6 199/4/6
f 198/5/6 195/5/6 199/5/6
f 199/4/6 196/4/6 200/4/6
f 201/4/6 202/4/6 205/4/6
f 205/4/6 202/4/6 206/4/6
f 203/4/6 204/4/6 207/4/6
f 207/4/6 204/4/6 208/4/6
f 205/5/6 206/5/6 209/5/6
f 209/5/6 206/5/6 210/5/6
f 207/5/6 208/5/6 211/5/6
f 211/5/6 208/5/6 212/5/6
f 209/4/6 210/4/6 213/4/6
f 213/4/6 210/4/6 214/4/6
f 211/4/6 212/4/6 215/4/6
f 215/4/6 212/4/6 216/4/6
f 217/4/6 218/4/6 221/4/6
f 218/5/6 219/5/6 222/5/6
f 221/4/6 218/4/6 222/4/6
f 219/4/6 220/4/6 223/4/6
f 222/5/6 219/5/6 223/5/6
f 223/4/6 220/4/6 224/4/6
f 225/1/6 226/1/6 227/1/6
f 227/1/6 226/1/6 228/1/6
f 225/1/6 227/1/6 229/1/6
f 228/1/6 226/1/6 230/1/6
f 225/1/6 229/1/6 231/1/6
f 229/1/6 230/1/6 231/1/6
f 230/1/6 226/1/6 232/1/6
f 231/1/6 230/1/6 232/1/6
f 233/5/6 234/5/6 235/5/6
f 235/5/6 234/5/6 236/5/6
