# MagicaVoxel @ Ephtracy

# group
o Arbol2

# material
mtllib Asset-11-Arbol2.mtl
usemtl palette

# normals
vn -1 0 0
vn 1 0 0
vn 0 0 1
vn 0 0 -1
vn 0 -1 0
vn 0 1 0

# texcoords
vt 0.751953 0.5
vt 0.755859 0.5
vt 0.759766 0.5
vt 0.763672 0.5

# verts
v -28.3 2.6 29.7
v -28.3 2.6 29.6
v -28.3 2.6 29.1
v -28.3 2.6 29
v -28.3 2.8 29.6
v -28.3 2.8 29.3
v -28.3 2.8 29.1
v -28.3 2.8 29
v -28.3 2.9 29.7
v -28.3 2.9 29.6
v -28.3 2.9 29.3
v -28.3 2.9 29.1
v -28.2 2.5 29.6
v -28.2 2.5 29.1
v -28.2 2.6 29.6
v -28.2 2.6 29.1
v -28.2 2.8 29.6
v -28.2 2.8 29.3
v -28.2 2.9 29.6
v -28.2 2.9 29.3
v -28.2 2.9 29.1
v -28.2 3 29.6
v -28.2 3 29.5
v -28.2 3.1 29.5
v -28.2 3.1 29.2
v -28.2 3.1 29.1
v -28.2 3.2 29.4
v -28.2 3.2 29.2
v -28.2 3.3 29.6
v -28.2 3.3 29.4
v -28.1 3.2 29.4
v -28.1 3.2 29.3
v -28.1 3.3 29.5
v -28.1 3.3 29.4
v -28.1 3.4 29.5
v -28.1 3.4 29.3
v -28 1.4 29.5
v -28 1.4 29.4
v -28 1.6 29.5
v -28 1.6 29.4
v -28 1.7 29.5
v -28 1.7 29.4
v -28 1.9 29.5
v -28 1.9 29.4
v -28 2 29.4
v -28 2 29.3
v -28 2.1 29.5
v -28 2.1 29.4
v -28 2.1 29.3
v -28 2.2 29.4
v -28 2.2 29.3
v -28 2.5 29.4
v -28 2.5 29.3
v -28 3.4 29.5
v -28 3.4 29.3
v -28 3.5 29.5
v -28 3.5 29.4
v -28 3.6 29.4
v -28 3.6 29.3
v -27.9 2.8 29.7
v -27.9 2.8 29.6
v -27.9 2.9 29.7
v -27.9 2.9 29.6
v -27.9 3.2 29.3
v -27.9 3.2 29.2
v -27.9 3.3 29.3
v -27.9 3.3 29.2
v -27.8 2.7 29.1
v -27.8 2.7 29
v -27.8 2.8 29.1
v -27.8 2.8 29
v -28.2 2.7 29.1
v -28.2 2.7 29
v -28.2 2.8 29.7
v -28.2 2.8 29.6
v -28.2 2.8 29.1
v -28.2 2.8 29
v -28.2 2.9 29.7
v -28.2 2.9 29.6
v -28.1 3 29.2
v -28.1 3 29.1
v -28.1 3.1 29.2
v -28.1 3.1 29.1
v -27.9 1.4 29.5
v -27.9 1.4 29.4
v -27.9 1.6 29.5
v -27.9 1.6 29.4
v -27.9 1.7 29.5
v -27.9 1.7 29.4
v -27.9 1.9 29.5
v -27.9 1.9 29.4
v -27.9 2 29.4
v -27.9 2 29.3
v -27.9 2.1 29.5
v -27.9 2.1 29.4
v -27.9 2.1 29.3
v -27.9 2.2 29.4
v -27.9 2.2 29.3
v -27.9 2.5 29.4
v -27.9 2.5 29.3
v -27.8 3.1 29.6
v -27.8 3.1 29.5
v -27.8 3.2 29.5
v -27.8 3.2 29.3
v -27.8 3.3 29.6
v -27.8 3.3 29.5
v -27.8 3.3 29.3
v -27.8 3.5 29.5
v -27.8 3.5 29.4
v -27.8 3.6 29.4
v -27.8 3.6 29.3
v -27.7 2.5 29.6
v -27.7 2.5 29.1
v -27.7 2.6 29.6
v -27.7 2.6 29.1
v -27.7 2.7 29.3
v -27.7 2.7 29
v -27.7 2.8 29.3
v -27.7 2.8 29.1
v -27.7 2.8 29
v -27.7 2.9 29.6
v -27.7 2.9 29.3
v -27.7 2.9 29.1
v -27.7 3 29.6
v -27.7 3 29.5
v -27.7 3 29.2
v -27.7 3 29.1
v -27.7 3.1 29.6
v -27.7 3.1 29.5
v -27.7 3.1 29.2
v -27.7 3.2 29.5
v -27.7 3.2 29.3
v -27.7 3.3 29.3
v -27.7 3.3 29.2
v -27.6 2.6 29.7
v -27.6 2.6 29
v -27.6 2.7 29.7
v -27.6 2.7 29.3
v -27.6 2.7 29
v -27.6 2.8 29.7
v -27.6 2.8 29.3
v -27.6 2.9 29.7
v -27.6 2.9 29.3
v -28.3 2.6 29.7
v -28.3 2.9 29.7
v -28.2 2.8 29.7
v -28.2 2.9 29.7
v -27.9 2.8 29.7
v -27.9 2.9 29.7
v -27.7 2.7 29.7
v -27.7 2.8 29.7
v -27.6 2.6 29.7
v -27.6 2.7 29.7
v -27.6 2.8 29.7
v -27.6 2.9 29.7
v -28.2 2.5 29.6
v -28.2 2.6 29.6
v -28.2 2.8 29.6
v -28.2 2.9 29.6
v -28.2 3 29.6
v -28.2 3.3 29.6
v -27.9 2.8 29.6
v -27.9 2.9 29.6
v -27.8 3.1 29.6
v -27.8 3.3 29.6
v -27.7 2.5 29.6
v -27.7 2.6 29.6
v -27.7 2.9 29.6
v -27.7 3 29.6
v -27.7 3.1 29.6
v -28.1 3.3 29.5
v -28.1 3.4 29.5
v -28 1.4 29.5
v -28 1.6 29.5
v -28 1.7 29.5
v -28 1.9 29.5
v -28 2.1 29.5
v -28 3.4 29.5
v -28 3.5 29.5
v -27.9 1.4 29.5
v -27.9 1.6 29.5
v -27.9 1.7 29.5
v -27.9 1.9 29.5
v -27.9 2.1 29.5
v -27.8 3.1 29.5
v -27.8 3.2 29.5
v -27.8 3.3 29.5
v -27.8 3.5 29.5
v -27.7 3.1 29.5
v -27.7 3.2 29.5
v -28 2.1 29.4
v -28 2.2 29.4
v -28 2.5 29.4
v -28 3.5 29.4
v -28 3.6 29.4
v -27.9 2.1 29.4
v -27.9 2.2 29.4
v -27.9 2.5 29.4
v -27.8 3.5 29.4
v -27.8 3.6 29.4
v -28.3 2.8 29.3
v -28.3 2.9 29.3
v -28.2 2.8 29.3
v -28.2 2.9 29.3
v -27.8 3.2 29.3
v -27.8 3.3 29.3
v -27.7 3.2 29.3
v -27.7 3.3 29.3
v -28.3 2.8 29.6
v -28.3 2.9 29.6
v -28.2 2.8 29.6
v -28.2 2.9 29.6
v -28.2 3.2 29.4
v -28.2 3.3 29.4
v -28.1 3.2 29.4
v -28.1 3.3 29.4
v -28 1.4 29.4
v -28 1.6 29.4
v -28 1.7 29.4
v -28 1.9 29.4
v -28 2 29.4
v -27.9 1.4 29.4
v -27.9 1.6 29.4
v -27.9 1.7 29.4
v -27.9 1.9 29.4
v -27.9 2 29.4
v -28.1 3.2 29.3
v -28.1 3.4 29.3
v -28 2 29.3
v -28 2.1 29.3
v -28 2.2 29.3
v -28 2.5 29.3
v -28 3.4 29.3
v -28 3.6 29.3
v -27.9 2 29.3
v -27.9 2.1 29.3
v -27.9 2.2 29.3
v -27.9 2.5 29.3
v -27.9 3.2 29.3
v -27.9 3.3 29.3
v -27.8 3.3 29.3
v -27.8 3.6 29.3
v -27.7 2.7 29.3
v -27.7 2.8 29.3
v -27.7 2.9 29.3
v -27.6 2.7 29.3
v -27.6 2.8 29.3
v -27.6 2.9 29.3
v -28.2 3.1 29.2
v -28.2 3.2 29.2
v -28.1 3 29.2
v -28.1 3.1 29.2
v -27.9 3.2 29.2
v -27.9 3.3 29.2
v -27.7 3 29.2
v -27.7 3.1 29.2
v -27.7 3.3 29.2
v -28.3 2.8 29.1
v -28.3 2.9 29.1
v -28.2 2.5 29.1
v -28.2 2.6 29.1
v -28.2 2.7 29.1
v -28.2 2.8 29.1
v -28.2 2.9 29.1
v -28.2 3.1 29.1
v -28.1 3 29.1
v -28.1 3.1 29.1
v -27.8 2.7 29.1
v -27.8 2.8 29.1
v -27.7 2.5 29.1
v -27.7 2.6 29.1
v -27.7 2.8 29.1
v -27.7 2.9 29.1
v -27.7 3 29.1
v -28.3 2.6 29
v -28.3 2.8 29
v -28.2 2.7 29
v -28.2 2.8 29
v -27.8 2.7 29
v -27.8 2.8 29
v -27.7 2.7 29
v -27.7 2.8 29
v -27.6 2.6 29
v -27.6 2.7 29
v -28 1.4 29.5
v -27.9 1.4 29.5
v -28 1.4 29.4
v -27.9 1.4 29.4
v -28 2 29.4
v -27.9 2 29.4
v -28 2 29.3
v -27.9 2 29.3
v -28.2 2.5 29.6
v -27.7 2.5 29.6
v -28 2.5 29.4
v -27.9 2.5 29.4
v -28 2.5 29.3
v -27.9 2.5 29.3
v -28.2 2.5 29.1
v -27.7 2.5 29.1
v -28.3 2.6 29.7
v -27.6 2.6 29.7
v -28.3 2.6 29.6
v -28.2 2.6 29.6
v -27.7 2.6 29.6
v -28.3 2.6 29.1
v -28.2 2.6 29.1
v -27.7 2.6 29.1
v -28.3 2.6 29
v -27.6 2.6 29
v -28 2.1 29.5
v -27.9 2.1 29.5
v -28 2.1 29.4
v -27.9 2.1 29.4
v -27.7 2.7 29.3
v -27.6 2.7 29.3
v -28.2 2.7 29.1
v -27.8 2.7 29.1
v -28.2 2.7 29
v -27.8 2.7 29
v -27.7 2.7 29
v -27.6 2.7 29
v -28.2 2.8 29.7
v -27.9 2.8 29.7
v -28.3 2.8 29.6
v -28.2 2.8 29.6
v -27.9 2.8 29.6
v -28.3 2.8 29.3
v -28.2 2.8 29.3
v -28.3 2.8 29.1
v -28.2 2.8 29.1
v -27.8 2.8 29.1
v -27.7 2.8 29.1
v -28.3 2.8 29
v -28.2 2.8 29
v -27.8 2.8 29
v -27.7 2.8 29
v -28.3 2.9 29.7
v -28.2 2.9 29.7
v -27.9 2.9 29.7
v -27.6 2.9 29.7
v -28.3 2.9 29.6
v -28.2 2.9 29.6
v -27.9 2.9 29.6
v -27.7 2.9 29.6
v -28.3 2.9 29.3
v -28.2 2.9 29.3
v -27.7 2.9 29.3
v -27.6 2.9 29.3
v -28.3 2.9 29.1
v -28.2 2.9 29.1
v -28.1 3 29.2
v -27.7 3 29.2
v -28.1 3 29.1
v -27.7 3 29.1
v -27.8 3.1 29.6
v -27.7 3.1 29.6
v -27.8 3.1 29.5
v -27.7 3.1 29.5
v -28.2 3.1 29.2
v -28.1 3.1 29.2
v -28.2 3.1 29.1
v -28.1 3.1 29.1
v -27.8 3.2 29.5
v -27.7 3.2 29.5
v -28.2 3.2 29.4
v -28.1 3.2 29.4
v -28.1 3.2 29.3
v -27.9 3.2 29.3
v -27.8 3.2 29.3
v -27.7 3.2 29.3
v -28.2 3.2 29.2
v -27.9 3.2 29.2
v -28.2 3.3 29.6
v -27.8 3.3 29.6
v -28.1 3.3 29.5
v -27.8 3.3 29.5
v -28.2 3.3 29.4
v -28.1 3.3 29.4
v -27.9 3.3 29.3
v -27.8 3.3 29.3
v -27.7 3.3 29.3
v -27.9 3.3 29.2
v -27.7 3.3 29.2
v -28.1 3.4 29.5
v -28 3.4 29.5
v -28.1 3.4 29.3
v -28 3.4 29.3
v -28 3.5 29.5
v -27.8 3.5 29.5
v -28 3.5 29.4
v -27.8 3.5 29.4
v -28 3.6 29.4
v -27.8 3.6 29.4
v -28 3.6 29.3
v -27.8 3.6 29.3

# faces
f 5/2/1 2/2/1 1/2/1
f 5/4/1 3/4/1 2/4/1
f 6/4/1 3/4/1 5/4/1
f 7/2/1 4/2/1 3/2/1
f 7/4/1 3/4/1 6/4/1
f 8/2/1 4/2/1 7/2/1
f 9/2/1 5/2/1 1/2/1
f 10/2/1 5/2/1 9/2/1
f 11/2/1 7/2/1 6/2/1
f 12/2/1 7/2/1 11/2/1
f 15/1/1 14/1/1 13/1/1
f 16/1/1 14/1/1 15/1/1
f 19/2/1 18/2/1 17/2/1
f 20/2/1 18/2/1 19/2/1
f 22/4/1 20/4/1 19/4/1
f 22/4/1 21/4/1 20/4/1
f 23/4/1 21/4/1 22/4/1
f 24/2/1 23/2/1 22/2/1
f 24/4/1 21/4/1 23/4/1
f 25/4/1 21/4/1 24/4/1
f 26/4/1 21/4/1 25/4/1
f 27/2/1 25/2/1 24/2/1
f 28/2/1 25/2/1 27/2/1
f 29/2/1 24/2/1 22/2/1
f 29/2/1 27/2/1 24/2/1
f 30/2/1 27/2/1 29/2/1
f 34/2/1 32/2/1 31/2/1
f 35/2/1 34/2/1 33/2/1
f 36/2/1 32/2/1 34/2/1
f 36/2/1 34/2/1 35/2/1
f 39/1/1 38/1/1 37/1/1
f 40/1/1 38/1/1 39/1/1
f 41/3/1 40/3/1 39/3/1
f 42/3/1 40/3/1 41/3/1
f 43/1/1 42/1/1 41/1/1
f 44/1/1 42/1/1 43/1/1
f 45/3/1 44/3/1 43/3/1
f 47/3/1 45/3/1 43/3/1
f 48/1/1 46/1/1 45/1/1
f 48/3/1 45/3/1 47/3/1
f 49/1/1 46/1/1 48/1/1
f 50/3/1 49/3/1 48/3/1
f 51/3/1 49/3/1 50/3/1
f 52/1/1 51/1/1 50/1/1
f 53/1/1 51/1/1 52/1/1
f 56/2/1 55/2/1 54/2/1
f 57/2/1 55/2/1 56/2/1
f 58/2/1 55/2/1 57/2/1
f 59/2/1 55/2/1 58/2/1
f 62/2/1 61/2/1 60/2/1
f 63/2/1 61/2/1 62/2/1
f 66/2/1 65/2/1 64/2/1
f 67/2/1 65/2/1 66/2/1
f 70/2/1 69/2/1 68/2/1
f 71/2/1 69/2/1 70/2/1
f 72/2/2 73/2/2 76/2/2
f 76/2/2 73/2/2 77/2/2
f 74/2/2 75/2/2 78/2/2
f 78/2/2 75/2/2 79/2/2
f 80/4/2 81/4/2 82/4/2
f 82/4/2 81/4/2 83/4/2
f 84/1/2 85/1/2 86/1/2
f 86/1/2 85/1/2 87/1/2
f 86/3/2 87/3/2 88/3/2
f 88/3/2 87/3/2 89/3/2
f 88/1/2 89/1/2 90/1/2
f 90/1/2 89/1/2 91/1/2
f 90/3/2 91/3/2 92/3/2
f 90/3/2 92/3/2 94/3/2
f 92/1/2 93/1/2 95/1/2
f 94/3/2 92/3/2 95/3/2
f 95/1/2 93/1/2 96/1/2
f 95/3/2 96/3/2 97/3/2
f 97/3/2 96/3/2 98/3/2
f 97/1/2 98/1/2 99/1/2
f 99/1/2 98/1/2 100/1/2
f 101/2/2 102/2/2 103/2/2
f 101/2/2 103/2/2 105/2/2
f 103/2/2 104/2/2 105/2/2
f 105/2/2 104/2/2 106/2/2
f 106/2/2 104/2/2 107/2/2
f 106/2/2 107/2/2 108/2/2
f 108/2/2 107/2/2 109/2/2
f 109/2/2 107/2/2 110/2/2
f 110/2/2 107/2/2 111/2/2
f 112/1/2 113/1/2 114/1/2
f 114/1/2 113/1/2 115/1/2
f 116/2/2 117/2/2 118/2/2
f 118/2/2 117/2/2 119/2/2
f 119/2/2 117/2/2 120/2/2
f 118/2/2 119/2/2 122/2/2
f 122/2/2 119/2/2 123/2/2
f 121/4/2 122/4/2 124/4/2
f 122/4/2 123/4/2 124/4/2
f 124/4/2 123/4/2 125/4/2
f 125/4/2 123/4/2 126/4/2
f 126/4/2 123/4/2 127/4/2
f 124/2/2 125/2/2 128/2/2
f 125/4/2 126/4/2 129/4/2
f 128/2/2 125/2/2 129/2/2
f 129/4/2 126/4/2 130/4/2
f 129/2/2 130/2/2 131/2/2
f 131/2/2 130/2/2 132/2/2
f 132/2/2 130/2/2 133/2/2
f 133/2/2 130/2/2 134/2/2
f 135/2/2 136/2/2 137/2/2
f 137/2/2 136/2/2 138/2/2
f 138/2/2 136/2/2 139/2/2
f 137/4/2 138/4/2 140/4/2
f 140/4/2 138/4/2 141/4/2
f 140/2/2 141/2/2 142/2/2
f 142/2/2 141/2/2 143/2/2
f 146/2/3 145/2/3 144/2/3
f 147/2/3 145/2/3 146/2/3
f 148/2/3 146/2/3 144/2/3
f 150/2/3 148/2/3 144/2/3
f 150/2/3 149/2/3 148/2/3
f 151/2/3 149/2/3 150/2/3
f 152/2/3 150/2/3 144/2/3
f 153/4/3 151/4/3 150/4/3
f 153/2/3 150/2/3 152/2/3
f 154/2/3 149/2/3 151/2/3
f 154/4/3 151/4/3 153/4/3
f 155/2/3 149/2/3 154/2/3
f 162/2/3 159/2/3 158/2/3
f 163/4/3 160/4/3 159/4/3
f 163/2/3 159/2/3 162/2/3
f 164/2/3 161/2/3 160/2/3
f 165/2/3 161/2/3 164/2/3
f 166/1/3 157/1/3 156/1/3
f 167/1/3 157/1/3 166/1/3
f 168/4/3 160/4/3 163/4/3
f 169/2/3 164/2/3 160/2/3
f 169/4/3 160/4/3 168/4/3
f 170/2/3 164/2/3 169/2/3
f 178/2/3 172/2/3 171/2/3
f 180/1/3 174/1/3 173/1/3
f 181/3/3 175/3/3 174/3/3
f 181/1/3 174/1/3 180/1/3
f 182/1/3 176/1/3 175/1/3
f 182/3/3 175/3/3 181/3/3
f 183/3/3 177/3/3 176/3/3
f 183/1/3 176/1/3 182/1/3
f 184/3/3 177/3/3 183/3/3
f 187/2/3 178/2/3 171/2/3
f 187/2/3 179/2/3 178/2/3
f 188/2/3 179/2/3 187/2/3
f 189/2/3 186/2/3 185/2/3
f 190/2/3 186/2/3 189/2/3
f 196/3/3 192/3/3 191/3/3
f 197/1/3 193/1/3 192/1/3
f 197/3/3 192/3/3 196/3/3
f 198/1/3 193/1/3 197/1/3
f 199/2/3 195/2/3 194/2/3
f 200/2/3 195/2/3 199/2/3
f 203/2/3 202/2/3 201/2/3
f 204/2/3 202/2/3 203/2/3
f 207/2/3 206/2/3 205/2/3
f 208/2/3 206/2/3 207/2/3
f 209/2/4 210/2/4 211/2/4
f 211/2/4 210/2/4 212/2/4
f 213/2/4 214/2/4 215/2/4
f 215/2/4 214/2/4 216/2/4
f 217/1/4 218/1/4 222/1/4
f 218/3/4 219/3/4 223/3/4
f 222/1/4 218/1/4 223/1/4
f 219/1/4 220/1/4 224/1/4
f 223/3/4 219/3/4 224/3/4
f 220/3/4 221/3/4 225/3/4
f 224/1/4 220/1/4 225/1/4
f 225/3/4 221/3/4 226/3/4
f 227/2/4 228/2/4 233/2/4
f 229/1/4 230/1/4 235/1/4
f 230/3/4 231/3/4 236/3/4
f 235/1/4 230/1/4 236/1/4
f 231/1/4 232/1/4 237/1/4
f 236/3/4 231/3/4 237/3/4
f 237/1/4 232/1/4 238/1/4
f 233/2/4 234/2/4 239/2/4
f 227/2/4 233/2/4 239/2/4
f 239/2/4 234/2/4 240/2/4
f 240/2/4 234/2/4 241/2/4
f 241/2/4 234/2/4 242/2/4
f 243/4/4 244/4/4 246/4/4
f 244/2/4 245/2/4 247/2/4
f 246/4/4 244/4/4 247/4/4
f 247/2/4 245/2/4 248/2/4
f 249/2/4 250/2/4 252/2/4
f 252/2/4 250/2/4 253/2/4
f 251/4/4 252/4/4 255/4/4
f 253/2/4 254/2/4 256/2/4
f 255/4/4 252/4/4 256/4/4
f 252/2/4 253/2/4 256/2/4
f 256/2/4 254/2/4 257/2/4
f 258/2/4 259/2/4 263/2/4
f 263/2/4 259/2/4 264/2/4
f 264/4/4 265/4/4 266/4/4
f 266/4/4 265/4/4 267/4/4
f 262/4/4 263/4/4 268/4/4
f 263/2/4 264/2/4 269/2/4
f 268/4/4 263/4/4 269/4/4
f 260/1/4 261/1/4 270/1/4
f 270/1/4 261/1/4 271/1/4
f 269/2/4 264/2/4 272/2/4
f 264/4/4 266/4/4 273/4/4
f 272/2/4 264/2/4 273/2/4
f 273/4/4 266/4/4 274/4/4
f 275/2/4 276/2/4 277/2/4
f 277/2/4 276/2/4 278/2/4
f 275/2/4 277/2/4 279/2/4
f 275/2/4 279/2/4 281/2/4
f 279/2/4 280/2/4 281/2/4
f 281/2/4 280/2/4 282/2/4
f 275/2/4 281/2/4 283/2/4
f 283/2/4 281/2/4 284/2/4
f 287/1/5 286/1/5 285/1/5
f 288/1/5 286/1/5 287/1/5
f 291/1/5 290/1/5 289/1/5
f 292/1/5 290/1/5 291/1/5
f 295/1/5 294/1/5 293/1/5
f 296/1/5 294/1/5 295/1/5
f 297/1/5 295/1/5 293/1/5
f 298/1/5 294/1/5 296/1/5
f 299/1/5 297/1/5 293/1/5
f 299/1/5 298/1/5 297/1/5
f 300/1/5 294/1/5 298/1/5
f 300/1/5 298/1/5 299/1/5
f 303/2/5 302/2/5 301/2/5
f 304/2/5 302/2/5 303/2/5
f 305/2/5 302/2/5 304/2/5
f 306/4/5 304/4/5 303/4/5
f 307/4/5 304/4/5 306/4/5
f 308/2/5 302/2/5 305/2/5
f 309/2/5 307/2/5 306/2/5
f 309/2/5 308/2/5 307/2/5
f 310/2/5 302/2/5 308/2/5
f 310/2/5 308/2/5 309/2/5
f 311/3/6 312/3/6 313/3/6
f 313/3/6 312/3/6 314/3/6
f 317/2/6 318/2/6 319/2/6
f 319/2/6 318/2/6 320/2/6
f 315/2/6 316/2/6 321/2/6
f 321/2/6 316/2/6 322/2/6
f 323/2/6 324/2/6 326/2/6
f 326/2/6 324/2/6 327/2/6
f 325/4/6 326/4/6 328/4/6
f 328/4/6 326/4/6 329/4/6
f 330/2/6 331/2/6 334/2/6
f 334/2/6 331/2/6 335/2/6
f 332/2/6 333/2/6 336/2/6
f 336/2/6 333/2/6 337/2/6
f 338/2/6 339/2/6 342/2/6
f 342/2/6 339/2/6 343/2/6
f 340/2/6 341/2/6 344/2/6
f 344/2/6 341/2/6 345/2/6
f 345/2/6 341/2/6 348/2/6
f 348/2/6 341/2/6 349/2/6
f 346/2/6 347/2/6 350/2/6
f 350/2/6 347/2/6 351/2/6
f 352/4/6 353/4/6 354/4/6
f 354/4/6 353/4/6 355/4/6
f 356/2/6 357/2/6 358/2/6
f 358/2/6 357/2/6 359/2/6
f 360/4/6 361/4/6 362/4/6
f 362/4/6 361/4/6 363/4/6
f 366/2/6 367/2/6 368/2/6
f 364/2/6 365/2/6 370/2/6
f 370/2/6 365/2/6 371/2/6
f 368/2/6 369/2/6 372/2/6
f 366/2/6 368/2/6 372/2/6
f 372/2/6 369/2/6 373/2/6
f 374/2/6 375/2/6 376/2/6
f 376/2/6 375/2/6 377/2/6
f 374/2/6 376/2/6 378/2/6
f 378/2/6 376/2/6 379/2/6
f 380/2/6 381/2/6 383/2/6
f 381/2/6 382/2/6 383/2/6
f 383/2/6 382/2/6 384/2/6
f 385/2/6 386/2/6 387/2/6
f 387/2/6 386/2/6 388/2/6
f 389/2/6 390/2/6 391/2/6
f 391/2/6 390/2/6 392/2/6
f 393/2/6 394/2/6 395/2/6
f 395/2/6 394/2/6 396/2/6
