# MagicaVoxel @ Ephtracy

# group
o ArbolCuadrado

# material
mtllib Asset-39-ArbolCuadrado.mtl
usemtl palette

# normals
vn -1 0 0
vn 1 0 0
vn 0 0 1
vn 0 0 -1
vn 0 -1 0
vn 0 1 0

# texcoords
vt 0.845703 0.5
vt 0.849609 0.5
vt 0.853516 0.5
vt 0.857422 0.5

# verts
v -9.3 1 -0.3
v -9.3 1 -1.4
v -9.3 1.3 -0.3
v -9.3 1.3 -1.4
v -9.3 1.4 -0.3
v -9.3 1.4 -1.4
v -9.3 1.5 -0.3
v -9.3 1.5 -1.4
v -9.3 1.7 -0.3
v -9.3 1.7 -1.4
v -9.3 1.9 -0.3
v -9.3 1.9 -1.4
v -9.3 2.1 -0.3
v -9.3 2.1 -1.4
v -9.3 2.2 -0.3
v -9.3 2.2 -1.4
v -9 7.45058e-009 -0.6
v -9 7.45058e-009 -1.1
v -9 0.2 -0.6
v -9 0.2 -1.1
v -9 0.3 -0.6
v -9 0.3 -1.1
v -9 0.7 -0.6
v -9 0.7 -1.1
v -9 0.9 -0.6
v -9 0.9 -1.1
v -9 1 -0.6
v -9 1 -1.1
v -8.5 7.45058e-009 -0.6
v -8.5 7.45058e-009 -1.1
v -8.5 0.2 -0.6
v -8.5 0.2 -1.1
v -8.5 0.3 -0.6
v -8.5 0.3 -1.1
v -8.5 0.7 -0.6
v -8.5 0.7 -1.1
v -8.5 0.9 -0.6
v -8.5 0.9 -1.1
v -8.5 1 -0.6
v -8.5 1 -1.1
v -8.2 1 -0.3
v -8.2 1 -1.4
v -8.2 1.3 -0.3
v -8.2 1.3 -1.4
v -8.2 1.4 -0.3
v -8.2 1.4 -1.4
v -8.2 1.5 -0.3
v -8.2 1.5 -1.4
v -8.2 1.7 -0.3
v -8.2 1.7 -1.4
v -8.2 1.9 -0.3
v -8.2 1.9 -1.4
v -8.2 2.1 -0.3
v -8.2 2.1 -1.4
v -8.2 2.2 -0.3
v -8.2 2.2 -1.4
v -9.3 1 -0.3
v -9.3 1.3 -0.3
v -9.3 1.4 -0.3
v -9.3 1.5 -0.3
v -9.3 1.7 -0.3
v -9.3 1.9 -0.3
v -9.3 2.1 -0.3
v -9.3 2.2 -0.3
v -8.2 1 -0.3
v -8.2 1.3 -0.3
v -8.2 1.4 -0.3
v -8.2 1.5 -0.3
v -8.2 1.7 -0.3
v -8.2 1.9 -0.3
v -8.2 2.1 -0.3
v -8.2 2.2 -0.3
v -9 7.45058e-009 -0.6
v -9 0.2 -0.6
v -9 0.3 -0.6
v -9 0.7 -0.6
v -9 0.9 -0.6
v -9 1 -0.6
v -8.5 7.45058e-009 -0.6
v -8.5 0.2 -0.6
v -8.5 0.3 -0.6
v -8.5 0.7 -0.6
v -8.5 0.9 -0.6
v -8.5 1 -0.6
v -9 7.45058e-009 -1.1
v -9 0.2 -1.1
v -9 0.3 -1.1
v -9 0.7 -1.1
v -9 0.9 -1.1
v -9 1 -1.1
v -8.5 7.45058e-009 -1.1
v -8.5 0.2 -1.1
v -8.5 0.3 -1.1
v -8.5 0.7 -1.1
v -8.5 0.9 -1.1
v -8.5 1 -1.1
v -9.3 1 -1.4
v -9.3 1.3 -1.4
v -9.3 1.4 -1.4
v -9.3 1.5 -1.4
v -9.3 1.7 -1.4
v -9.3 1.9 -1.4
v -9.3 2.1 -1.4
v -9.3 2.2 -1.4
v -8.2 1 -1.4
v -8.2 1.3 -1.4
v -8.2 1.4 -1.4
v -8.2 1.5 -1.4
v -8.2 1.7 -1.4
v -8.2 1.9 -1.4
v -8.2 2.1 -1.4
v -8.2 2.2 -1.4
v -9 7.45058e-009 -0.6
v -8.5 7.45058e-009 -0.6
v -9 7.45058e-009 -1.1
v -8.5 7.45058e-009 -1.1
v -9.3 1 -0.3
v -8.2 1 -0.3
v -9 1 -0.6
v -8.5 1 -0.6
v -9 1 -1.1
v -8.5 1 -1.1
v -9.3 1 -1.4
v -8.2 1 -1.4
v -9.3 2.2 -0.3
v -8.2 2.2 -0.3
v -9.3 2.2 -1.4
v -8.2 2.2 -1.4

# faces
f 3/4/1 2/4/1 1/4/1
f 4/4/1 2/4/1 3/4/1
f 5/2/1 4/2/1 3/2/1
f 6/2/1 4/2/1 5/2/1
f 7/4/1 6/4/1 5/4/1
f 8/4/1 6/4/1 7/4/1
f 9/2/1 8/2/1 7/2/1
f 10/2/1 8/2/1 9/2/1
f 11/4/1 10/4/1 9/4/1
f 12/4/1 10/4/1 11/4/1
f 13/2/1 12/2/1 11/2/1
f 14/2/1 12/2/1 13/2/1
f 15/4/1 14/4/1 13/4/1
f 16/4/1 14/4/1 15/4/1
f 19/1/1 18/1/1 17/1/1
f 20/1/1 18/1/1 19/1/1
f 21/3/1 20/3/1 19/3/1
f 22/3/1 20/3/1 21/3/1
f 23/1/1 22/1/1 21/1/1
f 24/1/1 22/1/1 23/1/1
f 25/3/1 24/3/1 23/3/1
f 26/3/1 24/3/1 25/3/1
f 27/1/1 26/1/1 25/1/1
f 28/1/1 26/1/1 27/1/1
f 29/1/2 30/1/2 31/1/2
f 31/1/2 30/1/2 32/1/2
f 31/3/2 32/3/2 33/3/2
f 33/3/2 32/3/2 34/3/2
f 33/1/2 34/1/2 35/1/2
f 35/1/2 34/1/2 36/1/2
f 35/3/2 36/3/2 37/3/2
f 37/3/2 36/3/2 38/3/2
f 37/1/2 38/1/2 39/1/2
f 39/1/2 38/1/2 40/1/2
f 41/4/2 42/4/2 43/4/2
f 43/4/2 42/4/2 44/4/2
f 43/2/2 44/2/2 45/2/2
f 45/2/2 44/2/2 46/2/2
f 45/4/2 46/4/2 47/4/2
f 47/4/2 46/4/2 48/4/2
f 47/2/2 48/2/2 49/2/2
f 49/2/2 48/2/2 50/2/2
f 49/4/2 50/4/2 51/4/2
f 51/4/2 50/4/2 52/4/2
f 51/2/2 52/2/2 53/2/2
f 53/2/2 52/2/2 54/2/2
f 53/4/2 54/4/2 55/4/2
f 55/4/2 54/4/2 56/4/2
f 65/4/3 58/4/3 57/4/3
f 66/2/3 59/2/3 58/2/3
f 66/4/3 58/4/3 65/4/3
f 67/4/3 60/4/3 59/4/3
f 67/2/3 59/2/3 66/2/3
f 68/2/3 61/2/3 60/2/3
f 68/4/3 60/4/3 67/4/3
f 69/4/3 62/4/3 61/4/3
f 69/2/3 61/2/3 68/2/3
f 70/2/3 63/2/3 62/2/3
f 70/4/3 62/4/3 69/4/3
f 71/4/3 64/4/3 63/4/3
f 71/2/3 63/2/3 70/2/3
f 72/4/3 64/4/3 71/4/3
f 79/1/3 74/1/3 73/1/3
f 80/3/3 75/3/3 74/3/3
f 80/1/3 74/1/3 79/1/3
f 81/1/3 76/1/3 75/1/3
f 81/3/3 75/3/3 80/3/3
f 82/3/3 77/3/3 76/3/3
f 82/1/3 76/1/3 81/1/3
f 83/1/3 78/1/3 77/1/3
f 83/3/3 77/3/3 82/3/3
f 84/1/3 78/1/3 83/1/3
f 85/1/4 86/1/4 91/1/4
f 86/3/4 87/3/4 92/3/4
f 91/1/4 86/1/4 92/1/4
f 87/1/4 88/1/4 93/1/4
f 92/3/4 87/3/4 93/3/4
f 88/3/4 89/3/4 94/3/4
f 93/1/4 88/1/4 94/1/4
f 89/1/4 90/1/4 95/1/4
f 94/3/4 89/3/4 95/3/4
f 95/1/4 90/1/4 96/1/4
f 97/4/4 98/4/4 105/4/4
f 98/2/4 99/2/4 106/2/4
f 105/4/4 98/4/4 106/4/4
f 99/4/4 100/4/4 107/4/4
f 106/2/4 99/2/4 107/2/4
f 100/2/4 101/2/4 108/2/4
f 107/4/4 100/4/4 108/4/4
f 101/4/4 102/4/4 109/4/4
f 108/2/4 101/2/4 109/2/4
f 102/2/4 103/2/4 110/2/4
f 109/4/4 102/4/4 110/4/4
f 103/4/4 104/4/4 111/4/4
f 110/2/4 103/2/4 111/2/4
f 111/4/4 104/4/4 112/4/4
f 115/1/5 114/1/5 113/1/5
f 116/1/5 114/1/5 115/1/5
f 119/4/5 118/4/5 117/4/5
f 120/4/5 118/4/5 119/4/5
f 121/4/5 119/4/5 117/4/5
f 122/4/5 118/4/5 120/4/5
f 123/4/5 121/4/5 117/4/5
f 123/4/5 122/4/5 121/4/5
f 124/4/5 118/4/5 122/4/5
f 124/4/5 122/4/5 123/4/5
f 125/4/6 126/4/6 127/4/6
f 127/4/6 126/4/6 128/4/6
