# MagicaVoxel @ Ephtracy

# group
o SubiBaja

# material
mtllib Asset-6-SubiBaja.mtl
usemtl palette

# normals
vn 0 0 1
vn 0 0 -1
vn 0 -1 0
vn 0 1 0
vn -1 0 0
vn 1 0 0

# texcoords
vt 0.794922 0.5
vt 0.853516 0.5
vt 0.869141 0.5
vt 0.931641 0.5
vt 0.951172 0.5

# verts
v -29.5 1.4 40.7
v -29.5 1.6 40.7
v -29.4 1.4 40.7
v -29.4 1.6 40.7
v -29.4 1.7 40.7
v -29.3 1.6 40.7
v -29.3 1.7 40.7
v -29.3 1.8 40.7
v -29.2 1.6 40.7
v -29.2 1.7 40.7
v -29.2 1.8 40.7
v -29.1 1.4 40.7
v -29.1 1.6 40.7
v -29.1 1.7 40.7
v -29 1.4 40.7
v -29 1.6 40.7
v -30.2 1.8 40.6
v -30.2 1.9 40.6
v -30.1 1.8 40.6
v -30.1 1.9 40.6
v -28.4 1.8 40.6
v -28.4 1.9 40.6
v -28.3 1.8 40.6
v -28.3 1.9 40.6
v -30.3 1.8 40.5
v -30.3 1.9 40.5
v -30.2 1.8 40.5
v -30.2 1.9 40.5
v -30.2 2 40.5
v -30.2 2.1 40.5
v -30.1 1.8 40.5
v -30.1 1.9 40.5
v -30.1 2 40.5
v -30.1 2.1 40.5
v -29.3 1.8 40.5
v -29.3 1.9 40.5
v -29.2 1.8 40.5
v -29.2 1.9 40.5
v -28.4 1.8 40.5
v -28.4 1.9 40.5
v -28.4 2 40.5
v -28.4 2.1 40.5
v -28.3 1.8 40.5
v -28.3 1.9 40.5
v -28.3 2 40.5
v -28.3 2.1 40.5
v -28.2 1.8 40.5
v -28.2 1.9 40.5
v -30.5 1.8 40.4
v -30.5 1.9 40.4
v -30.3 1.8 40.4
v -30.3 1.9 40.4
v -30.2 1.9 40.4
v -30.2 2 40.4
v -30.1 1.9 40.4
v -30.1 2 40.4
v -28.4 1.9 40.4
v -28.4 2 40.4
v -28.3 1.9 40.4
v -28.3 2 40.4
v -28.2 1.8 40.4
v -28.2 1.9 40.4
v -28 1.8 40.4
v -28 1.9 40.4
v -29.5 1.4 40
v -29.5 1.6 40
v -29.4 1.4 40
v -29.4 1.6 40
v -29.4 1.7 40
v -29.3 1.6 40
v -29.3 1.7 40
v -29.2 1.6 40
v -29.2 1.7 40
v -29.1 1.4 40
v -29.1 1.6 40
v -29.1 1.7 40
v -29 1.4 40
v -29 1.6 40
v -29.5 1.4 40.6
v -29.5 1.6 40.6
v -29.4 1.4 40.6
v -29.4 1.6 40.6
v -29.4 1.7 40.6
v -29.3 1.6 40.6
v -29.3 1.7 40.6
v -29.2 1.6 40.6
v -29.2 1.7 40.6
v -29.1 1.4 40.6
v -29.1 1.6 40.6
v -29.1 1.7 40.6
v -29 1.4 40.6
v -29 1.6 40.6
v -30.5 1.8 40.2
v -30.5 1.9 40.2
v -30.3 1.8 40.2
v -30.3 1.9 40.2
v -30.2 1.9 40.2
v -30.2 2 40.2
v -30.1 1.9 40.2
v -30.1 2 40.2
v -28.4 1.9 40.2
v -28.4 2 40.2
v -28.3 1.9 40.2
v -28.3 2 40.2
v -28.2 1.8 40.2
v -28.2 1.9 40.2
v -28 1.8 40.2
v -28 1.9 40.2
v -30.3 1.8 40.1
v -30.3 1.9 40.1
v -30.2 1.8 40.1
v -30.2 1.9 40.1
v -30.2 2 40.1
v -30.2 2.1 40.1
v -30.1 1.8 40.1
v -30.1 1.9 40.1
v -30.1 2 40.1
v -30.1 2.1 40.1
v -29.3 1.8 40.1
v -29.3 1.9 40.1
v -29.2 1.8 40.1
v -29.2 1.9 40.1
v -28.4 1.8 40.1
v -28.4 1.9 40.1
v -28.4 2 40.1
v -28.4 2.1 40.1
v -28.3 1.8 40.1
v -28.3 1.9 40.1
v -28.3 2 40.1
v -28.3 2.1 40.1
v -28.2 1.8 40.1
v -28.2 1.9 40.1
v -30.2 1.8 40
v -30.2 1.9 40
v -30.1 1.8 40
v -30.1 1.9 40
v -28.4 1.8 40
v -28.4 1.9 40
v -28.3 1.8 40
v -28.3 1.9 40
v -29.5 1.4 39.9
v -29.5 1.6 39.9
v -29.4 1.4 39.9
v -29.4 1.6 39.9
v -29.4 1.7 39.9
v -29.3 1.6 39.9
v -29.3 1.7 39.9
v -29.3 1.8 39.9
v -29.2 1.6 39.9
v -29.2 1.7 39.9
v -29.2 1.8 39.9
v -29.1 1.4 39.9
v -29.1 1.6 39.9
v -29.1 1.7 39.9
v -29 1.4 39.9
v -29 1.6 39.9
v -29.5 1.4 40.7
v -29.4 1.4 40.7
v -29.1 1.4 40.7
v -29 1.4 40.7
v -29.5 1.4 40.6
v -29.4 1.4 40.6
v -29.1 1.4 40.6
v -29 1.4 40.6
v -29.5 1.4 40
v -29.4 1.4 40
v -29.1 1.4 40
v -29 1.4 40
v -29.5 1.4 39.9
v -29.4 1.4 39.9
v -29.1 1.4 39.9
v -29 1.4 39.9
v -29.4 1.6 40.7
v -29.3 1.6 40.7
v -29.2 1.6 40.7
v -29.1 1.6 40.7
v -29.4 1.6 40.6
v -29.3 1.6 40.6
v -29.2 1.6 40.6
v -29.1 1.6 40.6
v -29.4 1.6 40
v -29.3 1.6 40
v -29.2 1.6 40
v -29.1 1.6 40
v -29.4 1.6 39.9
v -29.3 1.6 39.9
v -29.2 1.6 39.9
v -29.1 1.6 39.9
v -29.3 1.7 40.7
v -29.2 1.7 40.7
v -29.3 1.7 40.6
v -29.2 1.7 40.6
v -29.3 1.7 40
v -29.2 1.7 40
v -29.3 1.7 39.9
v -29.2 1.7 39.9
v -30.2 1.8 40.6
v -30.1 1.8 40.6
v -28.4 1.8 40.6
v -28.3 1.8 40.6
v -30.3 1.8 40.5
v -30.2 1.8 40.5
v -30.1 1.8 40.5
v -29.3 1.8 40.5
v -29.2 1.8 40.5
v -28.4 1.8 40.5
v -28.3 1.8 40.5
v -28.2 1.8 40.5
v -30.5 1.8 40.4
v -30.3 1.8 40.4
v -30.1 1.8 40.4
v -29.3 1.8 40.4
v -29.2 1.8 40.4
v -28.4 1.8 40.4
v -28.2 1.8 40.4
v -28 1.8 40.4
v -30.5 1.8 40.2
v -30.3 1.8 40.2
v -30.1 1.8 40.2
v -29.3 1.8 40.2
v -29.2 1.8 40.2
v -28.4 1.8 40.2
v -28.2 1.8 40.2
v -28 1.8 40.2
v -30.3 1.8 40.1
v -30.2 1.8 40.1
v -30.1 1.8 40.1
v -29.3 1.8 40.1
v -29.2 1.8 40.1
v -28.4 1.8 40.1
v -28.3 1.8 40.1
v -28.2 1.8 40.1
v -30.2 1.8 40
v -30.1 1.8 40
v -28.4 1.8 40
v -28.3 1.8 40
v -30.2 2 40.5
v -30.1 2 40.5
v -28.4 2 40.5
v -28.3 2 40.5
v -30.2 2 40.4
v -30.1 2 40.4
v -28.4 2 40.4
v -28.3 2 40.4
v -30.2 2 40.2
v -30.1 2 40.2
v -28.4 2 40.2
v -28.3 2 40.2
v -30.2 2 40.1
v -30.1 2 40.1
v -28.4 2 40.1
v -28.3 2 40.1
v -29.5 1.6 40.7
v -29.4 1.6 40.7
v -29.1 1.6 40.7
v -29 1.6 40.7
v -29.5 1.6 40.6
v -29.4 1.6 40.6
v -29.1 1.6 40.6
v -29 1.6 40.6
v -29.5 1.6 40
v -29.4 1.6 40
v -29.1 1.6 40
v -29 1.6 40
v -29.5 1.6 39.9
v -29.4 1.6 39.9
v -29.1 1.6 39.9
v -29 1.6 39.9
v -29.4 1.7 40.7
v -29.3 1.7 40.7
v -29.2 1.7 40.7
v -29.1 1.7 40.7
v -29.4 1.7 40.6
v -29.3 1.7 40.6
v -29.2 1.7 40.6
v -29.1 1.7 40.6
v -29.4 1.7 40
v -29.3 1.7 40
v -29.2 1.7 40
v -29.1 1.7 40
v -29.4 1.7 39.9
v -29.3 1.7 39.9
v -29.2 1.7 39.9
v -29.1 1.7 39.9
v -29.3 1.8 40.7
v -29.2 1.8 40.7
v -29.3 1.8 40.5
v -29.2 1.8 40.5
v -29.3 1.8 40.1
v -29.2 1.8 40.1
v -29.3 1.8 39.9
v -29.2 1.8 39.9
v -30.2 1.9 40.6
v -30.1 1.9 40.6
v -28.4 1.9 40.6
v -28.3 1.9 40.6
v -30.3 1.9 40.5
v -30.2 1.9 40.5
v -30.1 1.9 40.5
v -29.3 1.9 40.5
v -29.2 1.9 40.5
v -28.4 1.9 40.5
v -28.3 1.9 40.5
v -28.2 1.9 40.5
v -30.5 1.9 40.4
v -30.3 1.9 40.4
v -30.2 1.9 40.4
v -30.1 1.9 40.4
v -29.3 1.9 40.4
v -29.2 1.9 40.4
v -28.4 1.9 40.4
v -28.3 1.9 40.4
v -28.2 1.9 40.4
v -28 1.9 40.4
v -30.5 1.9 40.2
v -30.3 1.9 40.2
v -30.2 1.9 40.2
v -30.1 1.9 40.2
v -29.3 1.9 40.2
v -29.2 1.9 40.2
v -28.4 1.9 40.2
v -28.3 1.9 40.2
v -28.2 1.9 40.2
v -28 1.9 40.2
v -30.3 1.9 40.1
v -30.2 1.9 40.1
v -30.1 1.9 40.1
v -29.3 1.9 40.1
v -29.2 1.9 40.1
v -28.4 1.9 40.1
v -28.3 1.9 40.1
v -28.2 1.9 40.1
v -30.2 1.9 40
v -30.1 1.9 40
v -28.4 1.9 40
v -28.3 1.9 40
v -30.2 2.1 40.5
v -30.1 2.1 40.5
v -28.4 2.1 40.5
v -28.3 2.1 40.5
v -30.2 2.1 40.1
v -30.1 2.1 40.1
v -28.4 2.1 40.1
v -28.3 2.1 40.1
v -30.5 1.8 40.4
v -30.5 1.8 40.2
v -30.5 1.9 40.4
v -30.5 1.9 40.2
v -30.3 1.8 40.5
v -30.3 1.8 40.4
v -30.3 1.8 40.2
v -30.3 1.8 40.1
v -30.3 1.9 40.5
v -30.3 1.9 40.4
v -30.3 1.9 40.2
v -30.3 1.9 40.1
v -30.2 1.8 40.6
v -30.2 1.8 40.5
v -30.2 1.8 40.1
v -30.2 1.8 40
v -30.2 1.9 40.6
v -30.2 1.9 40.5
v -30.2 1.9 40.4
v -30.2 1.9 40.2
v -30.2 1.9 40.1
v -30.2 1.9 40
v -30.2 2 40.5
v -30.2 2 40.4
v -30.2 2 40.2
v -30.2 2 40.1
v -30.2 2.1 40.5
v -30.2 2.1 40.1
v -29.5 1.4 40.7
v -29.5 1.4 40.6
v -29.5 1.4 40
v -29.5 1.4 39.9
v -29.5 1.6 40.7
v -29.5 1.6 40.6
v -29.5 1.6 40
v -29.5 1.6 39.9
v -29.4 1.6 40.7
v -29.4 1.6 40.6
v -29.4 1.6 40
v -29.4 1.6 39.9
v -29.4 1.7 40.7
v -29.4 1.7 40.6
v -29.4 1.7 40
v -29.4 1.7 39.9
v -29.3 1.7 40.7
v -29.3 1.7 40.6
v -29.3 1.7 40
v -29.3 1.7 39.9
v -29.3 1.8 40.7
v -29.3 1.8 40.5
v -29.3 1.8 40.4
v -29.3 1.8 40.2
v -29.3 1.8 40.1
v -29.3 1.8 39.9
v -29.2 1.6 40.7
v -29.2 1.6 40.6
v -29.2 1.6 40
v -29.2 1.6 39.9
v -29.2 1.7 40.7
v -29.2 1.7 40.6
v -29.2 1.7 40
v -29.2 1.7 39.9
v -29.1 1.4 40.7
v -29.1 1.4 40.6
v -29.1 1.4 40
v -29.1 1.4 39.9
v -29.1 1.6 40.7
v -29.1 1.6 40.6
v -29.1 1.6 40
v -29.1 1.6 39.9
v -28.4 1.8 40.6
v -28.4 1.8 40.5
v -28.4 1.8 40.1
v -28.4 1.8 40
v -28.4 1.9 40.6
v -28.4 1.9 40.5
v -28.4 1.9 40.4
v -28.4 1.9 40.2
v -28.4 1.9 40.1
v -28.4 1.9 40
v -28.4 2 40.5
v -28.4 2 40.4
v -28.4 2 40.2
v -28.4 2 40.1
v -28.4 2.1 40.5
v -28.4 2.1 40.1
v -30.1 1.8 40.6
v -30.1 1.8 40.5
v -30.1 1.8 40.1
v -30.1 1.8 40
v -30.1 1.9 40.6
v -30.1 1.9 40.5
v -30.1 1.9 40.4
v -30.1 1.9 40.2
v -30.1 1.9 40.1
v -30.1 1.9 40
v -30.1 2 40.5
v -30.1 2 40.4
v -30.1 2 40.2
v -30.1 2 40.1
v -30.1 2.1 40.5
v -30.1 2.1 40.1
v -29.4 1.4 40.7
v -29.4 1.4 40.6
v -29.4 1.4 40
v -29.4 1.4 39.9
v -29.4 1.6 40.7
v -29.4 1.6 40.6
v -29.4 1.6 40
v -29.4 1.6 39.9
v -29.3 1.6 40.7
v -29.3 1.6 40.6
v -29.3 1.6 40
v -29.3 1.6 39.9
v -29.3 1.7 40.7
v -29.3 1.7 40.6
v -29.3 1.7 40
v -29.3 1.7 39.9
v -29.2 1.7 40.7
v -29.2 1.7 40.6
v -29.2 1.7 40
v -29.2 1.7 39.9
v -29.2 1.8 40.7
v -29.2 1.8 40.5
v -29.2 1.8 40.4
v -29.2 1.8 40.2
v -29.2 1.8 40.1
v -29.2 1.8 39.9
v -29.1 1.6 40.7
v -29.1 1.6 40.6
v -29.1 1.6 40
v -29.1 1.6 39.9
v -29.1 1.7 40.7
v -29.1 1.7 40.6
v -29.1 1.7 40
v -29.1 1.7 39.9
v -29 1.4 40.7
v -29 1.4 40.6
v -29 1.4 40
v -29 1.4 39.9
v -29 1.6 40.7
v -29 1.6 40.6
v -29 1.6 40
v -29 1.6 39.9
v -28.3 1.8 40.6
v -28.3 1.8 40.5
v -28.3 1.8 40.1
v -28.3 1.8 40
v -28.3 1.9 40.6
v -28.3 1.9 40.5
v -28.3 1.9 40.4
v -28.3 1.9 40.2
v -28.3 1.9 40.1
v -28.3 1.9 40
v -28.3 2 40.5
v -28.3 2 40.4
v -28.3 2 40.2
v -28.3 2 40.1
v -28.3 2.1 40.5
v -28.3 2.1 40.1
v -28.2 1.8 40.5
v -28.2 1.8 40.4
v -28.2 1.8 40.2
v -28.2 1.8 40.1
v -28.2 1.9 40.5
v -28.2 1.9 40.4
v -28.2 1.9 40.2
v -28.2 1.9 40.1
v -28 1.8 40.4
v -28 1.8 40.2
v -28 1.9 40.4
v -28 1.9 40.2

# faces
f 3/3/1 2/3/1 1/3/1
f 4/3/1 2/3/1 3/3/1
f 6/3/1 5/3/1 4/3/1
f 7/3/1 5/3/1 6/3/1
f 10/3/1 8/3/1 7/3/1
f 11/3/1 8/3/1 10/3/1
f 13/3/1 10/3/1 9/3/1
f 14/3/1 10/3/1 13/3/1
f 15/3/1 13/3/1 12/3/1
f 16/3/1 13/3/1 15/3/1
f 19/4/1 18/4/1 17/4/1
f 20/4/1 18/4/1 19/4/1
f 23/4/1 22/4/1 21/4/1
f 24/4/1 22/4/1 23/4/1
f 27/4/1 26/4/1 25/4/1
f 28/4/1 26/4/1 27/4/1
f 33/5/1 30/5/1 29/5/1
f 34/5/1 30/5/1 33/5/1
f 35/2/1 32/2/1 31/2/1
f 36/2/1 32/2/1 35/2/1
f 37/1/1 36/1/1 35/1/1
f 38/1/1 36/1/1 37/1/1
f 39/2/1 38/2/1 37/2/1
f 40/2/1 38/2/1 39/2/1
f 45/5/1 42/5/1 41/5/1
f 46/5/1 42/5/1 45/5/1
f 47/4/1 44/4/1 43/4/1
f 48/4/1 44/4/1 47/4/1
f 51/4/1 50/4/1 49/4/1
f 52/4/1 50/4/1 51/4/1
f 55/5/1 54/5/1 53/5/1
f 56/5/1 54/5/1 55/5/1
f 59/5/1 58/5/1 57/5/1
f 60/5/1 58/5/1 59/5/1
f 63/4/1 62/4/1 61/4/1
f 64/4/1 62/4/1 63/4/1
f 67/3/1 66/3/1 65/3/1
f 68/3/1 66/3/1 67/3/1
f 70/3/1 69/3/1 68/3/1
f 71/3/1 69/3/1 70/3/1
f 75/3/1 73/3/1 72/3/1
f 76/3/1 73/3/1 75/3/1
f 77/3/1 75/3/1 74/3/1
f 78/3/1 75/3/1 77/3/1
f 79/3/2 80/3/2 81/3/2
f 81/3/2 80/3/2 82/3/2
f 82/3/2 83/3/2 84/3/2
f 84/3/2 83/3/2 85/3/2
f 86/3/2 87/3/2 89/3/2
f 89/3/2 87/3/2 90/3/2
f 88/3/2 89/3/2 91/3/2
f 91/3/2 89/3/2 92/3/2
f 93/4/2 94/4/2 95/4/2
f 95/4/2 94/4/2 96/4/2
f 97/5/2 98/5/2 99/5/2
f 99/5/2 98/5/2 100/5/2
f 101/5/2 102/5/2 103/5/2
f 103/5/2 102/5/2 104/5/2
f 105/4/2 106/4/2 107/4/2
f 107/4/2 106/4/2 108/4/2
f 109/4/2 110/4/2 111/4/2
f 111/4/2 110/4/2 112/4/2
f 113/5/2 114/5/2 117/5/2
f 117/5/2 114/5/2 118/5/2
f 115/2/2 116/2/2 119/2/2
f 119/2/2 116/2/2 120/2/2
f 119/1/2 120/1/2 121/1/2
f 121/1/2 120/1/2 122/1/2
f 121/2/2 122/2/2 123/2/2
f 123/2/2 122/2/2 124/2/2
f 125/5/2 126/5/2 129/5/2
f 129/5/2 126/5/2 130/5/2
f 127/4/2 128/4/2 131/4/2
f 131/4/2 128/4/2 132/4/2
f 133/4/2 134/4/2 135/4/2
f 135/4/2 134/4/2 136/4/2
f 137/4/2 138/4/2 139/4/2
f 139/4/2 138/4/2 140/4/2
f 141/3/2 142/3/2 143/3/2
f 143/3/2 142/3/2 144/3/2
f 144/3/2 145/3/2 146/3/2
f 146/3/2 145/3/2 147/3/2
f 147/3/2 148/3/2 150/3/2
f 150/3/2 148/3/2 151/3/2
f 149/3/2 150/3/2 153/3/2
f 153/3/2 150/3/2 154/3/2
f 152/3/2 153/3/2 155/3/2
f 155/3/2 153/3/2 156/3/2
f 161/3/3 158/3/3 157/3/3
f 162/3/3 158/3/3 161/3/3
f 163/3/3 160/3/3 159/3/3
f 164/3/3 160/3/3 163/3/3
f 169/3/3 166/3/3 165/3/3
f 170/3/3 166/3/3 169/3/3
f 171/3/3 168/3/3 167/3/3
f 172/3/3 168/3/3 171/3/3
f 177/3/3 174/3/3 173/3/3
f 178/3/3 174/3/3 177/3/3
f 179/3/3 176/3/3 175/3/3
f 180/3/3 176/3/3 179/3/3
f 185/3/3 182/3/3 181/3/3
f 186/3/3 182/3/3 185/3/3
f 187/3/3 184/3/3 183/3/3
f 188/3/3 184/3/3 187/3/3
f 191/3/3 190/3/3 189/3/3
f 192/3/3 190/3/3 191/3/3
f 193/3/3 192/3/3 191/3/3
f 194/3/3 192/3/3 193/3/3
f 195/3/3 194/3/3 193/3/3
f 196/3/3 194/3/3 195/3/3
f 202/4/3 198/4/3 197/4/3
f 203/4/3 198/4/3 202/4/3
f 206/4/3 200/4/3 199/4/3
f 207/4/3 200/4/3 206/4/3
f 210/4/3 202/4/3 201/4/3
f 210/4/3 203/4/3 202/4/3
f 211/2/3 204/2/3 203/2/3
f 211/4/3 203/4/3 210/4/3
f 212/2/3 204/2/3 211/2/3
f 213/2/3 206/2/3 205/2/3
f 214/4/3 208/4/3 207/4/3
f 214/2/3 206/2/3 213/2/3
f 214/4/3 207/4/3 206/4/3
f 215/4/3 208/4/3 214/4/3
f 217/4/3 210/4/3 209/4/3
f 217/4/3 211/4/3 210/4/3
f 217/4/3 212/4/3 211/4/3
f 218/4/3 212/4/3 217/4/3
f 219/4/3 212/4/3 218/4/3
f 220/4/3 212/4/3 219/4/3
f 221/4/3 216/4/3 215/4/3
f 221/4/3 215/4/3 214/4/3
f 221/4/3 214/4/3 213/4/3
f 222/4/3 216/4/3 221/4/3
f 223/4/3 216/4/3 222/4/3
f 224/4/3 216/4/3 223/4/3
f 225/4/3 219/4/3 218/4/3
f 226/4/3 219/4/3 225/4/3
f 227/2/3 220/2/3 219/2/3
f 227/4/3 219/4/3 226/4/3
f 228/2/3 220/2/3 227/2/3
f 229/2/3 222/2/3 221/2/3
f 230/4/3 223/4/3 222/4/3
f 230/2/3 222/2/3 229/2/3
f 231/4/3 223/4/3 230/4/3
f 232/4/3 223/4/3 231/4/3
f 233/4/3 227/4/3 226/4/3
f 234/4/3 227/4/3 233/4/3
f 235/4/3 231/4/3 230/4/3
f 236/4/3 231/4/3 235/4/3
f 241/5/3 238/5/3 237/5/3
f 242/5/3 238/5/3 241/5/3
f 243/5/3 240/5/3 239/5/3
f 244/5/3 240/5/3 243/5/3
f 249/5/3 246/5/3 245/5/3
f 250/5/3 246/5/3 249/5/3
f 251/5/3 248/5/3 247/5/3
f 252/5/3 248/5/3 251/5/3
f 253/3/4 254/3/4 257/3/4
f 257/3/4 254/3/4 258/3/4
f 255/3/4 256/3/4 259/3/4
f 259/3/4 256/3/4 260/3/4
f 261/3/4 262/3/4 265/3/4
f 265/3/4 262/3/4 266/3/4
f 263/3/4 264/3/4 267/3/4
f 267/3/4 264/3/4 268/3/4
f 269/3/4 270/3/4 273/3/4
f 273/3/4 270/3/4 274/3/4
f 271/3/4 272/3/4 275/3/4
f 275/3/4 272/3/4 276/3/4
f 277/3/4 278/3/4 281/3/4
f 281/3/4 278/3/4 282/3/4
f 279/3/4 280/3/4 283/3/4
f 283/3/4 280/3/4 284/3/4
f 285/3/4 286/3/4 287/3/4
f 287/3/4 286/3/4 288/3/4
f 289/3/4 290/3/4 291/3/4
f 291/3/4 290/3/4 292/3/4
f 293/4/4 294/4/4 298/4/4
f 298/4/4 294/4/4 299/4/4
f 295/4/4 296/4/4 302/4/4
f 302/4/4 296/4/4 303/4/4
f 297/4/4 298/4/4 306/4/4
f 298/4/4 299/4/4 306/4/4
f 306/4/4 299/4/4 307/4/4
f 299/2/4 300/2/4 308/2/4
f 307/4/4 299/4/4 308/4/4
f 300/1/4 301/1/4 309/1/4
f 308/2/4 300/2/4 309/2/4
f 301/2/4 302/2/4 310/2/4
f 309/1/4 301/1/4 310/1/4
f 303/4/4 304/4/4 311/4/4
f 310/2/4 302/2/4 311/2/4
f 302/4/4 303/4/4 311/4/4
f 311/4/4 304/4/4 312/4/4
f 312/4/4 304/4/4 313/4/4
f 305/4/4 306/4/4 315/4/4
f 306/4/4 307/4/4 315/4/4
f 315/4/4 307/4/4 316/4/4
f 316/4/4 307/4/4 317/4/4
f 309/4/4 310/4/4 318/4/4
f 310/4/4 311/4/4 318/4/4
f 308/4/4 309/4/4 318/4/4
f 318/4/4 311/4/4 319/4/4
f 319/4/4 311/4/4 320/4/4
f 320/4/4 311/4/4 321/4/4
f 313/4/4 314/4/4 322/4/4
f 312/4/4 313/4/4 322/4/4
f 322/4/4 314/4/4 323/4/4
f 323/4/4 314/4/4 324/4/4
f 316/4/4 317/4/4 325/4/4
f 317/4/4 318/4/4 325/4/4
f 325/4/4 318/4/4 326/4/4
f 318/2/4 319/2/4 327/2/4
f 326/4/4 318/4/4 327/4/4
f 319/1/4 320/1/4 328/1/4
f 327/2/4 319/2/4 328/2/4
f 320/2/4 321/2/4 329/2/4
f 328/1/4 320/1/4 329/1/4
f 322/4/4 323/4/4 330/4/4
f 329/2/4 321/2/4 330/2/4
f 321/4/4 322/4/4 330/4/4
f 330/4/4 323/4/4 331/4/4
f 331/4/4 323/4/4 332/4/4
f 326/4/4 327/4/4 333/4/4
f 333/4/4 327/4/4 334/4/4
f 330/4/4 331/4/4 335/4/4
f 335/4/4 331/4/4 336/4/4
f 337/5/4 338/5/4 341/5/4
f 341/5/4 338/5/4 342/5/4
f 339/5/4 340/5/4 343/5/4
f 343/5/4 340/5/4 344/5/4
f 347/4/5 346/4/5 345/4/5
f 348/4/5 346/4/5 347/4/5
f 353/4/5 350/4/5 349/4/5
f 354/4/5 350/4/5 353/4/5
f 355/4/5 352/4/5 351/4/5
f 356/4/5 352/4/5 355/4/5
f 361/4/5 358/4/5 357/4/5
f 362/4/5 358/4/5 361/4/5
f 365/4/5 360/4/5 359/4/5
f 366/4/5 360/4/5 365/4/5
f 368/5/5 364/5/5 363/5/5
f 369/5/5 364/5/5 368/5/5
f 371/5/5 368/5/5 367/5/5
f 371/5/5 370/5/5 369/5/5
f 371/5/5 369/5/5 368/5/5
f 372/5/5 370/5/5 371/5/5
f 377/3/5 374/3/5 373/3/5
f 378/3/5 374/3/5 377/3/5
f 379/3/5 376/3/5 375/3/5
f 380/3/5 376/3/5 379/3/5
f 385/3/5 382/3/5 381/3/5
f 386/3/5 382/3/5 385/3/5
f 387/3/5 384/3/5 383/3/5
f 388/3/5 384/3/5 387/3/5
f 393/3/5 390/3/5 389/3/5
f 393/3/5 392/3/5 391/3/5
f 393/3/5 391/3/5 390/3/5
f 394/3/5 392/3/5 393/3/5
f 395/3/5 392/3/5 394/3/5
f 396/3/5 392/3/5 395/3/5
f 397/3/5 392/3/5 396/3/5
f 398/3/5 392/3/5 397/3/5
f 403/3/5 400/3/5 399/3/5
f 404/3/5 400/3/5 403/3/5
f 405/3/5 402/3/5 401/3/5
f 406/3/5 402/3/5 405/3/5
f 411/3/5 408/3/5 407/3/5
f 412/3/5 408/3/5 411/3/5
f 413/3/5 410/3/5 409/3/5
f 414/3/5 410/3/5 413/3/5
f 419/4/5 416/4/5 415/4/5
f 420/4/5 416/4/5 419/4/5
f 423/4/5 418/4/5 417/4/5
f 424/4/5 418/4/5 423/4/5
f 426/5/5 422/5/5 421/5/5
f 427/5/5 422/5/5 426/5/5
f 429/5/5 426/5/5 425/5/5
f 429/5/5 428/5/5 427/5/5
f 429/5/5 427/5/5 426/5/5
f 430/5/5 428/5/5 429/5/5
f 431/4/6 432/4/6 435/4/6
f 435/4/6 432/4/6 436/4/6
f 433/4/6 434/4/6 439/4/6
f 439/4/6 434/4/6 440/4/6
f 437/5/6 438/5/6 442/5/6
f 442/5/6 438/5/6 443/5/6
f 441/5/6 442/5/6 445/5/6
f 443/5/6 444/5/6 445/5/6
f 442/5/6 443/5/6 445/5/6
f 445/5/6 444/5/6 446/5/6
f 447/3/6 448/3/6 451/3/6
f 451/3/6 448/3/6 452/3/6
f 449/3/6 450/3/6 453/3/6
f 453/3/6 450/3/6 454/3/6
f 455/3/6 456/3/6 459/3/6
f 459/3/6 456/3/6 460/3/6
f 457/3/6 458/3/6 461/3/6
f 461/3/6 458/3/6 462/3/6
f 463/3/6 464/3/6 467/3/6
f 465/3/6 466/3/6 467/3/6
f 464/3/6 465/3/6 467/3/6
f 467/3/6 466/3/6 468/3/6
f 468/3/6 466/3/6 469/3/6
f 469/3/6 466/3/6 470/3/6
f 470/3/6 466/3/6 471/3/6
f 471/3/6 466/3/6 472/3/6
f 473/3/6 474/3/6 477/3/6
f 477/3/6 474/3/6 478/3/6
f 475/3/6 476/3/6 479/3/6
f 479/3/6 476/3/6 480/3/6
f 481/3/6 482/3/6 485/3/6
f 485/3/6 482/3/6 486/3/6
f 483/3/6 484/3/6 487/3/6
f 487/3/6 484/3/6 488/3/6
f 489/4/6 490/4/6 493/4/6
f 493/4/6 490/4/6 494/4/6
f 491/4/6 492/4/6 497/4/6
f 497/4/6 492/4/6 498/4/6
f 495/5/6 496/5/6 500/5/6
f 500/5/6 496/5/6 501/5/6
f 499/5/6 500/5/6 503/5/6
f 501/5/6 502/5/6 503/5/6
f 500/5/6 501/5/6 503/5/6
f 503/5/6 502/5/6 504/5/6
f 505/4/6 506/4/6 509/4/6
f 509/4/6 506/4/6 510/4/6
f 507/4/6 508/4/6 511/4/6
f 511/4/6 508/4/6 512/4/6
f 513/4/6 514/4/6 515/4/6
f 515/4/6 514/4/6 516/4/6
