# MagicaVoxel @ Ephtracy

# group
o 

# material
mtllib Personaje camburo-32.mtl
usemtl palette

# normals
vn -1 0 0
vn 1 0 0
vn 0 0 1
vn 0 0 -1
vn 0 -1 0
vn 0 1 0

# texcoords
vt 0.783203 0.5
vt 0.923828 0.5
vt 0.986328 0.5

# verts
v 18.6 4.2 9.8
v 18.6 4.2 8.2
v 18.6 4.4 8.8
v 18.6 4.4 8.2
v 18.6 5 9.8
v 18.6 5 8.8
v 18.8 4.2 10
v 18.8 4.2 9.8
v 18.8 4.2 8.2
v 18.8 4.2 8
v 18.8 4.4 8.8
v 18.8 4.4 8.6
v 18.8 4.4 8.2
v 18.8 4.4 8
v 18.8 5 10
v 18.8 5 9.8
v 18.8 5 8.8
v 18.8 5 8.6
v 19 4.2 10.2
v 19 4.2 10
v 19 4.4 8.6
v 19 4.4 8.4
v 19 5 10.2
v 19 5 10
v 19 5 8.6
v 19 5 8.4
v 19.2 4.2 8
v 19.2 4.2 7.8
v 19.2 4.4 8
v 19.2 4.4 7.8
v 20 4.2 10
v 20 4.2 9.8
v 20 4.2 8.8
v 20 4.2 8.6
v 20 4.8 10
v 20 4.8 9.8
v 20 4.8 8.8
v 20 4.8 8.6
v 20.2 4.2 9.8
v 20.2 4.2 9.6
v 20.2 4.2 9
v 20.2 4.2 8.8
v 20.2 4.8 9.8
v 20.2 4.8 9.6
v 20.2 4.8 9
v 20.2 4.8 8.8
v 20.4 4.2 9.6
v 20.4 4.2 9
v 20.4 4.8 9.6
v 20.4 4.8 9
v 18.8 4.2 9.6
v 18.8 4.2 9
v 18.8 4.8 9.6
v 18.8 4.8 9
v 19 4.2 9.8
v 19 4.2 9.6
v 19 4.2 9
v 19 4.2 8.8
v 19 4.8 9.8
v 19 4.8 9.6
v 19 4.8 9
v 19 4.8 8.8
v 19.2 4.2 10
v 19.2 4.2 9.8
v 19.2 4.2 8.8
v 19.2 4.2 8.6
v 19.2 4.8 10
v 19.2 4.8 9.8
v 19.2 4.8 8.8
v 19.2 4.8 8.6
v 20 4.2 8
v 20 4.2 7.8
v 20 4.4 8
v 20 4.4 7.8
v 20.2 4.2 10.2
v 20.2 4.2 10
v 20.2 4.4 8.6
v 20.2 4.4 8.4
v 20.2 5 10.2
v 20.2 5 10
v 20.2 5 8.6
v 20.2 5 8.4
v 20.4 4.2 10
v 20.4 4.2 9.8
v 20.4 4.2 8.2
v 20.4 4.2 8
v 20.4 4.4 8.8
v 20.4 4.4 8.6
v 20.4 4.4 8.2
v 20.4 4.4 8
v 20.4 5 10
v 20.4 5 9.8
v 20.4 5 8.8
v 20.4 5 8.6
v 20.6 4.2 9.8
v 20.6 4.2 8.2
v 20.6 4.4 8.8
v 20.6 4.4 8.2
v 20.6 5 9.8
v 20.6 5 8.8
v 19 4.2 10.2
v 19 5 10.2
v 20.2 4.2 10.2
v 20.2 5 10.2
v 18.8 4.2 10
v 18.8 5 10
v 19 4.2 10
v 19 5 10
v 20.2 4.2 10
v 20.2 5 10
v 20.4 4.2 10
v 20.4 5 10
v 18.6 4.2 9.8
v 18.6 5 9.8
v 18.8 4.2 9.8
v 18.8 5 9.8
v 20.4 4.2 9.8
v 20.4 5 9.8
v 20.6 4.2 9.8
v 20.6 5 9.8
v 18.8 4.2 9
v 18.8 4.8 9
v 19 4.2 9
v 19 4.8 9
v 20.2 4.2 9
v 20.2 4.8 9
v 20.4 4.2 9
v 20.4 4.8 9
v 19 4.2 8.8
v 19 4.8 8.8
v 19.2 4.2 8.8
v 19.2 4.8 8.8
v 20 4.2 8.8
v 20 4.8 8.8
v 20.2 4.2 8.8
v 20.2 4.8 8.8
v 19.2 4.2 8.6
v 19.2 4.8 8.6
v 20 4.2 8.6
v 20 4.8 8.6
v 19.2 4.2 10
v 19.2 4.8 10
v 20 4.2 10
v 20 4.8 10
v 19 4.2 9.8
v 19 4.8 9.8
v 19.2 4.2 9.8
v 19.2 4.8 9.8
v 20 4.2 9.8
v 20 4.8 9.8
v 20.2 4.2 9.8
v 20.2 4.8 9.8
v 18.8 4.2 9.6
v 18.8 4.8 9.6
v 19 4.2 9.6
v 19 4.8 9.6
v 20.2 4.2 9.6
v 20.2 4.8 9.6
v 20.4 4.2 9.6
v 20.4 4.8 9.6
v 18.6 4.4 8.8
v 18.6 5 8.8
v 18.8 4.4 8.8
v 18.8 5 8.8
v 20.4 4.4 8.8
v 20.4 5 8.8
v 20.6 4.4 8.8
v 20.6 5 8.8
v 18.8 4.4 8.6
v 18.8 5 8.6
v 19 4.4 8.6
v 19 5 8.6
v 20.2 4.4 8.6
v 20.2 5 8.6
v 20.4 4.4 8.6
v 20.4 5 8.6
v 19 4.4 8.4
v 19 5 8.4
v 19.4 4.4 8.4
v 19.4 4.8 8.4
v 19.5 4.5 8.4
v 19.5 4.6 8.4
v 19.5 4.8 8.4
v 19.5 4.9 8.4
v 19.6 4.4 8.4
v 19.6 4.5 8.4
v 19.6 4.6 8.4
v 19.6 4.7 8.4
v 19.7 4.4 8.4
v 19.7 4.5 8.4
v 19.7 4.6 8.4
v 19.7 4.7 8.4
v 19.7 4.8 8.4
v 19.7 4.9 8.4
v 19.8 4.4 8.4
v 19.8 4.8 8.4
v 20.2 4.4 8.4
v 20.2 5 8.4
v 18.6 4.2 8.2
v 18.6 4.4 8.2
v 18.8 4.2 8.2
v 18.8 4.4 8.2
v 20.4 4.2 8.2
v 20.4 4.4 8.2
v 20.6 4.2 8.2
v 20.6 4.4 8.2
v 18.8 4.2 8
v 18.8 4.4 8
v 19.2 4.2 8
v 19.2 4.4 8
v 20 4.2 8
v 20 4.4 8
v 20.4 4.2 8
v 20.4 4.4 8
v 19.2 4.2 7.8
v 19.2 4.4 7.8
v 20 4.2 7.8
v 20 4.4 7.8
v 19 4.2 10.2
v 20.2 4.2 10.2
v 18.8 4.2 10
v 19 4.2 10
v 19.2 4.2 10
v 20 4.2 10
v 20.2 4.2 10
v 20.4 4.2 10
v 18.6 4.2 9.8
v 18.8 4.2 9.8
v 19 4.2 9.8
v 19.2 4.2 9.8
v 20 4.2 9.8
v 20.2 4.2 9.8
v 20.4 4.2 9.8
v 20.6 4.2 9.8
v 18.8 4.2 9.6
v 19 4.2 9.6
v 20.2 4.2 9.6
v 20.4 4.2 9.6
v 18.8 4.2 9
v 19 4.2 9
v 20.2 4.2 9
v 20.4 4.2 9
v 19 4.2 8.8
v 19.2 4.2 8.8
v 20 4.2 8.8
v 20.2 4.2 8.8
v 19.2 4.2 8.6
v 20 4.2 8.6
v 18.6 4.2 8.2
v 18.8 4.2 8.2
v 20.4 4.2 8.2
v 20.6 4.2 8.2
v 18.8 4.2 8
v 19.2 4.2 8
v 20 4.2 8
v 20.4 4.2 8
v 19.2 4.2 7.8
v 20 4.2 7.8
v 19.2 4.8 10
v 20 4.8 10
v 19 4.8 9.8
v 19.2 4.8 9.8
v 20 4.8 9.8
v 20.2 4.8 9.8
v 18.8 4.8 9.6
v 19 4.8 9.6
v 20.2 4.8 9.6
v 20.4 4.8 9.6
v 18.8 4.8 9
v 19 4.8 9
v 20.2 4.8 9
v 20.4 4.8 9
v 19 4.8 8.8
v 19.2 4.8 8.8
v 20 4.8 8.8
v 20.2 4.8 8.8
v 19.2 4.8 8.6
v 20 4.8 8.6
v 18.6 4.4 8.8
v 18.8 4.4 8.8
v 20.4 4.4 8.8
v 20.6 4.4 8.8
v 18.8 4.4 8.6
v 19 4.4 8.6
v 20.2 4.4 8.6
v 20.4 4.4 8.6
v 19 4.4 8.4
v 19.4 4.4 8.4
v 19.6 4.4 8.4
v 19.7 4.4 8.4
v 19.8 4.4 8.4
v 20.2 4.4 8.4
v 18.6 4.4 8.2
v 18.8 4.4 8.2
v 20.4 4.4 8.2
v 20.6 4.4 8.2
v 18.8 4.4 8
v 19.2 4.4 8
v 20 4.4 8
v 20.4 4.4 8
v 19.2 4.4 7.8
v 20 4.4 7.8
v 19 5 10.2
v 20.2 5 10.2
v 18.8 5 10
v 19 5 10
v 20.2 5 10
v 20.4 5 10
v 18.6 5 9.8
v 18.8 5 9.8
v 20.4 5 9.8
v 20.6 5 9.8
v 18.6 5 8.8
v 18.8 5 8.8
v 20.4 5 8.8
v 20.6 5 8.8
v 18.8 5 8.6
v 19 5 8.6
v 20.2 5 8.6
v 20.4 5 8.6
v 19 5 8.4
v 20.2 5 8.4

# faces
f 3/1/1 2/1/1 1/1/1
f 4/1/1 2/1/1 3/1/1
f 5/1/1 3/1/1 1/1/1
f 6/1/1 3/1/1 5/1/1
f 13/1/1 10/1/1 9/1/1
f 14/1/1 10/1/1 13/1/1
f 15/1/1 8/1/1 7/1/1
f 16/1/1 8/1/1 15/1/1
f 17/1/1 12/1/1 11/1/1
f 18/1/1 12/1/1 17/1/1
f 23/1/1 20/1/1 19/1/1
f 24/1/1 20/1/1 23/1/1
f 25/1/1 22/1/1 21/1/1
f 26/1/1 22/1/1 25/1/1
f 29/1/1 28/1/1 27/1/1
f 30/1/1 28/1/1 29/1/1
f 35/1/1 32/1/1 31/1/1
f 36/1/1 32/1/1 35/1/1
f 37/1/1 34/1/1 33/1/1
f 38/1/1 34/1/1 37/1/1
f 43/1/1 40/1/1 39/1/1
f 44/1/1 40/1/1 43/1/1
f 45/1/1 42/1/1 41/1/1
f 46/1/1 42/1/1 45/1/1
f 49/1/1 48/1/1 47/1/1
f 50/1/1 48/1/1 49/1/1
f 51/1/2 52/1/2 53/1/2
f 53/1/2 52/1/2 54/1/2
f 55/1/2 56/1/2 59/1/2
f 59/1/2 56/1/2 60/1/2
f 57/1/2 58/1/2 61/1/2
f 61/1/2 58/1/2 62/1/2
f 63/1/2 64/1/2 67/1/2
f 67/1/2 64/1/2 68/1/2
f 65/1/2 66/1/2 69/1/2
f 69/1/2 66/1/2 70/1/2
f 71/1/2 72/1/2 73/1/2
f 73/1/2 72/1/2 74/1/2
f 75/1/2 76/1/2 79/1/2
f 79/1/2 76/1/2 80/1/2
f 77/1/2 78/1/2 81/1/2
f 81/1/2 78/1/2 82/1/2
f 85/1/2 86/1/2 89/1/2
f 89/1/2 86/1/2 90/1/2
f 83/1/2 84/1/2 91/1/2
f 91/1/2 84/1/2 92/1/2
f 87/1/2 88/1/2 93/1/2
f 93/1/2 88/1/2 94/1/2
f 95/1/2 96/1/2 97/1/2
f 97/1/2 96/1/2 98/1/2
f 95/1/2 97/1/2 99/1/2
f 99/1/2 97/1/2 100/1/2
f 103/1/3 102/1/3 101/1/3
f 104/1/3 102/1/3 103/1/3
f 107/1/3 106/1/3 105/1/3
f 108/1/3 106/1/3 107/1/3
f 111/1/3 110/1/3 109/1/3
f 112/1/3 110/1/3 111/1/3
f 115/1/3 114/1/3 113/1/3
f 116/1/3 114/1/3 115/1/3
f 119/1/3 118/1/3 117/1/3
f 120/1/3 118/1/3 119/1/3
f 123/1/3 122/1/3 121/1/3
f 124/1/3 122/1/3 123/1/3
f 127/1/3 126/1/3 125/1/3
f 128/1/3 126/1/3 127/1/3
f 131/1/3 130/1/3 129/1/3
f 132/1/3 130/1/3 131/1/3
f 135/1/3 134/1/3 133/1/3
f 136/1/3 134/1/3 135/1/3
f 139/1/3 138/1/3 137/1/3
f 140/1/3 138/1/3 139/1/3
f 141/1/4 142/1/4 143/1/4
f 143/1/4 142/1/4 144/1/4
f 145/1/4 146/1/4 147/1/4
f 147/1/4 146/1/4 148/1/4
f 149/1/4 150/1/4 151/1/4
f 151/1/4 150/1/4 152/1/4
f 153/1/4 154/1/4 155/1/4
f 155/1/4 154/1/4 156/1/4
f 157/1/4 158/1/4 159/1/4
f 159/1/4 158/1/4 160/1/4
f 161/1/4 162/1/4 163/1/4
f 163/1/4 162/1/4 164/1/4
f 165/1/4 166/1/4 167/1/4
f 167/1/4 166/1/4 168/1/4
f 169/1/4 170/1/4 171/1/4
f 171/1/4 170/1/4 172/1/4
f 173/1/4 174/1/4 175/1/4
f 175/1/4 174/1/4 176/1/4
f 177/1/4 178/1/4 179/1/4
f 179/1/4 178/1/4 180/1/4
f 179/2/4 180/2/4 181/2/4
f 181/2/4 180/2/4 182/2/4
f 180/1/4 178/1/4 183/1/4
f 182/2/4 180/2/4 183/2/4
f 183/1/4 178/1/4 184/1/4
f 179/2/4 181/2/4 185/2/4
f 181/3/4 182/3/4 186/3/4
f 185/2/4 181/2/4 186/2/4
f 182/2/4 183/2/4 187/2/4
f 186/3/4 182/3/4 187/3/4
f 183/2/4 184/2/4 187/2/4
f 187/2/4 184/2/4 188/2/4
f 185/3/4 186/3/4 189/3/4
f 186/2/4 187/2/4 190/2/4
f 189/3/4 186/3/4 190/3/4
f 187/3/4 188/3/4 191/3/4
f 190/2/4 187/2/4 191/2/4
f 188/2/4 184/2/4 192/2/4
f 191/3/4 188/3/4 192/3/4
f 192/2/4 184/2/4 193/2/4
f 184/1/4 178/1/4 194/1/4
f 193/2/4 184/2/4 194/2/4
f 192/2/4 193/2/4 195/2/4
f 190/2/4 191/2/4 195/2/4
f 189/2/4 190/2/4 195/2/4
f 191/2/4 192/2/4 195/2/4
f 193/1/4 194/1/4 196/1/4
f 195/2/4 193/2/4 196/2/4
f 195/1/4 196/1/4 197/1/4
f 194/1/4 178/1/4 198/1/4
f 197/1/4 196/1/4 198/1/4
f 196/1/4 194/1/4 198/1/4
f 199/1/4 200/1/4 201/1/4
f 201/1/4 200/1/4 202/1/4
f 203/1/4 204/1/4 205/1/4
f 205/1/4 204/1/4 206/1/4
f 207/1/4 208/1/4 209/1/4
f 209/1/4 208/1/4 210/1/4
f 211/1/4 212/1/4 213/1/4
f 213/1/4 212/1/4 214/1/4
f 215/1/4 216/1/4 217/1/4
f 217/1/4 216/1/4 218/1/4
f 222/1/5 220/1/5 219/1/5
f 223/1/5 220/1/5 222/1/5
f 224/1/5 220/1/5 223/1/5
f 225/1/5 220/1/5 224/1/5
f 228/1/5 222/1/5 221/1/5
f 228/1/5 223/1/5 222/1/5
f 229/1/5 223/1/5 228/1/5
f 230/1/5 223/1/5 229/1/5
f 231/1/5 225/1/5 224/1/5
f 231/1/5 226/1/5 225/1/5
f 232/1/5 226/1/5 231/1/5
f 233/1/5 226/1/5 232/1/5
f 235/1/5 229/1/5 228/1/5
f 235/1/5 228/1/5 227/1/5
f 236/1/5 229/1/5 235/1/5
f 237/1/5 234/1/5 233/1/5
f 237/1/5 233/1/5 232/1/5
f 238/1/5 234/1/5 237/1/5
f 239/1/5 235/1/5 227/1/5
f 242/1/5 234/1/5 238/1/5
f 243/1/5 240/1/5 239/1/5
f 246/1/5 242/1/5 241/1/5
f 247/1/5 244/1/5 243/1/5
f 248/1/5 246/1/5 245/1/5
f 249/1/5 247/1/5 243/1/5
f 249/1/5 248/1/5 247/1/5
f 249/1/5 239/1/5 227/1/5
f 249/1/5 243/1/5 239/1/5
f 250/1/5 248/1/5 249/1/5
f 251/1/5 246/1/5 248/1/5
f 251/1/5 248/1/5 250/1/5
f 251/1/5 234/1/5 242/1/5
f 251/1/5 242/1/5 246/1/5
f 252/1/5 234/1/5 251/1/5
f 253/1/5 251/1/5 250/1/5
f 254/1/5 251/1/5 253/1/5
f 255/1/5 251/1/5 254/1/5
f 256/1/5 251/1/5 255/1/5
f 257/1/5 255/1/5 254/1/5
f 258/1/5 255/1/5 257/1/5
f 262/1/5 260/1/5 259/1/5
f 263/1/5 260/1/5 262/1/5
f 266/1/5 262/1/5 261/1/5
f 266/1/5 264/1/5 263/1/5
f 266/1/5 263/1/5 262/1/5
f 267/1/5 264/1/5 266/1/5
f 269/1/5 266/1/5 265/1/5
f 269/1/5 268/1/5 267/1/5
f 269/1/5 267/1/5 266/1/5
f 270/1/5 268/1/5 269/1/5
f 271/1/5 268/1/5 270/1/5
f 272/1/5 268/1/5 271/1/5
f 273/1/5 271/1/5 270/1/5
f 274/1/5 271/1/5 273/1/5
f 275/1/5 271/1/5 274/1/5
f 276/1/5 271/1/5 275/1/5
f 277/1/5 275/1/5 274/1/5
f 278/1/5 275/1/5 277/1/5
f 279/1/6 280/1/6 283/1/6
f 281/1/6 282/1/6 286/1/6
f 283/1/6 284/1/6 287/1/6
f 285/1/6 286/1/6 292/1/6
f 290/1/6 291/1/6 293/1/6
f 291/1/6 292/1/6 293/1/6
f 279/1/6 283/1/6 293/1/6
f 283/1/6 287/1/6 293/1/6
f 289/1/6 290/1/6 293/1/6
f 288/1/6 289/1/6 293/1/6
f 287/1/6 288/1/6 293/1/6
f 293/1/6 292/1/6 294/1/6
f 292/1/6 286/1/6 295/1/6
f 294/1/6 292/1/6 295/1/6
f 286/1/6 282/1/6 295/1/6
f 295/1/6 282/1/6 296/1/6
f 294/1/6 295/1/6 297/1/6
f 297/1/6 295/1/6 298/1/6
f 298/1/6 295/1/6 299/1/6
f 299/1/6 295/1/6 300/1/6
f 298/1/6 299/1/6 301/1/6
f 301/1/6 299/1/6 302/1/6
f 303/1/6 304/1/6 306/1/6
f 306/1/6 304/1/6 307/1/6
f 305/1/6 306/1/6 310/1/6
f 307/1/6 308/1/6 310/1/6
f 306/1/6 307/1/6 310/1/6
f 310/1/6 308/1/6 311/1/6
f 309/1/6 310/1/6 313/1/6
f 311/1/6 312/1/6 313/1/6
f 310/1/6 311/1/6 313/1/6
f 313/1/6 312/1/6 314/1/6
f 314/1/6 312/1/6 315/1/6
f 315/1/6 312/1/6 316/1/6
f 314/1/6 315/1/6 317/1/6
f 317/1/6 315/1/6 318/1/6
f 318/1/6 315/1/6 319/1/6
f 319/1/6 315/1/6 320/1/6
f 318/1/6 319/1/6 321/1/6
f 321/1/6 319/1/6 322/1/6
